<svg width="390" height="811" viewBox="0 0 390 811" fill="none" xmlns="http://www.w3.org/2000/svg">
<g clip-path="url(#clip0_88_4)">
<rect width="390" height="811" rx="4" fill="white"/>
<path fill-rule="evenodd" clip-rule="evenodd" d="M337.089 19H351.911C353.159 19 353.611 19.13 354.068 19.374C354.524 19.618 354.882 19.9761 355.126 20.4324C355.37 20.8887 355.5 21.3413 355.5 22.5894V26.9106C355.5 28.1587 355.37 28.6113 355.126 29.0676C354.882 29.5239 354.524 29.882 354.068 30.126C353.611 30.37 353.159 30.5 351.911 30.5H337.089C335.841 30.5 335.389 30.37 334.932 30.126C334.476 29.882 334.118 29.5239 333.874 29.0676C333.63 28.6113 333.5 28.1587 333.5 26.9106V22.5894C333.5 21.3413 333.63 20.8887 333.874 20.4324C334.118 19.9761 334.476 19.618 334.932 19.374C335.389 19.13 335.841 19 337.089 19ZM337.089 20C336.102 20 335.758 20.0665 335.404 20.2558C335.122 20.4066 334.907 20.622 334.756 20.904C334.567 21.2579 334.5 21.6025 334.5 22.5894V26.9106C334.5 27.8975 334.567 28.2421 334.756 28.596C334.907 28.878 335.122 29.0934 335.404 29.2442C335.758 29.4335 336.102 29.5 337.089 29.5H351.911C352.898 29.5 353.242 29.4335 353.596 29.2442C353.878 29.0934 354.093 28.878 354.244 28.596C354.433 28.2421 354.5 27.8975 354.5 26.9106V22.5894C354.5 21.6025 354.433 21.2579 354.244 20.904C354.093 20.622 353.878 20.4066 353.596 20.2558C353.242 20.0665 352.898 20 351.911 20H337.089ZM358 24.69C358 25.9266 356.5 26.69 356.5 26.69V22.69C356.5 22.69 358 23.4534 358 24.69Z" fill="white"/>
<rect x="335.5" y="20.9166" width="18" height="7.66667" rx="1.6" fill="white"/>
<path fill-rule="evenodd" clip-rule="evenodd" d="M306.123 20.406C306.1 20.5219 306.1 20.6613 306.1 20.9401V28.6401C306.1 28.9189 306.1 29.0583 306.123 29.1742C306.218 29.6502 306.59 30.0223 307.066 30.117C307.182 30.1401 307.321 30.1401 307.6 30.1401C307.879 30.1401 308.018 30.1401 308.134 30.117C308.61 30.0223 308.982 29.6502 309.077 29.1742C309.1 29.0583 309.1 28.9189 309.1 28.6401V20.9401C309.1 20.6613 309.1 20.5219 309.077 20.406C308.982 19.9299 308.61 19.5578 308.134 19.4631C308.018 19.4401 307.879 19.4401 307.6 19.4401C307.321 19.4401 307.182 19.4401 307.066 19.4631C306.59 19.5578 306.218 19.9299 306.123 20.406ZM301.4 23.3401C301.4 23.0613 301.4 22.9219 301.423 22.806C301.518 22.33 301.89 21.9578 302.366 21.8631C302.482 21.8401 302.621 21.8401 302.9 21.8401C303.179 21.8401 303.318 21.8401 303.434 21.8631C303.91 21.9578 304.282 22.33 304.377 22.806C304.4 22.9219 304.4 23.0613 304.4 23.3401V28.6401C304.4 28.9189 304.4 29.0583 304.377 29.1742C304.282 29.6502 303.91 30.0223 303.434 30.117C303.318 30.1401 303.179 30.1401 302.9 30.1401C302.621 30.1401 302.482 30.1401 302.366 30.117C301.89 30.0223 301.518 29.6502 301.423 29.1742C301.4 29.0583 301.4 28.9189 301.4 28.6401V23.3401ZM296.823 25.106C296.8 25.2219 296.8 25.3613 296.8 25.6401V28.6401C296.8 28.9189 296.8 29.0583 296.823 29.1742C296.918 29.6502 297.29 30.0223 297.766 30.117C297.882 30.1401 298.021 30.1401 298.3 30.1401C298.579 30.1401 298.718 30.1401 298.834 30.117C299.31 30.0223 299.682 29.6502 299.777 29.1742C299.8 29.0583 299.8 28.9189 299.8 28.6401V25.6401C299.8 25.3613 299.8 25.2219 299.777 25.106C299.682 24.6299 299.31 24.2578 298.834 24.1631C298.718 24.1401 298.579 24.1401 298.3 24.1401C298.021 24.1401 297.882 24.1401 297.766 24.1631C297.29 24.2578 296.918 24.6299 296.823 25.106ZM292.023 27.106C292 27.2219 292 27.3613 292 27.6401V28.6401C292 28.9189 292 29.0583 292.023 29.1742C292.118 29.6502 292.49 30.0224 292.966 30.117C293.082 30.1401 293.221 30.1401 293.5 30.1401C293.779 30.1401 293.918 30.1401 294.034 30.117C294.51 30.0224 294.882 29.6502 294.977 29.1742C295 29.0583 295 28.9189 295 28.6401V27.6401C295 27.3613 295 27.2219 294.977 27.106C294.882 26.63 294.51 26.2579 294.034 26.1632C293.918 26.1401 293.779 26.1401 293.5 26.1401C293.221 26.1401 293.082 26.1401 292.966 26.1632C292.49 26.2579 292.118 26.63 292.023 27.106Z" fill="white"/>
<path fill-rule="evenodd" clip-rule="evenodd" d="M320.8 21.5364C323.035 21.5364 325.184 22.395 326.803 23.9346C326.925 24.0534 327.12 24.0519 327.24 23.9312L328.406 22.7548C328.467 22.6936 328.5 22.6106 328.5 22.5243C328.499 22.438 328.465 22.3555 328.403 22.295C324.153 18.2217 317.447 18.2217 313.197 22.295C313.135 22.3554 313.101 22.438 313.1 22.5242C313.099 22.6105 313.133 22.6935 313.194 22.7548L314.36 23.9312C314.48 24.0521 314.675 24.0536 314.797 23.9346C316.417 22.3949 318.566 21.5363 320.8 21.5364ZM320.8 25.3637C322.028 25.3637 323.212 25.82 324.122 26.644C324.245 26.761 324.439 26.7584 324.559 26.6383L325.723 25.4619C325.785 25.4002 325.819 25.3165 325.818 25.2295C325.817 25.1425 325.781 25.0595 325.718 24.999C322.947 22.4213 318.656 22.4213 315.885 24.999C315.822 25.0595 315.786 25.1425 315.786 25.2296C315.785 25.3166 315.819 25.4003 315.88 25.4619L317.044 26.6383C317.164 26.7584 317.358 26.761 317.481 26.644C318.391 25.8205 319.574 25.3642 320.8 25.3637ZM323.038 28.1713C323.1 28.1102 323.135 28.0261 323.133 27.9389C323.131 27.8517 323.093 27.769 323.029 27.7105C321.742 26.6226 319.858 26.6226 318.572 27.7105C318.508 27.769 318.47 27.8516 318.468 27.9388C318.466 28.0261 318.5 28.1102 318.563 28.1713L320.577 30.2038C320.636 30.2636 320.716 30.2972 320.8 30.2972C320.884 30.2972 320.965 30.2636 321.024 30.2038L323.038 28.1713Z" fill="white"/>
<path d="M37.0695 20.9418C34.8536 20.9151 33.426 22.5824 33.426 24.5852C33.426 26.6946 34.9814 28.2074 36.8564 28.2074C37.9857 28.2074 38.9445 27.6534 39.5411 26.7585H39.6263C39.6263 29.4432 38.5823 30.9773 36.899 30.9773C35.7485 30.9773 35.0454 30.2528 34.811 29.2514H33.5113C33.7669 30.9773 35.0667 32.1491 36.899 32.1491C39.3493 32.1491 40.8621 29.9759 40.8621 26.098C40.8621 22.0923 38.8593 20.9631 37.0695 20.9418ZM37.0695 22.1136C38.4331 22.1136 39.4346 23.2855 39.4346 24.5639C39.4346 25.8636 38.3692 27.0355 37.0269 27.0355C35.6846 27.0355 34.7044 25.9489 34.7044 24.5852C34.7044 23.2216 35.7272 22.1136 37.0695 22.1136ZM43.3485 32.0852C43.8758 32.0852 44.3073 31.6538 44.3073 31.1264C44.3073 30.5991 43.8758 30.1676 43.3485 30.1676C42.8211 30.1676 42.3897 30.5991 42.3897 31.1264C42.3897 31.6538 42.8211 32.0852 43.3485 32.0852ZM46.1212 29.7628H51.2561V32H52.5132V29.7628H54.0047V28.5909H52.5132V21.0909H50.9152L46.1212 28.6761V29.7628ZM51.2561 28.5909H47.5487V28.5057L51.1709 22.7741H51.2561V28.5909ZM59.5246 21.0909H58.2036L55.4763 22.902V24.2443L58.1397 22.4759H58.2036V32H59.5246V21.0909Z" fill="white"/>
<path d="M27.4347 232H36.4759V229.791H30.0696V217.455H27.4347V232ZM43.4077 232.213C46.6037 232.213 48.6349 229.962 48.6349 226.588C48.6349 223.207 46.6037 220.949 43.4077 220.949C40.2116 220.949 38.1804 223.207 38.1804 226.588C38.1804 229.962 40.2116 232.213 43.4077 232.213ZM43.4219 230.153C41.6534 230.153 40.7869 228.577 40.7869 226.581C40.7869 224.585 41.6534 222.987 43.4219 222.987C45.1619 222.987 46.0284 224.585 46.0284 226.581C46.0284 228.577 45.1619 230.153 43.4219 230.153ZM55.5614 236.318C58.5089 236.318 60.6822 234.969 60.6822 232.178V221.091H58.1467V222.895H58.0046C57.614 222.107 56.7972 220.949 54.8725 220.949C52.3512 220.949 50.3697 222.923 50.3697 226.51C50.3697 230.068 52.3512 231.844 54.8654 231.844C56.7333 231.844 57.6069 230.842 58.0046 230.04H58.1325V232.107C58.1325 233.712 57.0671 234.372 55.604 234.372C54.0558 234.372 53.3739 233.641 53.0614 233.001L50.7461 233.562C51.2148 235.089 52.7844 236.318 55.5614 236.318ZM55.5827 229.827C53.8853 229.827 52.9904 228.506 52.9904 226.496C52.9904 224.514 53.8711 223.058 55.5827 223.058C57.2376 223.058 58.1467 224.429 58.1467 226.496C58.1467 228.577 57.2234 229.827 55.5827 229.827ZM63.3171 232H65.8881V221.091H63.3171V232ZM64.6097 219.543C65.4265 219.543 66.0941 218.918 66.0941 218.151C66.0941 217.376 65.4265 216.751 64.6097 216.751C63.7859 216.751 63.1183 217.376 63.1183 218.151C63.1183 218.918 63.7859 219.543 64.6097 219.543ZM71.103 225.608C71.103 224.031 72.0547 223.122 73.4112 223.122C74.7393 223.122 75.5348 223.996 75.5348 225.452V232H78.1058V225.054C78.1129 222.44 76.6214 220.949 74.37 220.949C72.7365 220.949 71.6143 221.73 71.1172 222.945H70.9893V221.091H68.532V232H71.103V225.608Z" fill="#091E42"/>
<path d="M56.6733 300H65.1207V298.516H58.3466V293.82H64.581V292.335H58.3466V287.666H65.0128V286.182H56.6733V300ZM67.4049 300H68.9972V293.523C68.9972 292.005 70.1037 290.932 71.3452 290.932C72.5529 290.932 73.3963 291.721 73.3963 292.902V300H75.0157V293.253C75.0157 291.917 75.8523 290.932 77.3097 290.932C78.4432 290.932 79.4148 291.532 79.4148 293.064V300H81.0071V293.064C81.0071 290.628 79.6982 289.501 77.8495 289.501C76.3651 289.501 75.2788 290.183 74.7458 291.256H74.6378C74.125 290.149 73.2209 289.501 71.858 289.501C70.5085 289.501 69.51 290.149 69.0782 291.256H68.9432V289.636H67.4049V300ZM86.5602 300.243C88.3685 300.243 89.3131 299.271 89.6369 298.597H89.7179V300H91.3102V293.172C91.3102 289.879 88.8003 289.501 87.4779 289.501C85.9125 289.501 84.1313 290.041 83.3216 291.93L84.833 292.47C85.1838 291.714 86.0137 290.905 87.5318 290.905C88.996 290.905 89.7179 291.681 89.7179 293.01V293.064C89.7179 293.833 88.9352 293.766 87.046 294.009C85.1231 294.258 83.0247 294.683 83.0247 297.058C83.0247 299.082 84.5901 300.243 86.5602 300.243ZM86.8031 298.812C85.5347 298.812 84.6171 298.246 84.6171 297.139C84.6171 295.925 85.7236 295.547 86.9651 295.385C87.6398 295.304 89.448 295.115 89.7179 294.791V296.249C89.7179 297.544 88.6923 298.812 86.8031 298.812ZM93.8086 300H95.4009V289.636H93.8086V300ZM94.6182 287.909C95.239 287.909 95.7518 287.423 95.7518 286.83C95.7518 286.236 95.239 285.75 94.6182 285.75C93.9975 285.75 93.4847 286.236 93.4847 286.83C93.4847 287.423 93.9975 287.909 94.6182 287.909ZM99.5017 286.182H97.9094V300H99.5017V286.182ZM108.835 286.182H107.162V300H108.835V286.182ZM116.046 300C120.257 300 122.632 297.382 122.632 293.064C122.632 288.773 120.257 286.182 116.235 286.182H111.782V300H116.046ZM113.455 298.516V287.666H116.127C119.366 287.666 121.012 289.717 121.012 293.064C121.012 296.438 119.366 298.516 115.938 298.516H113.455Z" fill="#2D3544"/>
<path d="M56.6733 367H58.3466V361.953H61.3693C64.5877 361.953 66.0384 359.996 66.0384 357.554C66.0384 355.112 64.5877 353.182 61.3423 353.182H56.6733V367ZM58.3466 360.469V354.666H61.2884C63.5352 354.666 64.392 355.894 64.392 357.554C64.392 359.214 63.5352 360.469 61.3153 360.469H58.3466ZM71.1596 367.243C72.9679 367.243 73.9125 366.271 74.2364 365.597H74.3173V367H75.9096V360.172C75.9096 356.879 73.3997 356.501 72.0773 356.501C70.5119 356.501 68.7307 357.041 67.921 358.93L69.4324 359.47C69.7832 358.714 70.6131 357.905 72.1312 357.905C73.5954 357.905 74.3173 358.681 74.3173 360.01V360.064C74.3173 360.833 73.5346 360.766 71.6454 361.009C69.7225 361.258 67.6241 361.683 67.6241 364.058C67.6241 366.082 69.1895 367.243 71.1596 367.243ZM71.4025 365.812C70.1341 365.812 69.2165 365.246 69.2165 364.139C69.2165 362.925 70.323 362.547 71.5645 362.385C72.2392 362.304 74.0474 362.115 74.3173 361.791V363.249C74.3173 364.544 73.2918 365.812 71.4025 365.812ZM85.7489 358.957C85.2496 357.487 84.1296 356.501 82.0784 356.501C79.8924 356.501 78.273 357.743 78.273 359.497C78.273 360.928 79.1232 361.886 81.0259 362.331L82.7532 362.736C83.799 362.979 84.2915 363.478 84.2915 364.193C84.2915 365.084 83.3469 365.812 81.8625 365.812C80.5603 365.812 79.7439 365.252 79.4605 364.139L77.9492 364.517C78.3203 366.278 79.7709 367.216 81.8895 367.216C84.2983 367.216 85.9378 365.9 85.9378 364.112C85.9378 362.668 85.0337 361.757 83.185 361.305L81.6466 360.928C80.4186 360.624 79.8654 360.212 79.8654 359.416C79.8654 358.526 80.81 357.878 82.0784 357.878C83.4684 357.878 84.0419 358.647 84.3185 359.362L85.7489 358.957ZM95.2677 358.957C94.7684 357.487 93.6483 356.501 91.5972 356.501C89.4111 356.501 87.7918 357.743 87.7918 359.497C87.7918 360.928 88.6419 361.886 90.5446 362.331L92.2719 362.736C93.3177 362.979 93.8103 363.478 93.8103 364.193C93.8103 365.084 92.8657 365.812 91.3813 365.812C90.0791 365.812 89.2627 365.252 88.9793 364.139L87.4679 364.517C87.839 366.278 89.2897 367.216 91.4083 367.216C93.817 367.216 95.4566 365.9 95.4566 364.112C95.4566 362.668 94.5525 361.757 92.7037 361.305L91.1654 360.928C89.9374 360.624 89.3841 360.212 89.3841 359.416C89.3841 358.526 90.3287 357.878 91.5972 357.878C92.9871 357.878 93.5606 358.647 93.8373 359.362L95.2677 358.957ZM99.7935 367H101.359L103.626 359.038H103.788L106.055 367H107.62L110.778 356.636H109.105L106.865 364.544H106.757L104.571 356.636H102.87L100.657 364.571H100.549L98.3091 356.636H96.6358L99.7935 367ZM116.333 367.216C119.14 367.216 121.029 365.084 121.029 361.872C121.029 358.634 119.14 356.501 116.333 356.501C113.526 356.501 111.637 358.634 111.637 361.872C111.637 365.084 113.526 367.216 116.333 367.216ZM116.333 365.786C114.201 365.786 113.229 363.95 113.229 361.872C113.229 359.794 114.201 357.932 116.333 357.932C118.465 357.932 119.436 359.794 119.436 361.872C119.436 363.95 118.465 365.786 116.333 365.786ZM123.051 367H124.644V360.442C124.644 359.038 125.75 358.013 127.262 358.013C127.687 358.013 128.125 358.094 128.233 358.121V356.501C128.051 356.488 127.633 356.474 127.397 356.474C126.155 356.474 125.076 357.176 124.698 358.202H124.59V356.636H123.051V367ZM133.311 367.216C135.308 367.216 135.983 365.974 136.333 365.408H136.522V367H138.061V353.182H136.468V358.283H136.333C135.983 357.743 135.362 356.501 133.338 356.501C130.72 356.501 128.911 358.58 128.911 361.845C128.911 365.138 130.72 367.216 133.311 367.216ZM133.527 365.786C131.529 365.786 130.504 364.031 130.504 361.818C130.504 359.632 131.502 357.932 133.527 357.932C135.47 357.932 136.495 359.497 136.495 361.818C136.495 364.166 135.443 365.786 133.527 365.786Z" fill="#2D3544"/>
<path d="M36 303.5H31.5V304.5H36C41.2439 304.5 45.5 300.244 45.5 295C45.5 289.756 41.2439 285.5 36 285.5C30.7561 285.5 26.5 289.756 26.5 295V296.43C26.5 298.137 27.819 299.5 29.5 299.5C30.5337 299.5 31.5023 298.994 32.0562 298.235L32.4026 297.761L32.8155 298.178C33.624 298.996 34.7569 299.5 36 299.5C38.4839 299.5 40.5 297.484 40.5 295C40.5 292.516 38.4839 290.5 36 290.5C33.5161 290.5 31.5 292.516 31.5 295V296.43C31.5 296.971 31.2601 297.482 30.9105 297.854C30.5608 298.226 30.0609 298.5 29.5 298.5C28.9391 298.5 28.4392 298.226 28.0895 297.854C27.7399 297.482 27.5 296.971 27.5 296.43V295C27.5 290.384 31.3839 286.5 36 286.5C40.6161 286.5 44.5 290.384 44.5 295C44.5 299.616 40.6161 303.5 36 303.5ZM39.5 295C39.5 296.936 37.9361 298.5 36 298.5C34.0639 298.5 32.5 296.936 32.5 295C32.5 293.064 34.0639 291.5 36 291.5C37.9361 291.5 39.5 293.064 39.5 295Z" fill="#2D3544" stroke="#2D3544"/>
<mask id="path-11-inside-1_88_4" fill="white">
<path d="M28.3636 359.667H29.7273V357C29.7273 354.4 31.8409 352.333 34.5 352.333C37.1591 352.333 39.2727 354.4 39.2727 357V359.667H40.6364V357C40.6364 353.667 37.9091 351 34.5 351C31.0909 351 28.3636 353.667 28.3636 357V359.667Z"/>
</mask>
<path d="M28.3636 359.667H29.7273V357C29.7273 354.4 31.8409 352.333 34.5 352.333C37.1591 352.333 39.2727 354.4 39.2727 357V359.667H40.6364V357C40.6364 353.667 37.9091 351 34.5 351C31.0909 351 28.3636 353.667 28.3636 357V359.667Z" fill="#2D3544"/>
<path d="M28.3636 359.667V361.667H26.3636V359.667H28.3636ZM29.7273 359.667H31.7273V361.667H29.7273V359.667ZM39.2727 359.667V361.667H37.2727V359.667H39.2727ZM40.6364 359.667H42.6364V361.667H40.6364V359.667ZM28.3636 357.667H29.7273V361.667H28.3636V357.667ZM27.7273 359.667V357H31.7273V359.667H27.7273ZM27.7273 357C27.7273 353.253 30.7789 350.333 34.5 350.333V354.333C32.9029 354.333 31.7273 355.547 31.7273 357H27.7273ZM34.5 350.333C38.221 350.333 41.2727 353.253 41.2727 357H37.2727C37.2727 355.547 36.0971 354.333 34.5 354.333V350.333ZM41.2727 357V359.667H37.2727V357H41.2727ZM39.2727 357.667H40.6364V361.667H39.2727V357.667ZM38.6364 359.667V357H42.6364V359.667H38.6364ZM38.6364 357C38.6364 354.813 36.8471 353 34.5 353V349C38.971 349 42.6364 352.52 42.6364 357H38.6364ZM34.5 353C32.1529 353 30.3636 354.813 30.3636 357H26.3636C26.3636 352.52 30.0289 349 34.5 349V353ZM30.3636 357V359.667H26.3636V357H30.3636Z" fill="#2D3544" mask="url(#path-11-inside-1_88_4)"/>
<mask id="path-13-inside-2_88_4" fill="white">
<path d="M29.0455 371H39.9545C41.1136 371 42 370.133 42 369V361C42 359.867 41.1136 359 39.9545 359H29.0455C27.8864 359 27 359.867 27 361V369C27 370.133 27.8864 371 29.0455 371ZM39.9545 360.333C40.3636 360.333 40.6364 360.6 40.6364 361V369C40.6364 369.4 40.3636 369.667 39.9545 369.667H29.0455C28.6364 369.667 28.3636 369.4 28.3636 369V361C28.3636 360.6 28.6364 360.333 29.0455 360.333H39.9545Z"/>
</mask>
<path d="M29.0455 371H39.9545C41.1136 371 42 370.133 42 369V361C42 359.867 41.1136 359 39.9545 359H29.0455C27.8864 359 27 359.867 27 361V369C27 370.133 27.8864 371 29.0455 371ZM39.9545 360.333C40.3636 360.333 40.6364 360.6 40.6364 361V369C40.6364 369.4 40.3636 369.667 39.9545 369.667H29.0455C28.6364 369.667 28.3636 369.4 28.3636 369V361C28.3636 360.6 28.6364 360.333 29.0455 360.333H39.9545Z" fill="#2D3544"/>
<path d="M29.0455 369H39.9545V373H29.0455V369ZM39.9545 369C39.9935 369 40.0125 368.993 40.017 368.991C40.0221 368.989 40.0195 368.989 40.0137 368.995C40.0078 369.001 40.0027 369.008 39.9998 369.015C39.9985 369.018 39.9984 369.02 39.9987 369.018C39.999 369.017 40 369.011 40 369H44C44 371.28 42.1756 373 39.9545 373V369ZM40 369V361H44V369H40ZM40 361C40 360.989 39.999 360.983 39.9987 360.982C39.9984 360.98 39.9985 360.982 39.9998 360.985C40.0027 360.992 40.0078 360.999 40.0137 361.005C40.0195 361.011 40.0221 361.011 40.017 361.009C40.0125 361.007 39.9935 361 39.9545 361V357C42.1756 357 44 358.72 44 361H40ZM39.9545 361H29.0455V357H39.9545V361ZM29.0455 361C29.0065 361 28.9875 361.007 28.983 361.009C28.9779 361.011 28.9805 361.011 28.9863 361.005C28.9922 360.999 28.9973 360.992 29.0002 360.985C29.0015 360.982 29.0016 360.98 29.0013 360.982C29.001 360.983 29 360.989 29 361H25C25 358.72 26.8244 357 29.0455 357V361ZM29 361V369H25V361H29ZM29 369C29 369.011 29.001 369.017 29.0013 369.018C29.0016 369.02 29.0015 369.018 29.0002 369.015C28.9973 369.008 28.9922 369.001 28.9863 368.995C28.9805 368.989 28.9779 368.989 28.983 368.991C28.9875 368.993 29.0065 369 29.0455 369V373C26.8244 373 25 371.28 25 369H29ZM39.9545 358.333C40.6003 358.333 41.2996 358.551 41.8471 359.087C42.3986 359.626 42.6364 360.332 42.6364 361H38.6364C38.6364 361.268 38.7378 361.641 39.0506 361.947C39.3595 362.249 39.7179 362.333 39.9545 362.333V358.333ZM42.6364 361V369H38.6364V361H42.6364ZM42.6364 369C42.6364 369.668 42.3986 370.374 41.8471 370.913C41.2996 371.449 40.6003 371.667 39.9545 371.667V367.667C39.7179 367.667 39.3595 367.751 39.0506 368.053C38.7378 368.359 38.6364 368.732 38.6364 369H42.6364ZM39.9545 371.667H29.0455V367.667H39.9545V371.667ZM29.0455 371.667C28.3997 371.667 27.7004 371.449 27.1529 370.913C26.6014 370.374 26.3636 369.668 26.3636 369H30.3636C30.3636 368.732 30.2622 368.359 29.9494 368.053C29.6405 367.751 29.2821 367.667 29.0455 367.667V371.667ZM26.3636 369V361H30.3636V369H26.3636ZM26.3636 361C26.3636 360.332 26.6014 359.626 27.1529 359.087C27.7004 358.551 28.3997 358.333 29.0455 358.333V362.333C29.2821 362.333 29.6405 362.249 29.9494 361.947C30.2622 361.641 30.3636 361.268 30.3636 361H26.3636ZM29.0455 358.333H39.9545V362.333H29.0455V358.333Z" fill="#2D3544" mask="url(#path-13-inside-2_88_4)"/>
<path d="M34.1364 363C34.1364 363.163 34.2779 363.333 34.5 363.333C34.7221 363.333 34.8636 363.163 34.8636 363C34.8636 362.837 34.7221 362.667 34.5 362.667C34.2779 362.667 34.1364 362.837 34.1364 363Z" fill="#2D3544" stroke="#2D3544" stroke-width="2"/>
<mask id="path-16-inside-3_88_4" fill="white">
<path d="M34.1591 363H34.8409L35.5227 367H33.4773L34.1591 363Z"/>
</mask>
<path d="M34.1591 363H34.8409L35.5227 367H33.4773L34.1591 363Z" fill="#2D3544"/>
<path d="M34.1591 363L32.1875 362.664L32.4711 361H34.1591V363ZM34.8409 363V361H36.5288L36.8125 362.664L34.8409 363ZM35.5227 367L37.4943 366.664L37.8925 369H35.5227V367ZM33.4773 367V369H31.1075L31.5057 366.664L33.4773 367ZM34.1591 361H34.8409V365H34.1591V361ZM36.8125 362.664L37.4943 366.664L33.5511 367.336L32.8693 363.336L36.8125 362.664ZM35.5227 369H33.4773V365H35.5227V369ZM31.5057 366.664L32.1875 362.664L36.1306 363.336L35.4488 367.336L31.5057 366.664Z" fill="#2D3544" mask="url(#path-16-inside-3_88_4)"/>
<path fill-rule="evenodd" clip-rule="evenodd" d="M331.333 352C333.333 352 335.067 352.533 336.533 353.6L335.467 354.533C334.267 353.733 332.933 353.333 331.333 353.333C326.933 353.333 323.333 356.933 323.333 361.333H322C322 356.133 326.133 352 331.333 352ZM340.667 353.333L338.533 355.333C339.867 356.933 340.667 359.067 340.667 361.333H339.333C339.333 359.333 338.667 357.6 337.467 356.267L334.533 358.933C335.067 359.6 335.333 360.4 335.333 361.333C335.333 363.6 333.6 365.333 331.333 365.333C330.267 365.333 329.333 364.933 328.667 364.267L324.667 368L323.733 367.067L339.733 352.4L340.667 353.333ZM333.6 359.867L329.733 363.467C330.133 363.733 330.667 364 331.333 364C332.8 364 334 362.8 334 361.333C334 360.8 333.867 360.267 333.6 359.867ZM327.333 362L328.667 360.8C328.933 359.733 329.867 358.8 331.067 358.667L332.4 357.467C332 357.333 331.733 357.333 331.333 357.333C329.067 357.333 327.333 359.067 327.333 361.333V362Z" fill="#272F3F"/>
<rect x="31" y="475" width="324" height="59" rx="12" fill="#1A5EDE"/>
<path d="M171.009 510H179.532V508.438H172.771V495.455H171.009V510ZM186.386 510.227C189.34 510.227 191.329 507.983 191.329 504.602C191.329 501.193 189.34 498.949 186.386 498.949C183.431 498.949 181.443 501.193 181.443 504.602C181.443 507.983 183.431 510.227 186.386 510.227ZM186.386 508.722C184.141 508.722 183.119 506.79 183.119 504.602C183.119 502.415 184.141 500.455 186.386 500.455C188.63 500.455 189.653 502.415 189.653 504.602C189.653 506.79 188.63 508.722 186.386 508.722ZM198.213 514.318C200.827 514.318 202.929 513.125 202.929 510.312V499.091H201.309V500.824H201.139C200.77 500.256 200.088 498.949 197.957 498.949C195.202 498.949 193.298 501.136 193.298 504.489C193.298 507.898 195.287 509.83 197.929 509.83C200.059 509.83 200.741 508.58 201.111 507.983H201.253V510.199C201.253 512.017 199.974 512.841 198.213 512.841C196.231 512.841 195.535 511.797 195.088 511.193L193.753 512.131C194.434 513.274 195.777 514.318 198.213 514.318ZM198.156 508.324C196.054 508.324 194.974 506.733 194.974 504.46C194.974 502.244 196.025 500.455 198.156 500.455C200.202 500.455 201.281 502.102 201.281 504.46C201.281 506.875 200.173 508.324 198.156 508.324ZM205.919 510H207.595V499.091H205.919V510ZM206.771 497.273C207.425 497.273 207.964 496.761 207.964 496.136C207.964 495.511 207.425 495 206.771 495C206.118 495 205.578 495.511 205.578 496.136C205.578 496.761 206.118 497.273 206.771 497.273ZM212.263 503.438C212.263 501.534 213.442 500.455 215.047 500.455C216.603 500.455 217.547 501.47 217.547 503.182V510H219.223V503.068C219.223 500.284 217.739 498.949 215.53 498.949C213.883 498.949 212.86 499.688 212.348 500.795H212.206V499.091H210.587V510H212.263V503.438Z" fill="white"/>
<line x1="26" y1="327.5" x2="351.844" y2="327.5" stroke="#C4C4C4"/>
<line x1="31.1558" y1="393.5" x2="357" y2="393.5" stroke="#C4C4C4"/>
<rect x="34" y="620" width="324" height="59" rx="13" fill="#F1F5F6"/>
<path d="M127.126 643.636H128.745C128.671 641.551 126.748 639.993 124.076 639.993C121.432 639.993 119.353 641.531 119.353 643.852C119.353 645.714 120.703 646.821 122.862 647.442L124.562 647.928C126.02 648.332 127.315 648.845 127.315 650.222C127.315 651.733 125.858 652.732 123.941 652.732C122.295 652.732 120.838 652.003 120.703 650.438H118.976C119.137 652.705 120.973 654.243 123.941 654.243C127.126 654.243 128.934 652.489 128.934 650.249C128.934 647.658 126.478 646.821 125.048 646.443L123.645 646.065C122.619 645.795 120.973 645.256 120.973 643.771C120.973 642.449 122.187 641.477 124.022 641.477C125.696 641.477 126.964 642.273 127.126 643.636ZM131.47 654H133.062V643.636H131.47V654ZM132.279 641.909C132.9 641.909 133.413 641.423 133.413 640.83C133.413 640.236 132.9 639.75 132.279 639.75C131.659 639.75 131.146 640.236 131.146 640.83C131.146 641.423 131.659 641.909 132.279 641.909ZM140.162 658.102C142.645 658.102 144.642 656.969 144.642 654.297V643.636H143.103V645.283H142.941C142.591 644.743 141.943 643.501 139.919 643.501C137.301 643.501 135.493 645.58 135.493 648.764C135.493 652.003 137.382 653.838 139.892 653.838C141.916 653.838 142.564 652.651 142.914 652.084H143.049V654.189C143.049 655.916 141.835 656.699 140.162 656.699C138.279 656.699 137.618 655.707 137.193 655.134L135.924 656.024C136.572 657.11 137.847 658.102 140.162 658.102ZM140.108 652.408C138.11 652.408 137.085 650.896 137.085 648.737C137.085 646.632 138.083 644.932 140.108 644.932C142.051 644.932 143.076 646.497 143.076 648.737C143.076 651.031 142.024 652.408 140.108 652.408ZM149.149 647.766C149.149 645.957 150.269 644.932 151.794 644.932C153.271 644.932 154.169 645.897 154.169 647.523V654H155.761V647.415C155.761 644.77 154.351 643.501 152.253 643.501C150.687 643.501 149.716 644.203 149.23 645.256H149.095V643.636H147.557V654H149.149V647.766ZM164.015 654H165.607V643.636H164.015V654ZM164.824 641.909C165.445 641.909 165.958 641.423 165.958 640.83C165.958 640.236 165.445 639.75 164.824 639.75C164.203 639.75 163.691 640.236 163.691 640.83C163.691 641.423 164.203 641.909 164.824 641.909ZM170.116 647.766C170.116 645.957 171.236 644.932 172.761 644.932C174.238 644.932 175.136 645.897 175.136 647.523V654H176.728V647.415C176.728 644.77 175.318 643.501 173.219 643.501C171.654 643.501 170.682 644.203 170.197 645.256H170.062V643.636H168.523V654H170.116V647.766ZM187.329 654H188.895L191.162 646.038H191.324L193.591 654H195.156L198.314 643.636H196.64L194.4 651.544H194.292L192.106 643.636H190.406L188.193 651.571H188.085L185.845 643.636H184.172L187.329 654ZM200.419 654H202.011V643.636H200.419V654ZM201.228 641.909C201.849 641.909 202.362 641.423 202.362 640.83C202.362 640.236 201.849 639.75 201.228 639.75C200.608 639.75 200.095 640.236 200.095 640.83C200.095 641.423 200.608 641.909 201.228 641.909ZM209.435 643.636H207.222V641.153H205.629V643.636H204.064V644.986H205.629V651.463C205.629 653.271 207.087 654.135 208.436 654.135C209.03 654.135 209.408 654.027 209.624 653.946L209.3 652.516C209.165 652.543 208.949 652.597 208.598 652.597C207.896 652.597 207.222 652.381 207.222 651.031V644.986H209.435V643.636ZM213.645 647.766C213.645 645.957 214.799 644.932 216.371 644.932C217.869 644.932 218.773 645.876 218.773 647.523V654H220.365V647.415C220.365 644.75 218.948 643.501 216.83 643.501C215.197 643.501 214.266 644.183 213.78 645.256H213.645V640.182H212.053V654H213.645V647.766ZM238.284 644.5H240.011C239.498 641.828 237.258 639.993 234.344 639.993C230.801 639.993 228.298 642.719 228.298 647.091C228.298 651.463 230.781 654.189 234.451 654.189C237.744 654.189 240.092 651.996 240.092 648.575V647.091H234.829V648.575H238.473C238.426 651.058 236.793 652.624 234.451 652.624C231.888 652.624 229.917 650.68 229.917 647.091C229.917 643.501 231.888 641.558 234.344 641.558C236.341 641.558 237.697 642.685 238.284 644.5ZM246.952 654.216C249.759 654.216 251.648 652.084 251.648 648.872C251.648 645.634 249.759 643.501 246.952 643.501C244.145 643.501 242.256 645.634 242.256 648.872C242.256 652.084 244.145 654.216 246.952 654.216ZM246.952 652.786C244.82 652.786 243.849 650.95 243.849 648.872C243.849 646.794 244.82 644.932 246.952 644.932C249.084 644.932 250.056 646.794 250.056 648.872C250.056 650.95 249.084 652.786 246.952 652.786ZM258.289 654.216C261.096 654.216 262.985 652.084 262.985 648.872C262.985 645.634 261.096 643.501 258.289 643.501C255.482 643.501 253.593 645.634 253.593 648.872C253.593 652.084 255.482 654.216 258.289 654.216ZM258.289 652.786C256.157 652.786 255.186 650.95 255.186 648.872C255.186 646.794 256.157 644.932 258.289 644.932C260.421 644.932 261.393 646.794 261.393 648.872C261.393 650.95 260.421 652.786 258.289 652.786ZM269.599 658.102C272.082 658.102 274.079 656.969 274.079 654.297V643.636H272.541V645.283H272.379C272.028 644.743 271.38 643.501 269.356 643.501C266.738 643.501 264.93 645.58 264.93 648.764C264.93 652.003 266.819 653.838 269.329 653.838C271.353 653.838 272.001 652.651 272.352 652.084H272.487V654.189C272.487 655.916 271.272 656.699 269.599 656.699C267.717 656.699 267.055 655.707 266.63 655.134L265.362 656.024C266.01 657.11 267.285 658.102 269.599 658.102ZM269.545 652.408C267.548 652.408 266.522 650.896 266.522 648.737C266.522 646.632 267.521 644.932 269.545 644.932C271.488 644.932 272.514 646.497 272.514 648.737C272.514 651.031 271.461 652.408 269.545 652.408ZM278.586 640.182H276.994V654H278.586V640.182ZM285.848 654.216C287.953 654.216 289.491 653.163 289.977 651.598L288.439 651.166C288.034 652.246 287.096 652.786 285.848 652.786C283.979 652.786 282.69 651.578 282.616 649.358H290.139V648.683C290.139 644.824 287.845 643.501 285.686 643.501C282.879 643.501 281.017 645.714 281.017 648.899C281.017 652.084 282.852 654.216 285.848 654.216ZM282.616 647.982C282.724 646.369 283.864 644.932 285.686 644.932C287.413 644.932 288.52 646.227 288.52 647.982H282.616Z" fill="#344563"/>
<g clip-path="url(#clip1_88_4)">
<path d="M77.1437 646.799C77.6895 645.089 78.743 643.601 80.1538 642.547C81.5646 641.493 83.2606 640.928 85 640.932C86.9717 640.932 88.7543 641.657 90.1543 642.843L94.2283 638.625C91.7457 636.384 88.5642 635 85 635C79.4817 635 74.731 638.26 72.4467 643.035L77.1437 646.799Z" fill="#EA4335"/>
<path d="M89.7133 656.766C88.4416 657.615 86.827 658.068 85 658.068C83.2675 658.072 81.5779 657.511 80.1702 656.465C78.7626 655.419 77.7082 653.941 77.1564 652.24L72.4431 655.946C73.5996 658.371 75.3893 660.41 77.6089 661.834C79.8286 663.258 82.3892 664.008 85 664C88.4218 664 91.6908 662.74 94.1396 660.375L89.7145 656.766H89.7133Z" fill="#34A853"/>
<path d="M94.1397 660.375C96.7005 657.9 98.363 654.217 98.363 649.5C98.363 648.642 98.2358 647.72 98.0457 646.863H85V652.466H92.5087C92.1388 654.35 91.1437 655.809 89.7145 656.766L94.1397 660.375Z" fill="#4A90E2"/>
<path d="M77.1565 652.24C76.8711 651.357 76.7261 650.432 76.7272 649.5C76.7272 648.555 76.873 647.648 77.1437 646.799L72.4467 643.035C71.4858 645.044 70.9905 647.258 71 649.5C71 651.82 71.5192 654.007 72.4432 655.946L77.1565 652.24Z" fill="#FBBC05"/>
</g>
<path d="M215.409 425H216.818V419.795H221.864V418.545H216.818V414.614H222.386V413.364H215.409V425ZM227.523 425.182C229.886 425.182 231.477 423.386 231.477 420.682C231.477 417.955 229.886 416.159 227.523 416.159C225.159 416.159 223.568 417.955 223.568 420.682C223.568 423.386 225.159 425.182 227.523 425.182ZM227.523 423.977C225.727 423.977 224.909 422.432 224.909 420.682C224.909 418.932 225.727 417.364 227.523 417.364C229.318 417.364 230.136 418.932 230.136 420.682C230.136 422.432 229.318 423.977 227.523 423.977ZM233.524 425H234.865V419.477C234.865 418.295 235.797 417.432 237.07 417.432C237.428 417.432 237.797 417.5 237.888 417.523V416.159C237.734 416.148 237.382 416.136 237.183 416.136C236.138 416.136 235.229 416.727 234.911 417.591H234.82V416.273H233.524V425ZM242.734 428.455C244.825 428.455 246.507 427.5 246.507 425.25V416.273H245.212V417.659H245.075C244.78 417.205 244.234 416.159 242.53 416.159C240.325 416.159 238.803 417.909 238.803 420.591C238.803 423.318 240.393 424.864 242.507 424.864C244.212 424.864 244.757 423.864 245.053 423.386H245.166V425.159C245.166 426.614 244.143 427.273 242.734 427.273C241.149 427.273 240.592 426.438 240.234 425.955L239.166 426.705C239.712 427.619 240.786 428.455 242.734 428.455ZM242.689 423.659C241.007 423.659 240.143 422.386 240.143 420.568C240.143 418.795 240.984 417.364 242.689 417.364C244.325 417.364 245.189 418.682 245.189 420.568C245.189 422.5 244.303 423.659 242.689 423.659ZM252.621 425.182C254.393 425.182 255.689 424.295 256.098 422.977L254.803 422.614C254.462 423.523 253.672 423.977 252.621 423.977C251.047 423.977 249.962 422.96 249.899 421.091H256.234V420.523C256.234 417.273 254.303 416.159 252.484 416.159C250.121 416.159 248.553 418.023 248.553 420.705C248.553 423.386 250.098 425.182 252.621 425.182ZM249.899 419.932C249.99 418.574 250.95 417.364 252.484 417.364C253.939 417.364 254.871 418.455 254.871 419.932H249.899ZM262.07 416.273H260.206V414.182H258.865V416.273H257.547V417.409H258.865V422.864C258.865 424.386 260.092 425.114 261.229 425.114C261.729 425.114 262.047 425.023 262.229 424.955L261.956 423.75C261.842 423.773 261.661 423.818 261.365 423.818C260.774 423.818 260.206 423.636 260.206 422.5V417.409H262.07V416.273ZM268.587 428.273H269.928V423.659H270.041C270.337 424.136 270.905 425.182 272.587 425.182C274.768 425.182 276.291 423.432 276.291 420.659C276.291 417.909 274.768 416.159 272.564 416.159C270.859 416.159 270.337 417.205 270.041 417.659H269.882V416.273H268.587V428.273ZM269.905 420.636C269.905 418.682 270.768 417.364 272.405 417.364C274.109 417.364 274.95 418.795 274.95 420.636C274.95 422.5 274.087 423.977 272.405 423.977C270.791 423.977 269.905 422.614 269.905 420.636ZM280.905 425.205C282.428 425.205 283.223 424.386 283.496 423.818H283.564V425H284.905V419.25C284.905 416.477 282.791 416.159 281.678 416.159C280.359 416.159 278.859 416.614 278.178 418.205L279.45 418.659C279.746 418.023 280.445 417.341 281.723 417.341C282.956 417.341 283.564 417.994 283.564 419.114V419.159C283.564 419.807 282.905 419.75 281.314 419.955C279.695 420.165 277.928 420.523 277.928 422.523C277.928 424.227 279.246 425.205 280.905 425.205ZM281.109 424C280.041 424 279.268 423.523 279.268 422.591C279.268 421.568 280.2 421.25 281.246 421.114C281.814 421.045 283.337 420.886 283.564 420.614V421.841C283.564 422.932 282.7 424 281.109 424ZM293.534 418.227C293.114 416.989 292.17 416.159 290.443 416.159C288.602 416.159 287.239 417.205 287.239 418.682C287.239 419.886 287.955 420.693 289.557 421.068L291.011 421.409C291.892 421.614 292.307 422.034 292.307 422.636C292.307 423.386 291.511 424 290.261 424C289.165 424 288.477 423.528 288.239 422.591L286.966 422.909C287.278 424.392 288.5 425.182 290.284 425.182C292.312 425.182 293.693 424.074 293.693 422.568C293.693 421.352 292.932 420.585 291.375 420.205L290.08 419.886C289.045 419.631 288.58 419.284 288.58 418.614C288.58 417.864 289.375 417.318 290.443 417.318C291.614 417.318 292.097 417.966 292.33 418.568L293.534 418.227ZM301.893 418.227C301.473 416.989 300.53 416.159 298.803 416.159C296.962 416.159 295.598 417.205 295.598 418.682C295.598 419.886 296.314 420.693 297.916 421.068L299.371 421.409C300.251 421.614 300.666 422.034 300.666 422.636C300.666 423.386 299.871 424 298.621 424C297.524 424 296.837 423.528 296.598 422.591L295.325 422.909C295.638 424.392 296.859 425.182 298.643 425.182C300.672 425.182 302.053 424.074 302.053 422.568C302.053 421.352 301.291 420.585 299.734 420.205L298.439 419.886C297.405 419.631 296.939 419.284 296.939 418.614C296.939 417.864 297.734 417.318 298.803 417.318C299.973 417.318 300.456 417.966 300.689 418.568L301.893 418.227ZM306.048 425H307.366L309.276 418.295H309.412L311.321 425H312.639L315.298 416.273H313.889L312.003 422.932H311.912L310.071 416.273H308.639L306.776 422.955H306.685L304.798 416.273H303.389L306.048 425ZM320.32 425.182C322.683 425.182 324.274 423.386 324.274 420.682C324.274 417.955 322.683 416.159 320.32 416.159C317.956 416.159 316.365 417.955 316.365 420.682C316.365 423.386 317.956 425.182 320.32 425.182ZM320.32 423.977C318.524 423.977 317.706 422.432 317.706 420.682C317.706 418.932 318.524 417.364 320.32 417.364C322.115 417.364 322.933 418.932 322.933 420.682C322.933 422.432 322.115 423.977 320.32 423.977ZM326.321 425H327.662V419.477C327.662 418.295 328.594 417.432 329.866 417.432C330.224 417.432 330.594 417.5 330.685 417.523V416.159C330.531 416.148 330.179 416.136 329.98 416.136C328.935 416.136 328.026 416.727 327.707 417.591H327.616V416.273H326.321V425ZM335.304 425.182C336.986 425.182 337.554 424.136 337.849 423.659H338.009V425H339.304V413.364H337.963V417.659H337.849C337.554 417.205 337.031 416.159 335.327 416.159C333.122 416.159 331.599 417.909 331.599 420.659C331.599 423.432 333.122 425.182 335.304 425.182ZM335.486 423.977C333.804 423.977 332.94 422.5 332.94 420.636C332.94 418.795 333.781 417.364 335.486 417.364C337.122 417.364 337.986 418.682 337.986 420.636C337.986 422.614 337.099 423.977 335.486 423.977ZM348.196 421.727H349.56V421.659C349.582 420.25 349.946 419.636 350.946 419.011C351.946 418.403 352.537 417.528 352.537 416.273C352.537 414.5 351.241 413.205 349.241 413.205C347.401 413.205 345.94 414.341 345.855 416.273H347.287C347.372 414.932 348.31 414.386 349.241 414.386C350.31 414.386 351.173 415.091 351.173 416.205C351.173 417.108 350.656 417.756 349.991 418.159C348.878 418.835 348.213 419.494 348.196 421.659V421.727ZM348.923 425.091C349.486 425.091 349.946 424.631 349.946 424.068C349.946 423.506 349.486 423.045 348.923 423.045C348.361 423.045 347.901 423.506 347.901 424.068C347.901 424.631 348.361 425.091 348.923 425.091Z" fill="#0C44AF"/>
<path d="M36 580H181.5M216 580H357" stroke="#898484"/>
<path d="M192.703 586.112C191.789 586.112 190.991 585.907 190.309 585.496C189.637 585.085 189.119 584.502 188.755 583.746C188.391 582.99 188.209 582.099 188.209 581.072C188.209 580.036 188.387 579.14 188.741 578.384C189.105 577.619 189.623 577.035 190.295 576.634C190.977 576.223 191.779 576.018 192.703 576.018C193.627 576.018 194.425 576.223 195.097 576.634C195.779 577.035 196.297 577.619 196.651 578.384C197.015 579.14 197.197 580.031 197.197 581.058C197.197 582.085 197.015 582.981 196.651 583.746C196.287 584.502 195.765 585.085 195.083 585.496C194.411 585.907 193.618 586.112 192.703 586.112ZM192.703 585.132C193.749 585.132 194.561 584.782 195.139 584.082C195.727 583.373 196.021 582.365 196.021 581.058C196.021 579.751 195.732 578.748 195.153 578.048C194.575 577.348 193.758 576.998 192.703 576.998C191.658 576.998 190.841 577.353 190.253 578.062C189.675 578.762 189.385 579.761 189.385 581.058C189.385 582.355 189.675 583.359 190.253 584.068C190.841 584.777 191.658 585.132 192.703 585.132ZM206.797 585.286C206.862 585.389 206.895 585.496 206.895 585.608C206.895 585.748 206.839 585.865 206.727 585.958C206.624 586.042 206.503 586.084 206.363 586.084C206.148 586.084 205.98 585.991 205.859 585.804L203.983 582.836C203.74 582.453 203.488 582.192 203.227 582.052C202.966 581.903 202.611 581.828 202.163 581.828H200.399V585.482C200.399 585.659 200.348 585.804 200.245 585.916C200.142 586.019 200.007 586.07 199.839 586.07C199.662 586.07 199.522 586.019 199.419 585.916C199.316 585.804 199.265 585.659 199.265 585.482V576.69C199.265 576.522 199.316 576.387 199.419 576.284C199.531 576.181 199.676 576.13 199.853 576.13H203.325C204.398 576.13 205.215 576.368 205.775 576.844C206.344 577.32 206.629 578.02 206.629 578.944C206.629 579.728 206.4 580.358 205.943 580.834C205.495 581.31 204.851 581.599 204.011 581.702C204.244 581.777 204.454 581.898 204.641 582.066C204.828 582.234 205.014 582.467 205.201 582.766L206.797 585.286ZM203.227 580.876C203.992 580.876 204.562 580.717 204.935 580.4C205.318 580.083 205.509 579.602 205.509 578.958C205.509 578.323 205.322 577.852 204.949 577.544C204.576 577.236 204.002 577.082 203.227 577.082H200.399V580.876H203.227Z" fill="#6A6767"/>
<path d="M99.6004 743C99.3597 743 99.1634 742.93 99.0114 742.791C98.8721 742.652 98.8024 742.468 98.8024 742.24V730.365C98.8024 730.137 98.8721 729.953 99.0114 729.814C99.1634 729.675 99.3597 729.605 99.6004 729.605H103.305C105.446 729.605 107.099 730.188 108.264 731.353C109.442 732.506 110.031 734.152 110.031 736.293C110.031 738.434 109.442 740.087 108.264 741.252C107.086 742.417 105.433 743 103.305 743H99.6004ZM103.21 741.67C106.681 741.67 108.416 739.878 108.416 736.293C108.416 732.721 106.681 730.935 103.21 730.935H100.36V741.67H103.21ZM116.458 743.133C115.584 743.133 114.812 742.937 114.14 742.544C113.482 742.151 112.969 741.594 112.601 740.872C112.247 740.137 112.069 739.289 112.069 738.326C112.069 737.363 112.247 736.521 112.601 735.799C112.969 735.064 113.482 734.501 114.14 734.108C114.812 733.715 115.584 733.519 116.458 733.519C117.332 733.519 118.105 733.715 118.776 734.108C119.448 734.501 119.961 735.064 120.315 735.799C120.683 736.521 120.866 737.363 120.866 738.326C120.866 739.289 120.683 740.137 120.315 740.872C119.961 741.594 119.448 742.151 118.776 742.544C118.105 742.937 117.332 743.133 116.458 743.133ZM116.458 741.86C117.37 741.86 118.067 741.562 118.548 740.967C119.042 740.359 119.289 739.479 119.289 738.326C119.289 737.199 119.042 736.331 118.548 735.723C118.054 735.102 117.358 734.792 116.458 734.792C115.559 734.792 114.862 735.102 114.368 735.723C113.874 736.331 113.627 737.199 113.627 738.326C113.627 739.466 113.868 740.34 114.349 740.948C114.843 741.556 115.546 741.86 116.458 741.86ZM127.814 733.519C130.031 733.519 131.139 734.741 131.139 737.186V742.335C131.139 742.576 131.07 742.766 130.93 742.905C130.804 743.032 130.62 743.095 130.379 743.095C130.139 743.095 129.949 743.032 129.809 742.905C129.67 742.766 129.6 742.576 129.6 742.335V737.281C129.6 736.42 129.429 735.793 129.087 735.4C128.758 735.007 128.226 734.811 127.491 734.811C126.643 734.811 125.965 735.071 125.458 735.59C124.952 736.109 124.698 736.812 124.698 737.699V742.335C124.698 742.576 124.629 742.766 124.489 742.905C124.363 743.032 124.179 743.095 123.938 743.095C123.698 743.095 123.508 743.032 123.368 742.905C123.229 742.766 123.159 742.576 123.159 742.335V734.317C123.159 734.089 123.229 733.905 123.368 733.766C123.508 733.627 123.698 733.557 123.938 733.557C124.166 733.557 124.344 733.627 124.47 733.766C124.61 733.905 124.679 734.083 124.679 734.298V735.267C124.983 734.697 125.408 734.266 125.952 733.975C126.497 733.671 127.118 733.519 127.814 733.519ZM134.328 729.51C134.644 729.51 134.898 729.637 135.088 729.89C135.29 730.131 135.392 730.498 135.392 730.992C135.392 731.993 135.069 732.835 134.423 733.519C134.296 733.646 134.157 733.709 134.005 733.709C133.865 733.709 133.745 733.665 133.644 733.576C133.542 733.475 133.492 733.361 133.492 733.234C133.492 733.095 133.542 732.974 133.644 732.873C133.973 732.544 134.182 732.126 134.271 731.619C133.992 731.594 133.758 731.486 133.568 731.296C133.39 731.106 133.302 730.865 133.302 730.574C133.302 730.257 133.397 730.004 133.587 729.814C133.789 729.611 134.036 729.51 134.328 729.51ZM142.278 741.879C142.721 741.917 142.943 742.12 142.943 742.487C142.943 742.702 142.861 742.867 142.696 742.981C142.544 743.082 142.31 743.12 141.993 743.095L141.48 743.057C140.467 742.981 139.719 742.677 139.238 742.145C138.757 741.613 138.516 740.809 138.516 739.732V734.963H137.243C137.028 734.963 136.857 734.912 136.73 734.811C136.616 734.697 136.559 734.551 136.559 734.374C136.559 734.184 136.616 734.032 136.73 733.918C136.857 733.804 137.028 733.747 137.243 733.747H138.516V731.6C138.516 731.359 138.586 731.176 138.725 731.049C138.864 730.91 139.054 730.84 139.295 730.84C139.523 730.84 139.707 730.91 139.846 731.049C139.985 731.176 140.055 731.359 140.055 731.6V733.747H142.164C142.367 733.747 142.525 733.804 142.639 733.918C142.766 734.032 142.829 734.184 142.829 734.374C142.829 734.551 142.766 734.697 142.639 734.811C142.525 734.912 142.367 734.963 142.164 734.963H140.055V739.808C140.055 740.505 140.194 741.011 140.473 741.328C140.764 741.632 141.195 741.803 141.765 741.841L142.278 741.879ZM154.033 733.519C155.122 733.519 155.945 733.829 156.503 734.45C157.06 735.058 157.339 735.97 157.339 737.186V742.335C157.339 742.576 157.269 742.766 157.13 742.905C156.99 743.032 156.807 743.095 156.579 743.095C156.338 743.095 156.148 743.032 156.009 742.905C155.869 742.766 155.8 742.576 155.8 742.335V737.224C155.8 736.401 155.629 735.793 155.287 735.4C154.957 735.007 154.425 734.811 153.691 734.811C152.842 734.811 152.164 735.071 151.658 735.59C151.151 736.109 150.898 736.812 150.898 737.699V742.335C150.898 742.576 150.828 742.766 150.689 742.905C150.562 743.032 150.378 743.095 150.138 743.095C149.897 743.095 149.707 743.032 149.568 742.905C149.428 742.766 149.359 742.576 149.359 742.335V730.251C149.359 730.036 149.428 729.858 149.568 729.719C149.72 729.58 149.91 729.51 150.138 729.51C150.378 729.51 150.562 729.58 150.689 729.719C150.828 729.846 150.898 730.023 150.898 730.251V735.229C151.202 734.672 151.626 734.247 152.171 733.956C152.715 733.665 153.336 733.519 154.033 733.519ZM163.938 733.519C166.256 733.519 167.415 734.735 167.415 737.167V742.335C167.415 742.563 167.346 742.747 167.206 742.886C167.08 743.025 166.902 743.095 166.674 743.095C166.446 743.095 166.263 743.025 166.123 742.886C165.984 742.747 165.914 742.563 165.914 742.335V741.423C165.674 741.968 165.306 742.392 164.812 742.696C164.318 742.987 163.748 743.133 163.102 743.133C162.507 743.133 161.956 743.013 161.449 742.772C160.955 742.531 160.563 742.196 160.271 741.765C159.98 741.334 159.834 740.859 159.834 740.34C159.834 739.643 160.012 739.105 160.366 738.725C160.721 738.332 161.304 738.054 162.114 737.889C162.925 737.712 164.052 737.623 165.496 737.623H165.914V736.996C165.914 736.236 165.756 735.679 165.439 735.324C165.135 734.969 164.635 734.792 163.938 734.792C163.077 734.792 162.203 735.026 161.316 735.495C160.974 735.71 160.734 735.818 160.594 735.818C160.442 735.818 160.316 735.761 160.214 735.647C160.113 735.533 160.062 735.387 160.062 735.21C160.062 735.033 160.113 734.881 160.214 734.754C160.328 734.615 160.506 734.475 160.746 734.336C161.19 734.083 161.69 733.886 162.247 733.747C162.817 733.595 163.381 733.519 163.938 733.519ZM163.311 741.917C164.071 741.917 164.692 741.664 165.173 741.157C165.667 740.638 165.914 739.973 165.914 739.162V738.611H165.572C164.458 738.611 163.609 738.662 163.026 738.763C162.444 738.852 162.026 739.01 161.772 739.238C161.532 739.453 161.411 739.776 161.411 740.207C161.411 740.701 161.589 741.113 161.943 741.442C162.311 741.759 162.767 741.917 163.311 741.917ZM176.902 734.032C177.041 733.728 177.263 733.576 177.567 733.576C177.757 733.576 177.928 733.639 178.08 733.766C178.232 733.893 178.308 734.051 178.308 734.241C178.308 734.355 178.282 734.456 178.232 734.545L174.527 742.525C174.451 742.69 174.337 742.823 174.185 742.924C174.033 743.013 173.868 743.057 173.691 743.057C173.526 743.057 173.368 743.013 173.216 742.924C173.064 742.823 172.943 742.69 172.855 742.525L169.169 734.545C169.118 734.456 169.093 734.361 169.093 734.26C169.093 734.07 169.175 733.905 169.34 733.766C169.517 733.627 169.707 733.557 169.91 733.557C170.036 733.557 170.157 733.595 170.271 733.671C170.397 733.747 170.492 733.855 170.556 733.994L173.729 741.119L176.902 734.032ZM187.044 740.853C187.183 740.853 187.304 740.91 187.405 741.024C187.506 741.138 187.557 741.284 187.557 741.461C187.557 741.778 187.335 742.069 186.892 742.335C186.436 742.601 185.955 742.804 185.448 742.943C184.941 743.07 184.447 743.133 183.966 743.133C182.535 743.133 181.401 742.709 180.565 741.86C179.742 741.011 179.33 739.84 179.33 738.345C179.33 737.395 179.514 736.559 179.881 735.837C180.248 735.102 180.761 734.532 181.42 734.127C182.091 733.722 182.851 733.519 183.7 733.519C184.903 733.519 185.86 733.912 186.569 734.697C187.278 735.482 187.633 736.546 187.633 737.889C187.633 738.142 187.582 738.326 187.481 738.44C187.38 738.554 187.215 738.611 186.987 738.611H180.869C180.983 740.79 182.015 741.879 183.966 741.879C184.46 741.879 184.884 741.816 185.239 741.689C185.594 741.55 185.974 741.366 186.379 741.138C186.708 740.948 186.93 740.853 187.044 740.853ZM183.719 734.716C182.908 734.716 182.256 734.969 181.762 735.476C181.281 735.983 180.996 736.698 180.907 737.623H186.284C186.259 736.686 186.024 735.97 185.581 735.476C185.138 734.969 184.517 734.716 183.719 734.716ZM198.58 733.519C200.898 733.519 202.057 734.735 202.057 737.167V742.335C202.057 742.563 201.987 742.747 201.848 742.886C201.721 743.025 201.544 743.095 201.316 743.095C201.088 743.095 200.904 743.025 200.765 742.886C200.626 742.747 200.556 742.563 200.556 742.335V741.423C200.315 741.968 199.948 742.392 199.454 742.696C198.96 742.987 198.39 743.133 197.744 743.133C197.149 743.133 196.598 743.013 196.091 742.772C195.597 742.531 195.204 742.196 194.913 741.765C194.622 741.334 194.476 740.859 194.476 740.34C194.476 739.643 194.653 739.105 195.008 738.725C195.363 738.332 195.945 738.054 196.756 737.889C197.567 737.712 198.694 737.623 200.138 737.623H200.556V736.996C200.556 736.236 200.398 735.679 200.081 735.324C199.777 734.969 199.277 734.792 198.58 734.792C197.719 734.792 196.845 735.026 195.958 735.495C195.616 735.71 195.375 735.818 195.236 735.818C195.084 735.818 194.957 735.761 194.856 735.647C194.755 735.533 194.704 735.387 194.704 735.21C194.704 735.033 194.755 734.881 194.856 734.754C194.97 734.615 195.147 734.475 195.388 734.336C195.831 734.083 196.332 733.886 196.889 733.747C197.459 733.595 198.023 733.519 198.58 733.519ZM197.953 741.917C198.713 741.917 199.334 741.664 199.815 741.157C200.309 740.638 200.556 739.973 200.556 739.162V738.611H200.214C199.099 738.611 198.251 738.662 197.668 738.763C197.085 738.852 196.667 739.01 196.414 739.238C196.173 739.453 196.053 739.776 196.053 740.207C196.053 740.701 196.23 741.113 196.585 741.442C196.952 741.759 197.408 741.917 197.953 741.917ZM209.529 733.519C211.746 733.519 212.854 734.741 212.854 737.186V742.335C212.854 742.576 212.785 742.766 212.645 742.905C212.519 743.032 212.335 743.095 212.094 743.095C211.854 743.095 211.664 743.032 211.524 742.905C211.385 742.766 211.315 742.576 211.315 742.335V737.281C211.315 736.42 211.144 735.793 210.802 735.4C210.473 735.007 209.941 734.811 209.206 734.811C208.358 734.811 207.68 735.071 207.173 735.59C206.667 736.109 206.413 736.812 206.413 737.699V742.335C206.413 742.576 206.344 742.766 206.204 742.905C206.078 743.032 205.894 743.095 205.653 743.095C205.413 743.095 205.223 743.032 205.083 742.905C204.944 742.766 204.874 742.576 204.874 742.335V734.317C204.874 734.089 204.944 733.905 205.083 733.766C205.223 733.627 205.413 733.557 205.653 733.557C205.881 733.557 206.059 733.627 206.185 733.766C206.325 733.905 206.394 734.083 206.394 734.298V735.267C206.698 734.697 207.123 734.266 207.667 733.975C208.212 733.671 208.833 733.519 209.529 733.519ZM224.352 733.519C226.67 733.519 227.829 734.735 227.829 737.167V742.335C227.829 742.563 227.76 742.747 227.62 742.886C227.494 743.025 227.316 743.095 227.088 743.095C226.86 743.095 226.677 743.025 226.537 742.886C226.398 742.747 226.328 742.563 226.328 742.335V741.423C226.088 741.968 225.72 742.392 225.226 742.696C224.732 742.987 224.162 743.133 223.516 743.133C222.921 743.133 222.37 743.013 221.863 742.772C221.369 742.531 220.977 742.196 220.685 741.765C220.394 741.334 220.248 740.859 220.248 740.34C220.248 739.643 220.426 739.105 220.78 738.725C221.135 738.332 221.718 738.054 222.528 737.889C223.339 737.712 224.466 737.623 225.91 737.623H226.328V736.996C226.328 736.236 226.17 735.679 225.853 735.324C225.549 734.969 225.049 734.792 224.352 734.792C223.491 734.792 222.617 735.026 221.73 735.495C221.388 735.71 221.148 735.818 221.008 735.818C220.856 735.818 220.73 735.761 220.628 735.647C220.527 735.533 220.476 735.387 220.476 735.21C220.476 735.033 220.527 734.881 220.628 734.754C220.742 734.615 220.92 734.475 221.16 734.336C221.604 734.083 222.104 733.886 222.661 733.747C223.231 733.595 223.795 733.519 224.352 733.519ZM223.725 741.917C224.485 741.917 225.106 741.664 225.587 741.157C226.081 740.638 226.328 739.973 226.328 739.162V738.611H225.986C224.872 738.611 224.023 738.662 223.44 738.763C222.858 738.852 222.44 739.01 222.186 739.238C221.946 739.453 221.825 739.776 221.825 740.207C221.825 740.701 222.003 741.113 222.357 741.442C222.725 741.759 223.181 741.917 223.725 741.917ZM234.466 743.133C233.604 743.133 232.838 742.937 232.167 742.544C231.508 742.151 230.995 741.594 230.628 740.872C230.273 740.15 230.096 739.314 230.096 738.364C230.096 737.414 230.279 736.572 230.647 735.837C231.027 735.102 231.552 734.532 232.224 734.127C232.895 733.722 233.668 733.519 234.542 733.519C235.023 733.519 235.498 733.589 235.967 733.728C236.448 733.855 236.866 734.045 237.221 734.298C237.449 734.45 237.607 734.602 237.696 734.754C237.797 734.893 237.848 735.052 237.848 735.229C237.848 735.406 237.797 735.552 237.696 735.666C237.607 735.78 237.487 735.837 237.335 735.837C237.246 735.837 237.151 735.812 237.05 735.761C236.948 735.71 236.86 735.66 236.784 735.609C236.72 735.558 236.676 735.527 236.651 735.514C236.321 735.299 236.005 735.128 235.701 735.001C235.409 734.874 235.048 734.811 234.618 734.811C233.693 734.811 232.971 735.128 232.452 735.761C231.945 736.382 231.692 737.249 231.692 738.364C231.692 739.479 231.945 740.34 232.452 740.948C232.971 741.556 233.693 741.86 234.618 741.86C235.048 741.86 235.416 741.797 235.72 741.67C236.036 741.543 236.353 741.372 236.67 741.157C236.809 741.068 236.942 740.992 237.069 740.929C237.195 740.866 237.303 740.834 237.392 740.834C237.531 740.834 237.645 740.891 237.734 741.005C237.835 741.119 237.886 741.265 237.886 741.442C237.886 741.607 237.841 741.759 237.753 741.898C237.664 742.025 237.499 742.17 237.259 742.335C236.904 742.576 236.473 742.772 235.967 742.924C235.473 743.063 234.972 743.133 234.466 743.133ZM243.557 743.133C242.696 743.133 241.93 742.937 241.258 742.544C240.6 742.151 240.087 741.594 239.719 740.872C239.365 740.15 239.187 739.314 239.187 738.364C239.187 737.414 239.371 736.572 239.738 735.837C240.118 735.102 240.644 734.532 241.315 734.127C241.987 733.722 242.759 733.519 243.633 733.519C244.115 733.519 244.59 733.589 245.058 733.728C245.54 733.855 245.958 734.045 246.312 734.298C246.54 734.45 246.699 734.602 246.787 734.754C246.889 734.893 246.939 735.052 246.939 735.229C246.939 735.406 246.889 735.552 246.787 735.666C246.699 735.78 246.578 735.837 246.426 735.837C246.338 735.837 246.243 735.812 246.141 735.761C246.04 735.71 245.951 735.66 245.875 735.609C245.812 735.558 245.768 735.527 245.742 735.514C245.413 735.299 245.096 735.128 244.792 735.001C244.501 734.874 244.14 734.811 243.709 734.811C242.785 734.811 242.063 735.128 241.543 735.761C241.037 736.382 240.783 737.249 240.783 738.364C240.783 739.479 241.037 740.34 241.543 740.948C242.063 741.556 242.785 741.86 243.709 741.86C244.14 741.86 244.507 741.797 244.811 741.67C245.128 741.543 245.445 741.372 245.761 741.157C245.901 741.068 246.034 740.992 246.16 740.929C246.287 740.866 246.395 740.834 246.483 740.834C246.623 740.834 246.737 740.891 246.825 741.005C246.927 741.119 246.977 741.265 246.977 741.442C246.977 741.607 246.933 741.759 246.844 741.898C246.756 742.025 246.591 742.17 246.35 742.335C245.996 742.576 245.565 742.772 245.058 742.924C244.564 743.063 244.064 743.133 243.557 743.133ZM252.668 743.133C251.794 743.133 251.022 742.937 250.35 742.544C249.692 742.151 249.179 741.594 248.811 740.872C248.457 740.137 248.279 739.289 248.279 738.326C248.279 737.363 248.457 736.521 248.811 735.799C249.179 735.064 249.692 734.501 250.35 734.108C251.022 733.715 251.794 733.519 252.668 733.519C253.542 733.519 254.315 733.715 254.986 734.108C255.658 734.501 256.171 735.064 256.525 735.799C256.893 736.521 257.076 737.363 257.076 738.326C257.076 739.289 256.893 740.137 256.525 740.872C256.171 741.594 255.658 742.151 254.986 742.544C254.315 742.937 253.542 743.133 252.668 743.133ZM252.668 741.86C253.58 741.86 254.277 741.562 254.758 740.967C255.252 740.359 255.499 739.479 255.499 738.326C255.499 737.199 255.252 736.331 254.758 735.723C254.264 735.102 253.568 734.792 252.668 734.792C251.769 734.792 251.072 735.102 250.578 735.723C250.084 736.331 249.837 737.199 249.837 738.326C249.837 739.466 250.078 740.34 250.559 740.948C251.053 741.556 251.756 741.86 252.668 741.86ZM266.399 733.557C266.64 733.557 266.824 733.627 266.95 733.766C267.09 733.905 267.159 734.089 267.159 734.317V742.354C267.159 742.569 267.09 742.747 266.95 742.886C266.824 743.025 266.64 743.095 266.399 743.095C266.171 743.095 265.988 743.032 265.848 742.905C265.722 742.766 265.658 742.588 265.658 742.373V741.423C265.367 741.98 264.955 742.405 264.423 742.696C263.904 742.987 263.315 743.133 262.656 743.133C261.554 743.133 260.725 742.829 260.167 742.221C259.61 741.6 259.331 740.688 259.331 739.485V734.317C259.331 734.089 259.401 733.905 259.54 733.766C259.68 733.627 259.87 733.557 260.11 733.557C260.351 733.557 260.535 733.627 260.661 733.766C260.801 733.905 260.87 734.089 260.87 734.317V739.447C260.87 740.27 261.035 740.878 261.364 741.271C261.694 741.651 262.213 741.841 262.922 741.841C263.733 741.841 264.385 741.581 264.879 741.062C265.373 740.53 265.62 739.833 265.62 738.972V734.317C265.62 734.089 265.69 733.905 265.829 733.766C265.969 733.627 266.159 733.557 266.399 733.557ZM274.675 733.519C276.891 733.519 278 734.741 278 737.186V742.335C278 742.576 277.93 742.766 277.791 742.905C277.664 743.032 277.48 743.095 277.24 743.095C276.999 743.095 276.809 743.032 276.67 742.905C276.53 742.766 276.461 742.576 276.461 742.335V737.281C276.461 736.42 276.29 735.793 275.948 735.4C275.618 735.007 275.086 734.811 274.352 734.811C273.503 734.811 272.825 735.071 272.319 735.59C271.812 736.109 271.559 736.812 271.559 737.699V742.335C271.559 742.576 271.489 742.766 271.35 742.905C271.223 743.032 271.039 743.095 270.799 743.095C270.558 743.095 270.368 743.032 270.229 742.905C270.089 742.766 270.02 742.576 270.02 742.335V734.317C270.02 734.089 270.089 733.905 270.229 733.766C270.368 733.627 270.558 733.557 270.799 733.557C271.027 733.557 271.204 733.627 271.331 733.766C271.47 733.905 271.54 734.083 271.54 734.298V735.267C271.844 734.697 272.268 734.266 272.813 733.975C273.357 733.671 273.978 733.519 274.675 733.519ZM285.094 741.879C285.537 741.917 285.759 742.12 285.759 742.487C285.759 742.702 285.676 742.867 285.512 742.981C285.36 743.082 285.125 743.12 284.809 743.095L284.296 743.057C283.282 742.981 282.535 742.677 282.054 742.145C281.572 741.613 281.332 740.809 281.332 739.732V734.963H280.059C279.843 734.963 279.672 734.912 279.546 734.811C279.432 734.697 279.375 734.551 279.375 734.374C279.375 734.184 279.432 734.032 279.546 733.918C279.672 733.804 279.843 733.747 280.059 733.747H281.332V731.6C281.332 731.359 281.401 731.176 281.541 731.049C281.68 730.91 281.87 730.84 282.111 730.84C282.339 730.84 282.522 730.91 282.662 731.049C282.801 731.176 282.871 731.359 282.871 731.6V733.747H284.98C285.182 733.747 285.341 733.804 285.455 733.918C285.581 734.032 285.645 734.184 285.645 734.374C285.645 734.551 285.581 734.697 285.455 734.811C285.341 734.912 285.182 734.963 284.98 734.963H282.871V739.808C282.871 740.505 283.01 741.011 283.289 741.328C283.58 741.632 284.011 741.803 284.581 741.841L285.094 741.879Z" fill="black"/>
<path d="M167.973 768.031C168.061 768.17 168.106 768.316 168.106 768.468C168.106 768.658 168.03 768.816 167.878 768.943C167.738 769.057 167.574 769.114 167.384 769.114C167.092 769.114 166.864 768.987 166.7 768.734L164.154 764.706C163.824 764.187 163.482 763.832 163.128 763.642C162.773 763.439 162.292 763.338 161.684 763.338H159.29V768.297C159.29 768.538 159.22 768.734 159.081 768.886C158.941 769.025 158.758 769.095 158.53 769.095C158.289 769.095 158.099 769.025 157.96 768.886C157.82 768.734 157.751 768.538 157.751 768.297V756.365C157.751 756.137 157.82 755.953 157.96 755.814C158.112 755.675 158.308 755.605 158.549 755.605H163.261C164.717 755.605 165.826 755.928 166.586 756.574C167.358 757.22 167.745 758.17 167.745 759.424C167.745 760.488 167.434 761.343 166.814 761.989C166.206 762.635 165.332 763.028 164.192 763.167C164.508 763.268 164.793 763.433 165.047 763.661C165.3 763.889 165.553 764.206 165.807 764.611L167.973 768.031ZM163.128 762.046C164.166 762.046 164.939 761.831 165.446 761.4C165.965 760.969 166.225 760.317 166.225 759.443C166.225 758.582 165.971 757.942 165.465 757.524C164.958 757.106 164.179 756.897 163.128 756.897H159.29V762.046H163.128ZM177.711 766.853C177.85 766.853 177.971 766.91 178.072 767.024C178.173 767.138 178.224 767.284 178.224 767.461C178.224 767.778 178.002 768.069 177.559 768.335C177.103 768.601 176.622 768.804 176.115 768.943C175.608 769.07 175.114 769.133 174.633 769.133C173.202 769.133 172.068 768.709 171.232 767.86C170.409 767.011 169.997 765.84 169.997 764.345C169.997 763.395 170.181 762.559 170.548 761.837C170.915 761.102 171.428 760.532 172.087 760.127C172.758 759.722 173.518 759.519 174.367 759.519C175.57 759.519 176.527 759.912 177.236 760.697C177.945 761.482 178.3 762.546 178.3 763.889C178.3 764.142 178.249 764.326 178.148 764.44C178.047 764.554 177.882 764.611 177.654 764.611H171.536C171.65 766.79 172.682 767.879 174.633 767.879C175.127 767.879 175.551 767.816 175.906 767.689C176.261 767.55 176.641 767.366 177.046 767.138C177.375 766.948 177.597 766.853 177.711 766.853ZM174.386 760.716C173.575 760.716 172.923 760.969 172.429 761.476C171.948 761.983 171.663 762.698 171.574 763.623H176.951C176.926 762.686 176.691 761.97 176.248 761.476C175.805 760.969 175.184 760.716 174.386 760.716ZM188.073 759.557C188.313 759.557 188.503 759.627 188.643 759.766C188.782 759.905 188.852 760.089 188.852 760.317V768.373C188.852 769.754 188.497 770.792 187.788 771.489C187.078 772.198 186.027 772.553 184.634 772.553C183.278 772.553 182.151 772.287 181.252 771.755C180.796 771.502 180.568 771.21 180.568 770.881C180.568 770.704 180.612 770.558 180.701 770.444C180.802 770.33 180.929 770.273 181.081 770.273C181.207 770.273 181.435 770.362 181.765 770.539C182.208 770.767 182.645 770.951 183.076 771.09C183.506 771.229 184.019 771.299 184.615 771.299C185.514 771.299 186.192 771.058 186.648 770.577C187.104 770.108 187.332 769.418 187.332 768.506V766.872C187.066 767.467 186.654 767.923 186.097 768.24C185.552 768.557 184.906 768.715 184.159 768.715C183.348 768.715 182.626 768.525 181.993 768.145C181.372 767.765 180.884 767.227 180.53 766.53C180.188 765.833 180.017 765.029 180.017 764.117C180.017 763.205 180.188 762.401 180.53 761.704C180.884 761.007 181.372 760.469 181.993 760.089C182.626 759.709 183.348 759.519 184.159 759.519C184.893 759.519 185.533 759.677 186.078 759.994C186.622 760.311 187.034 760.76 187.313 761.343V760.317C187.313 760.089 187.376 759.905 187.503 759.766C187.642 759.627 187.832 759.557 188.073 759.557ZM184.463 767.442C185.349 767.442 186.046 767.151 186.553 766.568C187.059 765.973 187.313 765.156 187.313 764.117C187.313 763.091 187.059 762.287 186.553 761.704C186.059 761.109 185.362 760.811 184.463 760.811C183.563 760.811 182.854 761.109 182.335 761.704C181.828 762.287 181.575 763.091 181.575 764.117C181.575 765.156 181.828 765.973 182.335 766.568C182.854 767.151 183.563 767.442 184.463 767.442ZM192.479 769.095C192.251 769.095 192.061 769.032 191.909 768.905C191.77 768.766 191.7 768.576 191.7 768.335V760.317C191.7 760.076 191.77 759.893 191.909 759.766C192.061 759.627 192.251 759.557 192.479 759.557C192.707 759.557 192.891 759.627 193.03 759.766C193.17 759.893 193.239 760.076 193.239 760.317V768.335C193.239 768.588 193.17 768.778 193.03 768.905C192.891 769.032 192.707 769.095 192.479 769.095ZM192.479 757.562C192.175 757.562 191.928 757.473 191.738 757.296C191.548 757.119 191.453 756.884 191.453 756.593C191.453 756.314 191.548 756.086 191.738 755.909C191.928 755.732 192.175 755.643 192.479 755.643C192.783 755.643 193.03 755.732 193.22 755.909C193.41 756.086 193.505 756.314 193.505 756.593C193.505 756.884 193.41 757.119 193.22 757.296C193.03 757.473 192.783 757.562 192.479 757.562ZM199.232 769.133C198.65 769.133 198.092 769.063 197.56 768.924C197.041 768.785 196.579 768.588 196.173 768.335C195.945 768.183 195.781 768.044 195.679 767.917C195.591 767.778 195.546 767.613 195.546 767.423C195.546 767.258 195.591 767.125 195.679 767.024C195.781 766.91 195.907 766.853 196.059 766.853C196.211 766.853 196.433 766.948 196.724 767.138C197.104 767.366 197.478 767.55 197.845 767.689C198.225 767.816 198.694 767.879 199.251 767.879C199.935 767.879 200.467 767.759 200.847 767.518C201.227 767.277 201.417 766.929 201.417 766.473C201.417 766.194 201.348 765.973 201.208 765.808C201.069 765.631 200.828 765.479 200.486 765.352C200.144 765.213 199.644 765.073 198.985 764.934C197.871 764.693 197.073 764.37 196.591 763.965C196.11 763.56 195.869 763.009 195.869 762.312C195.869 761.767 196.021 761.286 196.325 760.868C196.629 760.45 197.047 760.121 197.579 759.88C198.124 759.639 198.738 759.519 199.422 759.519C199.916 759.519 200.391 759.589 200.847 759.728C201.316 759.855 201.728 760.038 202.082 760.279C202.513 760.583 202.728 760.9 202.728 761.229C202.728 761.394 202.678 761.533 202.576 761.647C202.475 761.761 202.355 761.818 202.215 761.818C202.063 761.818 201.835 761.71 201.531 761.495C201.177 761.267 200.841 761.09 200.524 760.963C200.208 760.836 199.815 760.773 199.346 760.773C198.751 760.773 198.27 760.906 197.902 761.172C197.548 761.438 197.37 761.793 197.37 762.236C197.37 762.515 197.434 762.743 197.56 762.92C197.7 763.085 197.921 763.237 198.225 763.376C198.542 763.503 198.992 763.629 199.574 763.756C200.436 763.946 201.101 764.155 201.569 764.383C202.051 764.611 202.393 764.89 202.595 765.219C202.798 765.548 202.899 765.966 202.899 766.473C202.899 767.271 202.564 767.917 201.892 768.411C201.221 768.892 200.334 769.133 199.232 769.133ZM209.428 767.879C209.871 767.917 210.093 768.12 210.093 768.487C210.093 768.702 210.01 768.867 209.846 768.981C209.694 769.082 209.459 769.12 209.143 769.095L208.63 769.057C207.616 768.981 206.869 768.677 206.388 768.145C205.906 767.613 205.666 766.809 205.666 765.732V760.963H204.393C204.177 760.963 204.006 760.912 203.88 760.811C203.766 760.697 203.709 760.551 203.709 760.374C203.709 760.184 203.766 760.032 203.88 759.918C204.006 759.804 204.177 759.747 204.393 759.747H205.666V757.6C205.666 757.359 205.735 757.176 205.875 757.049C206.014 756.91 206.204 756.84 206.445 756.84C206.673 756.84 206.856 756.91 206.996 757.049C207.135 757.176 207.205 757.359 207.205 757.6V759.747H209.314C209.516 759.747 209.675 759.804 209.789 759.918C209.915 760.032 209.979 760.184 209.979 760.374C209.979 760.551 209.915 760.697 209.789 760.811C209.675 760.912 209.516 760.963 209.314 760.963H207.205V765.808C207.205 766.505 207.344 767.011 207.623 767.328C207.914 767.632 208.345 767.803 208.915 767.841L209.428 767.879ZM218.773 766.853C218.912 766.853 219.032 766.91 219.134 767.024C219.235 767.138 219.286 767.284 219.286 767.461C219.286 767.778 219.064 768.069 218.621 768.335C218.165 768.601 217.683 768.804 217.177 768.943C216.67 769.07 216.176 769.133 215.695 769.133C214.263 769.133 213.13 768.709 212.294 767.86C211.47 767.011 211.059 765.84 211.059 764.345C211.059 763.395 211.242 762.559 211.61 761.837C211.977 761.102 212.49 760.532 213.149 760.127C213.82 759.722 214.58 759.519 215.429 759.519C216.632 759.519 217.588 759.912 218.298 760.697C219.007 761.482 219.362 762.546 219.362 763.889C219.362 764.142 219.311 764.326 219.21 764.44C219.108 764.554 218.944 764.611 218.716 764.611H212.598C212.712 766.79 213.744 767.879 215.695 767.879C216.189 767.879 216.613 767.816 216.968 767.689C217.322 767.55 217.702 767.366 218.108 767.138C218.437 766.948 218.659 766.853 218.773 766.853ZM215.448 760.716C214.637 760.716 213.985 760.969 213.491 761.476C213.009 761.983 212.724 762.698 212.636 763.623H218.013C217.987 762.686 217.753 761.97 217.31 761.476C216.866 760.969 216.246 760.716 215.448 760.716ZM226.208 759.557C226.74 759.519 227.006 759.734 227.006 760.203C227.006 760.406 226.949 760.57 226.835 760.697C226.721 760.811 226.525 760.881 226.246 760.906L225.676 760.963C224.827 761.039 224.194 761.343 223.776 761.875C223.371 762.394 223.168 763.009 223.168 763.718V768.335C223.168 768.588 223.098 768.778 222.959 768.905C222.82 769.032 222.636 769.095 222.408 769.095C222.18 769.095 221.99 769.032 221.838 768.905C221.699 768.766 221.629 768.576 221.629 768.335V760.317C221.629 760.076 221.705 759.893 221.857 759.766C222.009 759.627 222.193 759.557 222.408 759.557C222.611 759.557 222.782 759.627 222.921 759.766C223.06 759.893 223.13 760.07 223.13 760.298V761.362C223.396 760.805 223.77 760.38 224.251 760.089C224.745 759.798 225.309 759.627 225.942 759.576L226.208 759.557Z" fill="#1A5EDE"/>
<path d="M390 133.828C255.656 261.879 72.1851 123.558 0 175.228V0H390V133.828Z" fill="#1A5EDE"/>
<path fill-rule="evenodd" clip-rule="evenodd" d="M339.089 15H353.911C355.159 15 355.611 15.13 356.068 15.374C356.524 15.618 356.882 15.9761 357.126 16.4324C357.37 16.8887 357.5 17.3413 357.5 18.5894V22.9106C357.5 24.1587 357.37 24.6113 357.126 25.0676C356.882 25.5239 356.524 25.882 356.068 26.126C355.611 26.37 355.159 26.5 353.911 26.5H339.089C337.841 26.5 337.389 26.37 336.932 26.126C336.476 25.882 336.118 25.5239 335.874 25.0676C335.63 24.6113 335.5 24.1587 335.5 22.9106V18.5894C335.5 17.3413 335.63 16.8887 335.874 16.4324C336.118 15.9761 336.476 15.618 336.932 15.374C337.389 15.13 337.841 15 339.089 15ZM339.089 16C338.102 16 337.758 16.0665 337.404 16.2558C337.122 16.4066 336.907 16.622 336.756 16.904C336.567 17.2579 336.5 17.6025 336.5 18.5894V22.9106C336.5 23.8975 336.567 24.2421 336.756 24.596C336.907 24.878 337.122 25.0934 337.404 25.2442C337.758 25.4335 338.102 25.5 339.089 25.5H353.911C354.898 25.5 355.242 25.4335 355.596 25.2442C355.878 25.0934 356.093 24.878 356.244 24.596C356.433 24.2421 356.5 23.8975 356.5 22.9106V18.5894C356.5 17.6025 356.433 17.2579 356.244 16.904C356.093 16.622 355.878 16.4066 355.596 16.2558C355.242 16.0665 354.898 16 353.911 16H339.089ZM360 20.69C360 21.9266 358.5 22.69 358.5 22.69V18.69C358.5 18.69 360 19.4534 360 20.69Z" fill="white"/>
<rect x="337.5" y="16.9166" width="18" height="7.66667" rx="1.6" fill="white"/>
<path fill-rule="evenodd" clip-rule="evenodd" d="M308.123 16.406C308.1 16.5219 308.1 16.6613 308.1 16.9401V24.6401C308.1 24.9189 308.1 25.0583 308.123 25.1742C308.218 25.6502 308.59 26.0223 309.066 26.117C309.182 26.1401 309.321 26.1401 309.6 26.1401C309.879 26.1401 310.018 26.1401 310.134 26.117C310.61 26.0223 310.982 25.6502 311.077 25.1742C311.1 25.0583 311.1 24.9189 311.1 24.6401V16.9401C311.1 16.6613 311.1 16.5219 311.077 16.406C310.982 15.9299 310.61 15.5578 310.134 15.4631C310.018 15.4401 309.879 15.4401 309.6 15.4401C309.321 15.4401 309.182 15.4401 309.066 15.4631C308.59 15.5578 308.218 15.9299 308.123 16.406ZM303.4 19.3401C303.4 19.0613 303.4 18.9219 303.423 18.806C303.518 18.33 303.89 17.9578 304.366 17.8631C304.482 17.8401 304.621 17.8401 304.9 17.8401C305.179 17.8401 305.318 17.8401 305.434 17.8631C305.91 17.9578 306.282 18.33 306.377 18.806C306.4 18.9219 306.4 19.0613 306.4 19.3401V24.6401C306.4 24.9189 306.4 25.0583 306.377 25.1742C306.282 25.6502 305.91 26.0223 305.434 26.117C305.318 26.1401 305.179 26.1401 304.9 26.1401C304.621 26.1401 304.482 26.1401 304.366 26.117C303.89 26.0223 303.518 25.6502 303.423 25.1742C303.4 25.0583 303.4 24.9189 303.4 24.6401V19.3401ZM298.823 21.106C298.8 21.2219 298.8 21.3613 298.8 21.6401V24.6401C298.8 24.9189 298.8 25.0583 298.823 25.1742C298.918 25.6502 299.29 26.0223 299.766 26.117C299.882 26.1401 300.021 26.1401 300.3 26.1401C300.579 26.1401 300.718 26.1401 300.834 26.117C301.31 26.0223 301.682 25.6502 301.777 25.1742C301.8 25.0583 301.8 24.9189 301.8 24.6401V21.6401C301.8 21.3613 301.8 21.2219 301.777 21.106C301.682 20.6299 301.31 20.2578 300.834 20.1631C300.718 20.1401 300.579 20.1401 300.3 20.1401C300.021 20.1401 299.882 20.1401 299.766 20.1631C299.29 20.2578 298.918 20.6299 298.823 21.106ZM294.023 23.106C294 23.2219 294 23.3613 294 23.6401V24.6401C294 24.9189 294 25.0583 294.023 25.1742C294.118 25.6502 294.49 26.0224 294.966 26.117C295.082 26.1401 295.221 26.1401 295.5 26.1401C295.779 26.1401 295.918 26.1401 296.034 26.117C296.51 26.0224 296.882 25.6502 296.977 25.1742C297 25.0583 297 24.9189 297 24.6401V23.6401C297 23.3613 297 23.2219 296.977 23.106C296.882 22.63 296.51 22.2579 296.034 22.1632C295.918 22.1401 295.779 22.1401 295.5 22.1401C295.221 22.1401 295.082 22.1401 294.966 22.1632C294.49 22.2579 294.118 22.63 294.023 23.106Z" fill="white"/>
<path fill-rule="evenodd" clip-rule="evenodd" d="M322.8 17.5364C325.035 17.5364 327.184 18.395 328.803 19.9346C328.925 20.0534 329.12 20.0519 329.24 19.9312L330.406 18.7548C330.467 18.6936 330.5 18.6106 330.5 18.5243C330.499 18.438 330.465 18.3555 330.403 18.295C326.153 14.2217 319.447 14.2217 315.197 18.295C315.135 18.3554 315.101 18.438 315.1 18.5242C315.099 18.6105 315.133 18.6935 315.194 18.7548L316.36 19.9312C316.48 20.0521 316.675 20.0536 316.797 19.9346C318.417 18.3949 320.566 17.5363 322.8 17.5364V17.5364ZM322.8 21.3637C324.028 21.3637 325.212 21.82 326.122 22.644C326.245 22.761 326.439 22.7584 326.559 22.6383L327.723 21.4619C327.785 21.4002 327.819 21.3165 327.818 21.2295C327.817 21.1425 327.781 21.0595 327.718 20.999C324.947 18.4213 320.656 18.4213 317.885 20.999C317.822 21.0595 317.786 21.1425 317.786 21.2296C317.785 21.3166 317.819 21.4003 317.88 21.4619L319.044 22.6383C319.164 22.7584 319.358 22.761 319.481 22.644C320.391 21.8205 321.574 21.3642 322.8 21.3637V21.3637ZM325.038 24.1713C325.1 24.1102 325.135 24.0261 325.133 23.9389C325.131 23.8517 325.093 23.769 325.029 23.7105C323.742 22.6226 321.858 22.6226 320.572 23.7105C320.508 23.769 320.47 23.8516 320.468 23.9388C320.466 24.0261 320.5 24.1102 320.563 24.1713L322.577 26.2038C322.636 26.2636 322.716 26.2972 322.8 26.2972C322.884 26.2972 322.965 26.2636 323.024 26.2038L325.038 24.1713Z" fill="white"/>
<path d="M39.0695 16.9418C36.8536 16.9151 35.426 18.5824 35.426 20.5852C35.426 22.6946 36.9814 24.2074 38.8564 24.2074C39.9857 24.2074 40.9445 23.6534 41.5411 22.7585H41.6263C41.6263 25.4432 40.5823 26.9773 38.899 26.9773C37.7485 26.9773 37.0454 26.2528 36.811 25.2514H35.5113C35.7669 26.9773 37.0667 28.1491 38.899 28.1491C41.3493 28.1491 42.8621 25.9759 42.8621 22.098C42.8621 18.0923 40.8593 16.9631 39.0695 16.9418ZM39.0695 18.1136C40.4331 18.1136 41.4346 19.2855 41.4346 20.5639C41.4346 21.8636 40.3692 23.0355 39.0269 23.0355C37.6846 23.0355 36.7044 21.9489 36.7044 20.5852C36.7044 19.2216 37.7272 18.1136 39.0695 18.1136ZM45.3485 28.0852C45.8758 28.0852 46.3073 27.6538 46.3073 27.1264C46.3073 26.5991 45.8758 26.1676 45.3485 26.1676C44.8211 26.1676 44.3897 26.5991 44.3897 27.1264C44.3897 27.6538 44.8211 28.0852 45.3485 28.0852ZM48.1212 25.7628H53.2561V28H54.5132V25.7628H56.0047V24.5909H54.5132V17.0909H52.9152L48.1212 24.6761V25.7628ZM53.2561 24.5909H49.5487V24.5057L53.1709 18.7741H53.2561V24.5909ZM61.5246 17.0909H60.2036L57.4763 18.902V20.2443L60.1397 18.4759H60.2036V28H61.5246V17.0909Z" fill="white"/>
<g filter="url(#filter0_d_88_4)">
<rect x="151" y="41" width="75" height="71" rx="12" fill="white"/>
</g>
<path d="M210.153 75.8214C210.153 88.1241 200.564 98 188.852 98C177.14 98 167.55 88.1241 167.55 75.8214C167.55 63.5186 177.14 53.6428 188.852 53.6428C200.564 53.6428 210.153 63.5186 210.153 75.8214Z" fill="white" stroke="#256FC8" stroke-width="3"/>
<ellipse cx="181.475" cy="75.125" rx="3.35317" ry="3.48214" fill="#256FC8"/>
<ellipse cx="189.522" cy="75.125" rx="3.35317" ry="3.48214" fill="#256FC8"/>
<ellipse cx="197.57" cy="75.125" rx="3.35317" ry="3.48214" fill="#256FC8"/>
<path d="M148.137 128.98H150.545C150.498 126.646 148.508 124.993 145.566 124.993C142.665 124.993 140.485 126.626 140.492 129.068C140.492 131.052 141.902 132.192 144.176 132.779L145.748 133.184C147.239 133.562 148.224 134.027 148.231 135.1C148.224 136.281 147.104 137.07 145.471 137.07C143.906 137.07 142.692 136.369 142.59 134.918H140.128C140.229 137.664 142.273 139.209 145.492 139.209C148.804 139.209 150.727 137.556 150.734 135.12C150.727 132.725 148.751 131.632 146.672 131.14L145.377 130.816C144.243 130.546 143.015 130.067 143.029 128.913C143.036 127.874 143.967 127.112 145.532 127.112C147.023 127.112 148.008 127.806 148.137 128.98ZM152.693 139H155.135V128.636H152.693V139ZM153.921 127.165C154.697 127.165 155.331 126.572 155.331 125.843C155.331 125.108 154.697 124.514 153.921 124.514C153.138 124.514 152.504 125.108 152.504 125.843C152.504 126.572 153.138 127.165 153.921 127.165ZM157.482 139H159.924V132.698C159.924 131.423 160.775 130.559 161.827 130.559C162.859 130.559 163.568 131.254 163.568 132.32V139H165.963V132.536C165.963 131.369 166.658 130.559 167.839 130.559C168.824 130.559 169.607 131.14 169.607 132.422V139H172.056V132.044C172.056 129.729 170.72 128.501 168.817 128.501C167.313 128.501 166.166 129.244 165.707 130.397H165.599C165.201 129.223 164.195 128.501 162.799 128.501C161.409 128.501 160.37 129.217 159.938 130.397H159.816V128.636H157.482V139ZM178.889 139.202C181.926 139.202 183.855 137.064 183.855 133.859C183.855 130.647 181.926 128.501 178.889 128.501C175.853 128.501 173.923 130.647 173.923 133.859C173.923 137.064 175.853 139.202 178.889 139.202ZM178.903 137.246C177.223 137.246 176.4 135.748 176.4 133.852C176.4 131.956 177.223 130.438 178.903 130.438C180.556 130.438 181.379 131.956 181.379 133.852C181.379 135.748 180.556 137.246 178.903 137.246ZM188.206 132.928C188.206 131.43 189.11 130.566 190.399 130.566C191.66 130.566 192.416 131.396 192.416 132.779V139H194.858V132.401C194.865 129.918 193.448 128.501 191.309 128.501C189.758 128.501 188.692 129.244 188.219 130.397H188.098V128.636H185.763V139H188.206V132.928ZM213.188 125.182H210.698V134.601H210.577L204.072 125.182H201.832V139H204.335V129.588H204.45L210.961 139H213.188V125.182ZM222.248 134.641C222.248 136.22 221.121 137.003 220.041 137.003C218.867 137.003 218.085 136.173 218.085 134.857V128.636H215.642V135.235C215.642 137.725 217.059 139.135 219.097 139.135C220.649 139.135 221.742 138.319 222.214 137.158H222.322V139H224.69V128.636H222.248V134.641ZM229.479 125.182H227.037V139H229.479V125.182Z" fill="white"/>
</g>
<defs>
<filter id="filter0_d_88_4" x="149" y="41" width="79" height="77" filterUnits="userSpaceOnUse" color-interpolation-filters="sRGB">
<feFlood flood-opacity="0" result="BackgroundImageFix"/>
<feColorMatrix in="SourceAlpha" type="matrix" values="0 0 0 0 0 0 0 0 0 0 0 0 0 0 0 0 0 0 127 0" result="hardAlpha"/>
<feOffset dy="4"/>
<feGaussianBlur stdDeviation="1"/>
<feComposite in2="hardAlpha" operator="out"/>
<feColorMatrix type="matrix" values="0 0 0 0 0 0 0 0 0 0 0 0 0 0 0 0 0 0 0.23 0"/>
<feBlend mode="normal" in2="BackgroundImageFix" result="effect1_dropShadow_88_4"/>
<feBlend mode="normal" in="SourceGraphic" in2="effect1_dropShadow_88_4" result="shape"/>
</filter>
<clipPath id="clip0_88_4">
<rect width="390" height="811" rx="4" fill="white"/>
</clipPath>
<clipPath id="clip1_88_4">
<rect width="28" height="29" fill="white" transform="translate(71 635)"/>
</clipPath>
</defs>
</svg>
