<svg width="18" height="12" viewBox="0 0 18 12" fill="none" xmlns="http://www.w3.org/2000/svg">
<path fill-rule="evenodd" clip-rule="evenodd" d="M14.123 1.40596C14.1 1.52187 14.1 1.66127 14.1 1.94006V9.64006C14.1 9.91886 14.1 10.0583 14.123 10.1742C14.2177 10.6502 14.5898 11.0223 15.0659 11.117C15.1818 11.1401 15.3212 11.1401 15.6 11.1401C15.8788 11.1401 16.0182 11.1401 16.1341 11.117C16.6101 11.0223 16.9822 10.6502 17.0769 10.1742C17.1 10.0583 17.1 9.91886 17.1 9.64006V1.94006C17.1 1.66127 17.1 1.52187 17.0769 1.40596C16.9822 0.929926 16.6101 0.557809 16.1341 0.463121C16.0182 0.440063 15.8788 0.440063 15.6 0.440063C15.3212 0.440063 15.1818 0.440063 15.0659 0.463121C14.5898 0.557809 14.2177 0.929926 14.123 1.40596ZM9.39999 4.34009C9.39999 4.06129 9.39999 3.9219 9.42305 3.80598C9.51774 3.32995 9.88986 2.95783 10.3659 2.86315C10.4818 2.84009 10.6212 2.84009 10.9 2.84009C11.1788 2.84009 11.3182 2.84009 11.4341 2.86315C11.9101 2.95783 12.2822 3.32995 12.3769 3.80598C12.4 3.9219 12.4 4.06129 12.4 4.34009V9.64009C12.4 9.91888 12.4 10.0583 12.3769 10.1742C12.2822 10.6502 11.9101 11.0223 11.4341 11.117C11.3182 11.1401 11.1788 11.1401 10.9 11.1401C10.6212 11.1401 10.4818 11.1401 10.3659 11.117C9.88986 11.0223 9.51774 10.6502 9.42305 10.1742C9.39999 10.0583 9.39999 9.91888 9.39999 9.64009V4.34009ZM4.82305 6.10597C4.79999 6.22189 4.79999 6.36128 4.79999 6.64008V9.64008C4.79999 9.91887 4.79999 10.0583 4.82305 10.1742C4.91773 10.6502 5.28985 11.0223 5.76588 11.117C5.8818 11.1401 6.02119 11.1401 6.29999 11.1401C6.57878 11.1401 6.71818 11.1401 6.8341 11.117C7.31012 11.0223 7.68224 10.6502 7.77693 10.1742C7.79999 10.0583 7.79999 9.91887 7.79999 9.64008V6.64008C7.79999 6.36128 7.79999 6.22189 7.77693 6.10597C7.68224 5.62994 7.31012 5.25782 6.8341 5.16313C6.71818 5.14008 6.57878 5.14008 6.29999 5.14008C6.02119 5.14008 5.8818 5.14008 5.76588 5.16313C5.28985 5.25782 4.91773 5.62994 4.82305 6.10597ZM0.0230577 8.106C0 8.22192 0 8.36131 0 8.64011V9.64011C0 9.9189 0 10.0583 0.0230577 10.1742C0.117746 10.6502 0.489863 11.0224 0.965892 11.117C1.08181 11.1401 1.22121 11.1401 1.5 11.1401C1.77879 11.1401 1.91819 11.1401 2.03411 11.117C2.51014 11.0224 2.88225 10.6502 2.97694 10.1742C3 10.0583 3 9.9189 3 9.64011V8.64011C3 8.36131 3 8.22192 2.97694 8.106C2.88225 7.62997 2.51014 7.25785 2.03411 7.16316C1.91819 7.14011 1.77879 7.14011 1.5 7.14011C1.22121 7.14011 1.08181 7.14011 0.965892 7.16316C0.489863 7.25785 0.117746 7.62997 0.0230577 8.106Z" fill="white"/>
</svg>
