<svg width="16" height="12" viewBox="0 0 16 12" fill="none" xmlns="http://www.w3.org/2000/svg">
<path fill-rule="evenodd" clip-rule="evenodd" d="M7.8004 2.53635C10.0348 2.53645 12.1838 3.395 13.8031 4.93456C13.9251 5.05342 14.12 5.05192 14.2401 4.9312L15.4058 3.75478C15.4666 3.69355 15.5005 3.61061 15.5 3.52432C15.4995 3.43802 15.4646 3.35549 15.4031 3.29497C11.1527 -0.778337 4.44737 -0.778337 0.197047 3.29497C0.135477 3.35544 0.100547 3.43795 0.0999828 3.52425C0.099408 3.61054 0.133259 3.69351 0.194022 3.75478L1.36003 4.9312C1.48004 5.0521 1.67511 5.0536 1.79698 4.93456C3.41655 3.3949 5.56577 2.53635 7.8004 2.53635ZM7.8004 6.36374C9.02806 6.36366 10.2119 6.81998 11.1219 7.64401C11.245 7.76096 11.4389 7.75843 11.5589 7.6383L12.7232 6.46188C12.7845 6.40018 12.8185 6.31647 12.8177 6.22948C12.8168 6.1425 12.781 6.05949 12.7185 5.99905C9.94732 3.4213 5.65582 3.4213 2.88466 5.99905C2.82206 6.05949 2.78635 6.14254 2.78553 6.22955C2.7847 6.31656 2.81885 6.40027 2.88028 6.46188L4.04427 7.6383C4.16425 7.75843 4.35814 7.76096 4.48122 7.64401C5.39063 6.82052 6.57354 6.36425 7.8004 6.36374ZM10.0379 9.17134C10.1002 9.11023 10.1345 9.02613 10.1327 8.9389C10.1309 8.85167 10.0932 8.76904 10.0285 8.71052C8.7423 7.62262 6.85849 7.62262 5.57226 8.71052C5.50751 8.76899 5.46974 8.85159 5.4679 8.93882C5.46605 9.02605 5.50029 9.11018 5.56251 9.17134L7.57688 11.2038C7.63592 11.2636 7.7164 11.2972 7.8004 11.2972C7.88439 11.2972 7.96487 11.2636 8.02391 11.2038L10.0379 9.17134Z" fill="white"/>
</svg>
