<svg width="25" height="12" viewBox="0 0 25 12" fill="none" xmlns="http://www.w3.org/2000/svg">
<path fill-rule="evenodd" clip-rule="evenodd" d="M4.08944 0H18.9106C20.1587 0 20.6113 0.129956 21.0676 0.373986C21.5239 0.618016 21.882 0.97612 22.126 1.43242C22.37 1.88871 22.5 2.34131 22.5 3.58944V7.91056C22.5 9.15869 22.37 9.61129 22.126 10.0676C21.882 10.5239 21.5239 10.882 21.0676 11.126C20.6113 11.37 20.1587 11.5 18.9106 11.5H4.08944C2.84131 11.5 2.38871 11.37 1.93242 11.126C1.47612 10.882 1.11802 10.5239 0.873986 10.0676C0.629956 9.61129 0.5 9.15869 0.5 7.91056V3.58944C0.5 2.34131 0.629956 1.88871 0.873986 1.43242C1.11802 0.97612 1.47612 0.618016 1.93242 0.373986C2.38871 0.129956 2.84131 0 4.08944 0ZM4.08944 1C3.10246 1 2.7579 1.06654 2.40401 1.2558C2.12199 1.40663 1.90663 1.62199 1.7558 1.90401C1.56654 2.2579 1.5 2.60246 1.5 3.58944V7.91056C1.5 8.89754 1.56654 9.2421 1.7558 9.59599C1.90663 9.87801 2.12199 10.0934 2.40401 10.2442C2.7579 10.4335 3.10246 10.5 4.08944 10.5H18.9106C19.8975 10.5 20.2421 10.4335 20.596 10.2442C20.878 10.0934 21.0934 9.87801 21.2442 9.59599C21.4335 9.2421 21.5 8.89754 21.5 7.91056V3.58944C21.5 2.60246 21.4335 2.2579 21.2442 1.90401C21.0934 1.62199 20.878 1.40663 20.596 1.2558C20.2421 1.06654 19.8975 1 18.9106 1H4.08944ZM25 5.69C25 6.92657 23.5 7.69 23.5 7.69V3.69C23.5 3.69 25 4.45343 25 5.69Z" fill="white"/>
<rect x="2.5" y="1.91663" width="18" height="7.66667" rx="1.6" fill="white"/>
</svg>
