<svg width="20" height="20" viewBox="0 0 20 20" fill="none" xmlns="http://www.w3.org/2000/svg">
<path d="M10 18.5H5.5V19.5H10C15.2439 19.5 19.5 15.2439 19.5 10C19.5 4.75614 15.2439 0.5 10 0.5C4.75614 0.5 0.5 4.75614 0.5 10V11.43C0.5 13.1369 1.81899 14.5 3.5 14.5C4.53368 14.5 5.50229 13.9936 6.05622 13.2351L6.40257 12.7609L6.8155 13.1784C7.62395 13.9958 8.7569 14.5 10 14.5C12.4839 14.5 14.5 12.4839 14.5 10C14.5 7.51614 12.4839 5.5 10 5.5C7.51614 5.5 5.5 7.51614 5.5 10V11.43C5.5 11.9712 5.26006 12.4821 4.91049 12.8538C4.56076 13.2257 4.06087 13.5 3.5 13.5C2.93913 13.5 2.43925 13.2257 2.08951 12.8538C1.73994 12.4821 1.5 11.9712 1.5 11.43V10C1.5 5.38386 5.38386 1.5 10 1.5C14.6161 1.5 18.5 5.38386 18.5 10C18.5 14.6161 14.6161 18.5 10 18.5ZM13.5 10C13.5 11.9361 11.9361 13.5 10 13.5C8.06386 13.5 6.5 11.9361 6.5 10C6.5 8.06386 8.06386 6.5 10 6.5C11.9361 6.5 13.5 8.06386 13.5 10Z" fill="#2D3544" stroke="#2D3544"/>
</svg>
