<svg width="19" height="16" viewBox="0 0 19 16" fill="none" xmlns="http://www.w3.org/2000/svg">
<path fill-rule="evenodd" clip-rule="evenodd" d="M9.33329 0C11.3333 0 13.0666 0.533333 14.5333 1.6L13.4666 2.53333C12.2666 1.73333 10.9333 1.33333 9.33329 1.33333C4.93329 1.33333 1.33329 4.93333 1.33329 9.33333H-4.00543e-05C-4.00543e-05 4.13333 4.13329 0 9.33329 0ZM18.6666 1.33333L16.5333 3.33333C17.8666 4.93333 18.6666 7.06667 18.6666 9.33333H17.3333C17.3333 7.33333 16.6666 5.6 15.4666 4.26667L12.5333 6.93333C13.0666 7.6 13.3333 8.4 13.3333 9.33333C13.3333 11.6 11.6 13.3333 9.33329 13.3333C8.26663 13.3333 7.33329 12.9333 6.66663 12.2667L2.66663 16L1.73329 15.0667L17.7333 0.4L18.6666 1.33333ZM11.6 7.86667L7.73329 11.4667C8.13329 11.7333 8.66663 12 9.33329 12C10.8 12 12 10.8 12 9.33333C12 8.8 11.8666 8.26667 11.6 7.86667ZM5.33329 10L6.66663 8.8C6.93329 7.73333 7.86663 6.8 9.06663 6.66667L10.4 5.46667C9.99996 5.33333 9.73329 5.33333 9.33329 5.33333C7.06663 5.33333 5.33329 7.06667 5.33329 9.33333V10Z" fill="#272F3F"/>
</svg>
