<svg width="15" height="20" viewBox="0 0 15 20" fill="none" xmlns="http://www.w3.org/2000/svg">
<mask id="path-1-inside-1_80_88" fill="white">
<path d="M1.36363 8.66667H2.72726V6C2.72726 3.4 4.8409 1.33333 7.49999 1.33333C10.1591 1.33333 12.2727 3.4 12.2727 6V8.66667H13.6364V6C13.6364 2.66667 10.9091 0 7.49999 0C4.0909 0 1.36363 2.66667 1.36363 6V8.66667Z"/>
</mask>
<path d="M1.36363 8.66667H2.72726V6C2.72726 3.4 4.8409 1.33333 7.49999 1.33333C10.1591 1.33333 12.2727 3.4 12.2727 6V8.66667H13.6364V6C13.6364 2.66667 10.9091 0 7.49999 0C4.0909 0 1.36363 2.66667 1.36363 6V8.66667Z" fill="#2D3544"/>
<path d="M1.36363 8.66667V10.6667H-0.636374V8.66667H1.36363ZM2.72726 8.66667H4.72726V10.6667H2.72726V8.66667ZM12.2727 8.66667V10.6667H10.2727V8.66667H12.2727ZM13.6364 8.66667H15.6364V10.6667H13.6364V8.66667ZM1.36363 6.66667H2.72726V10.6667H1.36363V6.66667ZM0.727262 8.66667V6H4.72726V8.66667H0.727262ZM0.727262 6C0.727262 2.2533 3.77894 -0.666667 7.49999 -0.666667V3.33333C5.90286 3.33333 4.72726 4.5467 4.72726 6H0.727262ZM7.49999 -0.666667C11.221 -0.666667 14.2727 2.2533 14.2727 6H10.2727C10.2727 4.5467 9.09712 3.33333 7.49999 3.33333V-0.666667ZM14.2727 6V8.66667H10.2727V6H14.2727ZM12.2727 6.66667H13.6364V10.6667H12.2727V6.66667ZM11.6364 8.66667V6H15.6364V8.66667H11.6364ZM11.6364 6C11.6364 3.81337 9.84712 2 7.49999 2V-2C11.971 -2 15.6364 1.51996 15.6364 6H11.6364ZM7.49999 2C5.15286 2 3.36363 3.81337 3.36363 6H-0.636374C-0.636374 1.51996 3.02894 -2 7.49999 -2V2ZM3.36363 6V8.66667H-0.636374V6H3.36363Z" fill="#2D3544" mask="url(#path-1-inside-1_80_88)"/>
<mask id="path-3-inside-2_80_88" fill="white">
<path d="M2.04545 20H12.9545C14.1136 20 15 19.1333 15 18V10C15 8.86667 14.1136 8 12.9545 8H2.04545C0.886363 8 0 8.86667 0 10V18C0 19.1333 0.886363 20 2.04545 20ZM12.9545 9.33333C13.3636 9.33333 13.6364 9.6 13.6364 10V18C13.6364 18.4 13.3636 18.6667 12.9545 18.6667H2.04545C1.63636 18.6667 1.36364 18.4 1.36364 18V10C1.36364 9.6 1.63636 9.33333 2.04545 9.33333H12.9545Z"/>
</mask>
<path d="M2.04545 20H12.9545C14.1136 20 15 19.1333 15 18V10C15 8.86667 14.1136 8 12.9545 8H2.04545C0.886363 8 0 8.86667 0 10V18C0 19.1333 0.886363 20 2.04545 20ZM12.9545 9.33333C13.3636 9.33333 13.6364 9.6 13.6364 10V18C13.6364 18.4 13.3636 18.6667 12.9545 18.6667H2.04545C1.63636 18.6667 1.36364 18.4 1.36364 18V10C1.36364 9.6 1.63636 9.33333 2.04545 9.33333H12.9545Z" fill="#2D3544"/>
<path d="M2.04545 18H12.9545V22H2.04545V18ZM12.9545 18C12.9935 18 13.0125 17.9931 13.017 17.9913C13.0221 17.9892 13.0195 17.9893 13.0137 17.995C13.0078 18.0007 13.0027 18.0083 12.9998 18.0152C12.9985 18.0183 12.9984 18.0195 12.9987 18.0181C12.999 18.0168 13 18.011 13 18H17C17 20.28 15.1756 22 12.9545 22V18ZM13 18V10H17V18H13ZM13 10C13 9.989 12.999 9.98324 12.9987 9.98188C12.9984 9.98046 12.9985 9.98169 12.9998 9.98478C13.0027 9.99172 13.0078 9.99926 13.0137 10.005C13.0195 10.0107 13.0221 10.0108 13.017 10.0087C13.0125 10.0069 12.9935 10 12.9545 10V6C15.1756 6 17 7.71996 17 10H13ZM12.9545 10H2.04545V6H12.9545V10ZM2.04545 10C2.00654 10 1.9875 10.0069 1.98303 10.0087C1.97792 10.0108 1.98052 10.0107 1.9863 10.005C1.99219 9.99926 1.99725 9.99172 2.00017 9.98478C2.00147 9.98169 2.0016 9.98046 2.00132 9.98188C2.00104 9.98324 2 9.989 2 10H-2C-2 7.71996 -0.175597 6 2.04545 6V10ZM2 10V18H-2V10H2ZM2 18C2 18.011 2.00104 18.0168 2.00132 18.0181C2.0016 18.0195 2.00147 18.0183 2.00017 18.0152C1.99725 18.0083 1.99219 18.0007 1.9863 17.995C1.98052 17.9893 1.97792 17.9892 1.98303 17.9913C1.9875 17.9931 2.00654 18 2.04545 18V22C-0.175597 22 -2 20.28 -2 18H2ZM12.9545 7.33333C13.6003 7.33333 14.2996 7.55134 14.8471 8.08665C15.3986 8.6259 15.6364 9.33181 15.6364 10H11.6364C11.6364 10.2682 11.7378 10.6408 12.0506 10.9467C12.3595 11.2487 12.7179 11.3333 12.9545 11.3333V7.33333ZM15.6364 10V18H11.6364V10H15.6364ZM15.6364 18C15.6364 18.6682 15.3986 19.3741 14.8471 19.9133C14.2996 20.4487 13.6003 20.6667 12.9545 20.6667V16.6667C12.7179 16.6667 12.3595 16.7513 12.0506 17.0533C11.7378 17.3592 11.6364 17.7318 11.6364 18H15.6364ZM12.9545 20.6667H2.04545V16.6667H12.9545V20.6667ZM2.04545 20.6667C1.39973 20.6667 0.700383 20.4487 0.152901 19.9133C-0.398601 19.3741 -0.636364 18.6682 -0.636364 18H3.36364C3.36364 17.7318 3.26224 17.3592 2.94937 17.0533C2.64053 16.7513 2.28209 16.6667 2.04545 16.6667V20.6667ZM-0.636364 18V10H3.36364V18H-0.636364ZM-0.636364 10C-0.636364 9.33181 -0.398601 8.6259 0.152901 8.08665C0.700383 7.55134 1.39973 7.33333 2.04545 7.33333V11.3333C2.28209 11.3333 2.64053 11.2487 2.94937 10.9467C3.26224 10.6408 3.36364 10.2682 3.36364 10H-0.636364ZM2.04545 7.33333H12.9545V11.3333H2.04545V7.33333Z" fill="#2D3544" mask="url(#path-3-inside-2_80_88)"/>
<path d="M7.13637 12C7.13637 12.163 7.27788 12.3333 7.50001 12.3333C7.72215 12.3333 7.86365 12.163 7.86365 12C7.86365 11.8369 7.72215 11.6666 7.50001 11.6666C7.27788 11.6666 7.13637 11.8369 7.13637 12Z" fill="#2D3544" stroke="#2D3544" stroke-width="2"/>
<mask id="path-6-inside-3_80_88" fill="white">
<path d="M7.15907 12H7.84089L8.52271 16H6.47725L7.15907 12Z"/>
</mask>
<path d="M7.15907 12H7.84089L8.52271 16H6.47725L7.15907 12Z" fill="#2D3544"/>
<path d="M7.15907 12L5.18751 11.6639L5.47113 10H7.15907V12ZM7.84089 12V10H9.52882L9.81245 11.6639L7.84089 12ZM8.52271 16L10.4943 15.6639L10.8925 18H8.52271V16ZM6.47725 16V18H4.10749L4.50569 15.6639L6.47725 16ZM7.15907 10H7.84089V14H7.15907V10ZM9.81245 11.6639L10.4943 15.6639L6.55114 16.3361L5.86932 12.3361L9.81245 11.6639ZM8.52271 18H6.47725V14H8.52271V18ZM4.50569 15.6639L5.18751 11.6639L9.13063 12.3361L8.44881 16.3361L4.50569 15.6639Z" fill="#2D3544" mask="url(#path-6-inside-3_80_88)"/>
</svg>
