<svg width="390" height="811" viewBox="0 0 390 811" fill="none" xmlns="http://www.w3.org/2000/svg">
<g clip-path="url(#clip0_76_4)">
<rect width="390" height="811" rx="4" fill="white"/>
<path d="M14 152C15.775 152 17.4988 151.405 18.897 150.312L23.293 154.708L24.707 153.294L20.311 148.898C21.405 147.5 21.9996 145.775 22 144C22 139.589 18.411 136 14 136C9.589 136 6 139.589 6 144C6 148.411 9.589 152 14 152ZM14 138C17.309 138 20 140.691 20 144C20 147.309 17.309 150 14 150C10.691 150 8 147.309 8 144C8 140.691 10.691 138 14 138Z" fill="#F8F8F8"/>
<path fill-rule="evenodd" clip-rule="evenodd" d="M26 95C26 96.8565 26.7375 98.637 28.0503 99.9497C29.363 101.263 31.1435 102 33 102C34.8565 102 36.637 101.263 37.9497 99.9497C39.2625 98.637 40 96.8565 40 95C40 93.1435 39.2625 91.363 37.9497 90.0503C36.637 88.7375 34.8565 88 33 88C31.1435 88 29.363 88.7375 28.0503 90.0503C26.7375 91.363 26 93.1435 26 95ZM41 95C41 97.1217 40.1571 99.1566 38.6569 100.657C37.1566 102.157 35.1217 103 33 103C30.8783 103 28.8434 102.157 27.3431 100.657C25.8429 99.1566 25 97.1217 25 95C25 92.8783 25.8429 90.8434 27.3431 89.3431C28.8434 87.8429 30.8783 87 33 87C35.1217 87 37.1566 87.8429 38.6569 89.3431C40.1571 90.8434 41 92.8783 41 95ZM29.5 94.5C29.3674 94.5 29.2402 94.5527 29.1464 94.6464C29.0527 94.7402 29 94.8674 29 95C29 95.1326 29.0527 95.2598 29.1464 95.3536C29.2402 95.4473 29.3674 95.5 29.5 95.5H35.293L33.146 97.646C33.0995 97.6925 33.0626 97.7477 33.0375 97.8084C33.0123 97.8692 32.9994 97.9343 32.9994 98C32.9994 98.0657 33.0123 98.1308 33.0375 98.1916C33.0626 98.2523 33.0995 98.3075 33.146 98.354C33.1925 98.4005 33.2477 98.4374 33.3084 98.4625C33.3692 98.4877 33.4343 98.5006 33.5 98.5006C33.5657 98.5006 33.6308 98.4877 33.6916 98.4625C33.7523 98.4374 33.8075 98.4005 33.854 98.354L36.854 95.354C36.9006 95.3076 36.9375 95.2524 36.9627 95.1916C36.9879 95.1309 37.0009 95.0658 37.0009 95C37.0009 94.9342 36.9879 94.8691 36.9627 94.8084C36.9375 94.7476 36.9006 94.6924 36.854 94.646L33.854 91.646C33.8075 91.5995 33.7523 91.5626 33.6916 91.5375C33.6308 91.5123 33.5657 91.4994 33.5 91.4994C33.4343 91.4994 33.3692 91.5123 33.3084 91.5375C33.2477 91.5626 33.1925 91.5995 33.146 91.646C33.0995 91.6925 33.0626 91.7477 33.0375 91.8084C33.0123 91.8692 32.9994 91.9343 32.9994 92C32.9994 92.0657 33.0123 92.1308 33.0375 92.1916C33.0626 92.2523 33.0995 92.3075 33.146 92.354L35.293 94.5H29.5Z" fill="black"/>
<rect x="-2" width="392" height="180" fill="#1A5EDE"/>
<path fill-rule="evenodd" clip-rule="evenodd" d="M337.089 19H351.911C353.159 19 353.611 19.13 354.068 19.374C354.524 19.618 354.882 19.9761 355.126 20.4324C355.37 20.8887 355.5 21.3413 355.5 22.5894V26.9106C355.5 28.1587 355.37 28.6113 355.126 29.0676C354.882 29.5239 354.524 29.882 354.068 30.126C353.611 30.37 353.159 30.5 351.911 30.5H337.089C335.841 30.5 335.389 30.37 334.932 30.126C334.476 29.882 334.118 29.5239 333.874 29.0676C333.63 28.6113 333.5 28.1587 333.5 26.9106V22.5894C333.5 21.3413 333.63 20.8887 333.874 20.4324C334.118 19.9761 334.476 19.618 334.932 19.374C335.389 19.13 335.841 19 337.089 19ZM337.089 20C336.102 20 335.758 20.0665 335.404 20.2558C335.122 20.4066 334.907 20.622 334.756 20.904C334.567 21.2579 334.5 21.6025 334.5 22.5894V26.9106C334.5 27.8975 334.567 28.2421 334.756 28.596C334.907 28.878 335.122 29.0934 335.404 29.2442C335.758 29.4335 336.102 29.5 337.089 29.5H351.911C352.898 29.5 353.242 29.4335 353.596 29.2442C353.878 29.0934 354.093 28.878 354.244 28.596C354.433 28.2421 354.5 27.8975 354.5 26.9106V22.5894C354.5 21.6025 354.433 21.2579 354.244 20.904C354.093 20.622 353.878 20.4066 353.596 20.2558C353.242 20.0665 352.898 20 351.911 20H337.089ZM358 24.69C358 25.9266 356.5 26.69 356.5 26.69V22.69C356.5 22.69 358 23.4534 358 24.69Z" fill="white"/>
<rect x="335.5" y="20.9166" width="18" height="7.66667" rx="1.6" fill="white"/>
<path fill-rule="evenodd" clip-rule="evenodd" d="M306.123 20.406C306.1 20.5219 306.1 20.6613 306.1 20.9401V28.6401C306.1 28.9189 306.1 29.0583 306.123 29.1742C306.218 29.6502 306.59 30.0223 307.066 30.117C307.182 30.1401 307.321 30.1401 307.6 30.1401C307.879 30.1401 308.018 30.1401 308.134 30.117C308.61 30.0223 308.982 29.6502 309.077 29.1742C309.1 29.0583 309.1 28.9189 309.1 28.6401V20.9401C309.1 20.6613 309.1 20.5219 309.077 20.406C308.982 19.9299 308.61 19.5578 308.134 19.4631C308.018 19.4401 307.879 19.4401 307.6 19.4401C307.321 19.4401 307.182 19.4401 307.066 19.4631C306.59 19.5578 306.218 19.9299 306.123 20.406ZM301.4 23.3401C301.4 23.0613 301.4 22.9219 301.423 22.806C301.518 22.33 301.89 21.9578 302.366 21.8631C302.482 21.8401 302.621 21.8401 302.9 21.8401C303.179 21.8401 303.318 21.8401 303.434 21.8631C303.91 21.9578 304.282 22.33 304.377 22.806C304.4 22.9219 304.4 23.0613 304.4 23.3401V28.6401C304.4 28.9189 304.4 29.0583 304.377 29.1742C304.282 29.6502 303.91 30.0223 303.434 30.117C303.318 30.1401 303.179 30.1401 302.9 30.1401C302.621 30.1401 302.482 30.1401 302.366 30.117C301.89 30.0223 301.518 29.6502 301.423 29.1742C301.4 29.0583 301.4 28.9189 301.4 28.6401V23.3401ZM296.823 25.106C296.8 25.2219 296.8 25.3613 296.8 25.6401V28.6401C296.8 28.9189 296.8 29.0583 296.823 29.1742C296.918 29.6502 297.29 30.0223 297.766 30.117C297.882 30.1401 298.021 30.1401 298.3 30.1401C298.579 30.1401 298.718 30.1401 298.834 30.117C299.31 30.0223 299.682 29.6502 299.777 29.1742C299.8 29.0583 299.8 28.9189 299.8 28.6401V25.6401C299.8 25.3613 299.8 25.2219 299.777 25.106C299.682 24.6299 299.31 24.2578 298.834 24.1631C298.718 24.1401 298.579 24.1401 298.3 24.1401C298.021 24.1401 297.882 24.1401 297.766 24.1631C297.29 24.2578 296.918 24.6299 296.823 25.106ZM292.023 27.106C292 27.2219 292 27.3613 292 27.6401V28.6401C292 28.9189 292 29.0583 292.023 29.1742C292.118 29.6502 292.49 30.0224 292.966 30.117C293.082 30.1401 293.221 30.1401 293.5 30.1401C293.779 30.1401 293.918 30.1401 294.034 30.117C294.51 30.0224 294.882 29.6502 294.977 29.1742C295 29.0583 295 28.9189 295 28.6401V27.6401C295 27.3613 295 27.2219 294.977 27.106C294.882 26.63 294.51 26.2579 294.034 26.1632C293.918 26.1401 293.779 26.1401 293.5 26.1401C293.221 26.1401 293.082 26.1401 292.966 26.1632C292.49 26.2579 292.118 26.63 292.023 27.106Z" fill="white"/>
<path fill-rule="evenodd" clip-rule="evenodd" d="M320.8 21.5364C323.035 21.5364 325.184 22.395 326.803 23.9346C326.925 24.0534 327.12 24.0519 327.24 23.9312L328.406 22.7548C328.467 22.6936 328.5 22.6106 328.5 22.5243C328.499 22.438 328.465 22.3555 328.403 22.295C324.153 18.2217 317.447 18.2217 313.197 22.295C313.135 22.3554 313.101 22.438 313.1 22.5242C313.099 22.6105 313.133 22.6935 313.194 22.7548L314.36 23.9312C314.48 24.0521 314.675 24.0536 314.797 23.9346C316.417 22.3949 318.566 21.5363 320.8 21.5364ZM320.8 25.3637C322.028 25.3637 323.212 25.82 324.122 26.644C324.245 26.761 324.439 26.7584 324.559 26.6383L325.723 25.4619C325.785 25.4002 325.819 25.3165 325.818 25.2295C325.817 25.1425 325.781 25.0595 325.718 24.999C322.947 22.4213 318.656 22.4213 315.885 24.999C315.822 25.0595 315.786 25.1425 315.786 25.2296C315.785 25.3166 315.819 25.4003 315.88 25.4619L317.044 26.6383C317.164 26.7584 317.358 26.761 317.481 26.644C318.391 25.8205 319.574 25.3642 320.8 25.3637ZM323.038 28.1713C323.1 28.1102 323.135 28.0261 323.133 27.9389C323.131 27.8517 323.093 27.769 323.029 27.7105C321.742 26.6226 319.858 26.6226 318.572 27.7105C318.508 27.769 318.47 27.8516 318.468 27.9388C318.466 28.0261 318.5 28.1102 318.563 28.1713L320.577 30.2038C320.636 30.2636 320.716 30.2972 320.8 30.2972C320.884 30.2972 320.965 30.2636 321.024 30.2038L323.038 28.1713Z" fill="white"/>
<path d="M37.0695 20.9418C34.8536 20.9151 33.426 22.5824 33.426 24.5852C33.426 26.6946 34.9814 28.2074 36.8564 28.2074C37.9857 28.2074 38.9445 27.6534 39.5411 26.7585H39.6263C39.6263 29.4432 38.5823 30.9773 36.899 30.9773C35.7485 30.9773 35.0454 30.2528 34.811 29.2514H33.5113C33.7669 30.9773 35.0667 32.1491 36.899 32.1491C39.3493 32.1491 40.8621 29.9759 40.8621 26.098C40.8621 22.0923 38.8593 20.9631 37.0695 20.9418ZM37.0695 22.1136C38.4331 22.1136 39.4346 23.2855 39.4346 24.5639C39.4346 25.8636 38.3692 27.0355 37.0269 27.0355C35.6846 27.0355 34.7044 25.9489 34.7044 24.5852C34.7044 23.2216 35.7272 22.1136 37.0695 22.1136ZM43.3485 32.0852C43.8758 32.0852 44.3073 31.6538 44.3073 31.1264C44.3073 30.5991 43.8758 30.1676 43.3485 30.1676C42.8211 30.1676 42.3897 30.5991 42.3897 31.1264C42.3897 31.6538 42.8211 32.0852 43.3485 32.0852ZM46.1212 29.7628H51.2561V32H52.5132V29.7628H54.0047V28.5909H52.5132V21.0909H50.9152L46.1212 28.6761V29.7628ZM51.2561 28.5909H47.5487V28.5057L51.1709 22.7741H51.2561V28.5909ZM59.5246 21.0909H58.2036L55.4763 22.902V24.2443L58.1397 22.4759H58.2036V32H59.5246V21.0909Z" fill="white"/>
<g filter="url(#filter0_d_76_4)">
<rect x="155" y="53.9822" width="78" height="71.0357" rx="12" fill="white"/>
</g>
<circle cx="194" cy="88.8036" r="22.1786" fill="white" stroke="#256FC8" stroke-width="3"/>
<circle cx="186.339" cy="88.1071" r="3.48214" fill="#256FC8"/>
<circle cx="194.696" cy="88.1071" r="3.48214" fill="#256FC8"/>
<circle cx="203.054" cy="88.1071" r="3.48214" fill="#256FC8"/>
<path d="M158.137 145.98H160.545C160.498 143.646 158.508 141.993 155.566 141.993C152.665 141.993 150.485 143.626 150.492 146.068C150.492 148.052 151.902 149.192 154.176 149.779L155.748 150.184C157.239 150.562 158.224 151.027 158.231 152.1C158.224 153.281 157.104 154.07 155.471 154.07C153.906 154.07 152.692 153.369 152.59 151.918H150.128C150.229 154.664 152.273 156.209 155.492 156.209C158.804 156.209 160.727 154.556 160.734 152.12C160.727 149.725 158.751 148.632 156.672 148.14L155.377 147.816C154.243 147.546 153.015 147.067 153.029 145.913C153.036 144.874 153.967 144.112 155.532 144.112C157.023 144.112 158.008 144.806 158.137 145.98ZM162.693 156H165.135V145.636H162.693V156ZM163.921 144.165C164.697 144.165 165.331 143.572 165.331 142.843C165.331 142.108 164.697 141.514 163.921 141.514C163.138 141.514 162.504 142.108 162.504 142.843C162.504 143.572 163.138 144.165 163.921 144.165ZM167.482 156H169.924V149.698C169.924 148.423 170.775 147.559 171.827 147.559C172.859 147.559 173.568 148.254 173.568 149.32V156H175.963V149.536C175.963 148.369 176.658 147.559 177.839 147.559C178.824 147.559 179.607 148.14 179.607 149.422V156H182.056V149.044C182.056 146.729 180.72 145.501 178.817 145.501C177.313 145.501 176.166 146.244 175.707 147.397H175.599C175.201 146.223 174.195 145.501 172.799 145.501C171.409 145.501 170.37 146.217 169.938 147.397H169.816V145.636H167.482V156ZM188.889 156.202C191.926 156.202 193.855 154.064 193.855 150.859C193.855 147.647 191.926 145.501 188.889 145.501C185.853 145.501 183.923 147.647 183.923 150.859C183.923 154.064 185.853 156.202 188.889 156.202ZM188.903 154.246C187.223 154.246 186.4 152.748 186.4 150.852C186.4 148.956 187.223 147.438 188.903 147.438C190.556 147.438 191.379 148.956 191.379 150.852C191.379 152.748 190.556 154.246 188.903 154.246ZM198.206 149.928C198.206 148.43 199.11 147.566 200.399 147.566C201.66 147.566 202.416 148.396 202.416 149.779V156H204.858V149.401C204.865 146.918 203.448 145.501 201.309 145.501C199.758 145.501 198.692 146.244 198.219 147.397H198.098V145.636H195.763V156H198.206V149.928ZM223.188 142.182H220.698V151.601H220.577L214.072 142.182H211.832V156H214.335V146.588H214.45L220.961 156H223.188V142.182ZM232.248 151.641C232.248 153.22 231.121 154.003 230.041 154.003C228.867 154.003 228.085 153.173 228.085 151.857V145.636H225.642V152.235C225.642 154.725 227.059 156.135 229.097 156.135C230.649 156.135 231.742 155.319 232.214 154.158H232.322V156H234.69V145.636H232.248V151.641ZM239.479 142.182H237.037V156H239.479V142.182Z" fill="white"/>
<path d="M46.3498 218.362C45.9023 215.131 43.4165 213.256 40.1921 213.256C36.3924 213.256 33.5302 216.026 33.5302 220.727C33.5302 225.422 36.3569 228.199 40.1921 228.199C43.6509 228.199 45.945 225.962 46.3498 223.185L43.6935 223.17C43.3597 224.875 41.9677 225.834 40.2276 225.834C37.8697 225.834 36.1793 224.065 36.1793 220.727C36.1793 217.446 37.8555 215.621 40.2347 215.621C42.0032 215.621 43.3881 216.622 43.6935 218.362H46.3498ZM48.6491 228H51.2202V221.587C51.2202 220.202 52.2642 219.222 53.6776 219.222C54.1108 219.222 54.6506 219.3 54.8707 219.371V217.006C54.6364 216.963 54.2315 216.935 53.9474 216.935C52.6974 216.935 51.6534 217.645 51.2557 218.909H51.142V217.091H48.6491V228ZM60.9592 228.213C63.5018 228.213 65.2489 226.97 65.7035 225.074L63.3029 224.804C62.9549 225.727 62.1026 226.21 60.9947 226.21C59.3327 226.21 58.2319 225.116 58.2106 223.249H65.81V222.46C65.81 218.632 63.5089 216.949 60.8242 216.949C57.6992 216.949 55.6609 219.243 55.6609 222.609C55.6609 226.033 57.6708 228.213 60.9592 228.213ZM58.2177 221.516C58.2958 220.124 59.3256 218.952 60.8597 218.952C62.337 218.952 63.3313 220.031 63.3455 221.516H58.2177ZM71.1243 228.22C72.8359 228.22 73.8587 227.418 74.3274 226.501H74.4126V228H76.8842V220.699C76.8842 217.815 74.5334 216.949 72.4524 216.949C70.1584 216.949 68.397 217.972 67.8288 219.96L70.2294 220.301C70.4851 219.555 71.2095 218.916 72.4666 218.916C73.6598 218.916 74.3132 219.527 74.3132 220.599V220.642C74.3132 221.381 73.5391 221.416 71.6143 221.622C69.4979 221.849 67.4737 222.482 67.4737 224.939C67.4737 227.084 69.0433 228.22 71.1243 228.22ZM71.7919 226.331C70.7195 226.331 69.9524 225.841 69.9524 224.896C69.9524 223.909 70.8118 223.497 71.9624 223.334C72.6371 223.241 73.9865 223.071 74.3203 222.801V224.087C74.3203 225.301 73.3402 226.331 71.7919 226.331ZM84.9169 217.091H82.7649V214.477H80.1939V217.091H78.6456V219.08H80.1939V225.145C80.1797 227.197 81.6712 228.206 83.603 228.149C84.3345 228.128 84.8388 227.986 85.1158 227.893L84.6825 225.884C84.5405 225.919 84.2493 225.983 83.9297 225.983C83.2834 225.983 82.7649 225.756 82.7649 224.719V219.08H84.9169V217.091ZM91.7795 228.213C94.3221 228.213 96.0692 226.97 96.5238 225.074L94.1232 224.804C93.7752 225.727 92.9229 226.21 91.815 226.21C90.1531 226.21 89.0522 225.116 89.0309 223.249H96.6303V222.46C96.6303 218.632 94.3292 216.949 91.6445 216.949C88.5195 216.949 86.4812 219.243 86.4812 222.609C86.4812 226.033 88.4911 228.213 91.7795 228.213ZM89.038 221.516C89.1161 220.124 90.146 218.952 91.68 218.952C93.1573 218.952 94.1516 220.031 94.1658 221.516H89.038ZM105.364 232.091C107.367 232.091 108.525 231.061 109.143 229.321L113.525 217.105L110.776 217.091L108.255 225.33H108.141L105.627 217.091H102.9L106.856 228.227L106.636 228.817C106.16 230.06 105.407 230.145 104.285 229.818L103.688 231.821C104.036 231.963 104.661 232.091 105.364 232.091ZM119.697 228.213C122.893 228.213 124.924 225.962 124.924 222.588C124.924 219.207 122.893 216.949 119.697 216.949C116.501 216.949 114.469 219.207 114.469 222.588C114.469 225.962 116.501 228.213 119.697 228.213ZM119.711 226.153C117.942 226.153 117.076 224.577 117.076 222.581C117.076 220.585 117.942 218.987 119.711 218.987C121.451 218.987 122.317 220.585 122.317 222.581C122.317 224.577 121.451 226.153 119.711 226.153ZM134.059 223.412C134.059 225.074 132.873 225.898 131.737 225.898C130.501 225.898 129.677 225.024 129.677 223.639V217.091H127.106V224.037C127.106 226.658 128.598 228.142 130.743 228.142C132.376 228.142 133.527 227.283 134.024 226.061H134.137V228H136.63V217.091H134.059V223.412ZM139.274 228H141.845V221.587C141.845 220.202 142.889 219.222 144.303 219.222C144.736 219.222 145.276 219.3 145.496 219.371V217.006C145.261 216.963 144.857 216.935 144.572 216.935C143.322 216.935 142.278 217.645 141.881 218.909H141.767V217.091H139.274V228ZM155.304 228.22C157.016 228.22 158.038 227.418 158.507 226.501H158.592V228H161.064V220.699C161.064 217.815 158.713 216.949 156.632 216.949C154.338 216.949 152.577 217.972 152.009 219.96L154.409 220.301C154.665 219.555 155.389 218.916 156.646 218.916C157.839 218.916 158.493 219.527 158.493 220.599V220.642C158.493 221.381 157.719 221.416 155.794 221.622C153.678 221.849 151.653 222.482 151.653 224.939C151.653 227.084 153.223 228.22 155.304 228.22ZM155.972 226.331C154.899 226.331 154.132 225.841 154.132 224.896C154.132 223.909 154.991 223.497 156.142 223.334C156.817 223.241 158.166 223.071 158.5 222.801V224.087C158.5 225.301 157.52 226.331 155.972 226.331ZM168.408 228.213C171.149 228.213 172.896 226.587 173.081 224.271H170.624C170.403 225.443 169.558 226.118 168.429 226.118C166.824 226.118 165.787 224.776 165.787 222.545C165.787 220.344 166.845 219.023 168.429 219.023C169.665 219.023 170.425 219.818 170.624 220.869H173.081C172.903 218.504 171.057 216.949 168.393 216.949C165.197 216.949 163.18 219.257 163.18 222.588C163.18 225.891 165.148 228.213 168.408 228.213ZM179.951 228.213C182.692 228.213 184.439 226.587 184.624 224.271H182.167C181.946 225.443 181.101 226.118 179.972 226.118C178.367 226.118 177.33 224.776 177.33 222.545C177.33 220.344 178.388 219.023 179.972 219.023C181.208 219.023 181.968 219.818 182.167 220.869H184.624C184.446 218.504 182.6 216.949 179.936 216.949C176.74 216.949 174.723 219.257 174.723 222.588C174.723 225.891 176.691 228.213 179.951 228.213ZM191.494 228.213C194.69 228.213 196.721 225.962 196.721 222.588C196.721 219.207 194.69 216.949 191.494 216.949C188.298 216.949 186.266 219.207 186.266 222.588C186.266 225.962 188.298 228.213 191.494 228.213ZM191.508 226.153C189.739 226.153 188.873 224.577 188.873 222.581C188.873 220.585 189.739 218.987 191.508 218.987C193.248 218.987 194.114 220.585 194.114 222.581C194.114 224.577 193.248 226.153 191.508 226.153ZM205.856 223.412C205.856 225.074 204.67 225.898 203.534 225.898C202.298 225.898 201.474 225.024 201.474 223.639V217.091H198.903V224.037C198.903 226.658 200.395 228.142 202.539 228.142C204.173 228.142 205.324 227.283 205.821 226.061H205.934V228H208.427V217.091H205.856V223.412ZM213.642 221.608C213.642 220.031 214.594 219.122 215.95 219.122C217.278 219.122 218.074 219.996 218.074 221.452V228H220.645V221.054C220.652 218.44 219.161 216.949 216.909 216.949C215.276 216.949 214.153 217.73 213.656 218.945H213.528V217.091H211.071V228H213.642V221.608ZM228.706 217.091H226.554V214.477H223.983V217.091H222.435V219.08H223.983V225.145C223.969 227.197 225.46 228.206 227.392 228.149C228.124 228.128 228.628 227.986 228.905 227.893L228.472 225.884C228.33 225.919 228.038 225.983 227.719 225.983C227.072 225.983 226.554 225.756 226.554 224.719V219.08H228.706V217.091Z" fill="#091E42"/>
<path d="M68.6733 290H70.3466V284.953H73.3693C76.5877 284.953 78.0384 282.996 78.0384 280.554C78.0384 278.112 76.5877 276.182 73.3423 276.182H68.6733V290ZM70.3466 283.469V277.666H73.2884C75.5352 277.666 76.392 278.894 76.392 280.554C76.392 282.214 75.5352 283.469 73.3153 283.469H70.3466ZM81.7023 283.766C81.7023 281.957 82.856 280.932 84.4281 280.932C85.926 280.932 86.8301 281.876 86.8301 283.523V290H88.4224V283.415C88.4224 280.75 87.0055 279.501 84.8869 279.501C83.2541 279.501 82.323 280.183 81.8372 281.256H81.7023V276.182H80.1099V290H81.7023V283.766ZM95.1377 290.216C97.9446 290.216 99.8338 288.084 99.8338 284.872C99.8338 281.634 97.9446 279.501 95.1377 279.501C92.3309 279.501 90.4417 281.634 90.4417 284.872C90.4417 288.084 92.3309 290.216 95.1377 290.216ZM95.1377 288.786C93.0056 288.786 92.0341 286.95 92.0341 284.872C92.0341 282.794 93.0056 280.932 95.1377 280.932C97.2698 280.932 98.2414 282.794 98.2414 284.872C98.2414 286.95 97.2698 288.786 95.1377 288.786ZM103.449 283.766C103.449 281.957 104.569 280.932 106.094 280.932C107.571 280.932 108.469 281.897 108.469 283.523V290H110.061V283.415C110.061 280.77 108.651 279.501 106.552 279.501C104.987 279.501 104.016 280.203 103.53 281.256H103.395V279.636H101.856V290H103.449V283.766ZM116.908 290.216C119.013 290.216 120.551 289.163 121.037 287.598L119.499 287.166C119.094 288.246 118.156 288.786 116.908 288.786C115.039 288.786 113.75 287.578 113.676 285.358H121.199V284.683C121.199 280.824 118.905 279.501 116.746 279.501C113.939 279.501 112.077 281.714 112.077 284.899C112.077 288.084 113.912 290.216 116.908 290.216ZM113.676 283.982C113.784 282.369 114.924 280.932 116.746 280.932C118.473 280.932 119.58 282.227 119.58 283.982H113.676Z" fill="#2D3544"/>
<path d="M67.6733 360H76.1207V358.516H69.3466V353.82H75.581V352.335H69.3466V347.666H76.0128V346.182H67.6733V360ZM78.4049 360H79.9972V353.523C79.9972 352.005 81.1037 350.932 82.3452 350.932C83.5529 350.932 84.3963 351.721 84.3963 352.902V360H86.0157V353.253C86.0157 351.917 86.8523 350.932 88.3097 350.932C89.4432 350.932 90.4148 351.532 90.4148 353.064V360H92.0071V353.064C92.0071 350.628 90.6982 349.501 88.8495 349.501C87.3651 349.501 86.2788 350.183 85.7458 351.256H85.6378C85.125 350.149 84.2209 349.501 82.858 349.501C81.5085 349.501 80.51 350.149 80.0782 351.256H79.9432V349.636H78.4049V360ZM97.5602 360.243C99.3685 360.243 100.313 359.271 100.637 358.597H100.718V360H102.31V353.172C102.31 349.879 99.8003 349.501 98.4779 349.501C96.9125 349.501 95.1313 350.041 94.3216 351.93L95.833 352.47C96.1838 351.714 97.0137 350.905 98.5318 350.905C99.996 350.905 100.718 351.681 100.718 353.01V353.064C100.718 353.833 99.9352 353.766 98.046 354.009C96.1231 354.258 94.0247 354.683 94.0247 357.058C94.0247 359.082 95.5901 360.243 97.5602 360.243ZM97.8031 358.812C96.5347 358.812 95.6171 358.246 95.6171 357.139C95.6171 355.925 96.7236 355.547 97.9651 355.385C98.6398 355.304 100.448 355.115 100.718 354.791V356.249C100.718 357.544 99.6923 358.812 97.8031 358.812ZM104.809 360H106.401V349.636H104.809V360ZM105.618 347.909C106.239 347.909 106.752 347.423 106.752 346.83C106.752 346.236 106.239 345.75 105.618 345.75C104.998 345.75 104.485 346.236 104.485 346.83C104.485 347.423 104.998 347.909 105.618 347.909ZM110.502 346.182H108.909V360H110.502V346.182ZM119.835 346.182H118.162V360H119.835V346.182ZM127.046 360C131.257 360 133.632 357.382 133.632 353.064C133.632 348.773 131.257 346.182 127.235 346.182H122.782V360H127.046ZM124.455 358.516V347.666H127.127C130.366 347.666 132.012 349.717 132.012 353.064C132.012 356.438 130.366 358.516 126.938 358.516H124.455Z" fill="#2D3544"/>
<path d="M67.6733 431H69.3466V425.953H72.3693C75.5877 425.953 77.0384 423.996 77.0384 421.554C77.0384 419.112 75.5877 417.182 72.3423 417.182H67.6733V431ZM69.3466 424.469V418.666H72.2884C74.5352 418.666 75.392 419.894 75.392 421.554C75.392 423.214 74.5352 424.469 72.3153 424.469H69.3466ZM82.1596 431.243C83.9679 431.243 84.9125 430.271 85.2364 429.597H85.3173V431H86.9096V424.172C86.9096 420.879 84.3997 420.501 83.0773 420.501C81.5119 420.501 79.7307 421.041 78.921 422.93L80.4324 423.47C80.7832 422.714 81.6131 421.905 83.1312 421.905C84.5954 421.905 85.3173 422.681 85.3173 424.01V424.064C85.3173 424.833 84.5346 424.766 82.6454 425.009C80.7225 425.258 78.6241 425.683 78.6241 428.058C78.6241 430.082 80.1895 431.243 82.1596 431.243ZM82.4025 429.812C81.1341 429.812 80.2165 429.246 80.2165 428.139C80.2165 426.925 81.323 426.547 82.5645 426.385C83.2392 426.304 85.0474 426.115 85.3173 425.791V427.249C85.3173 428.544 84.2918 429.812 82.4025 429.812ZM96.7489 422.957C96.2496 421.487 95.1296 420.501 93.0784 420.501C90.8924 420.501 89.273 421.743 89.273 423.497C89.273 424.928 90.1232 425.886 92.0259 426.331L93.7532 426.736C94.799 426.979 95.2915 427.478 95.2915 428.193C95.2915 429.084 94.3469 429.812 92.8625 429.812C91.5603 429.812 90.7439 429.252 90.4605 428.139L88.9492 428.517C89.3203 430.278 90.7709 431.216 92.8895 431.216C95.2983 431.216 96.9378 429.9 96.9378 428.112C96.9378 426.668 96.0337 425.757 94.185 425.305L92.6466 424.928C91.4186 424.624 90.8654 424.212 90.8654 423.416C90.8654 422.526 91.81 421.878 93.0784 421.878C94.4684 421.878 95.0419 422.647 95.3185 423.362L96.7489 422.957ZM106.268 422.957C105.768 421.487 104.648 420.501 102.597 420.501C100.411 420.501 98.7918 421.743 98.7918 423.497C98.7918 424.928 99.6419 425.886 101.545 426.331L103.272 426.736C104.318 426.979 104.81 427.478 104.81 428.193C104.81 429.084 103.866 429.812 102.381 429.812C101.079 429.812 100.263 429.252 99.9793 428.139L98.4679 428.517C98.839 430.278 100.29 431.216 102.408 431.216C104.817 431.216 106.457 429.9 106.457 428.112C106.457 426.668 105.552 425.757 103.704 425.305L102.165 424.928C100.937 424.624 100.384 424.212 100.384 423.416C100.384 422.526 101.329 421.878 102.597 421.878C103.987 421.878 104.561 422.647 104.837 423.362L106.268 422.957ZM110.794 431H112.359L114.626 423.038H114.788L117.055 431H118.62L121.778 420.636H120.105L117.865 428.544H117.757L115.571 420.636H113.87L111.657 428.571H111.549L109.309 420.636H107.636L110.794 431ZM127.333 431.216C130.14 431.216 132.029 429.084 132.029 425.872C132.029 422.634 130.14 420.501 127.333 420.501C124.526 420.501 122.637 422.634 122.637 425.872C122.637 429.084 124.526 431.216 127.333 431.216ZM127.333 429.786C125.201 429.786 124.229 427.95 124.229 425.872C124.229 423.794 125.201 421.932 127.333 421.932C129.465 421.932 130.436 423.794 130.436 425.872C130.436 427.95 129.465 429.786 127.333 429.786ZM134.051 431H135.644V424.442C135.644 423.038 136.75 422.013 138.262 422.013C138.687 422.013 139.125 422.094 139.233 422.121V420.501C139.051 420.488 138.633 420.474 138.397 420.474C137.155 420.474 136.076 421.176 135.698 422.202H135.59V420.636H134.051V431ZM144.311 431.216C146.308 431.216 146.983 429.974 147.333 429.408H147.522V431H149.061V417.182H147.468V422.283H147.333C146.983 421.743 146.362 420.501 144.338 420.501C141.72 420.501 139.911 422.58 139.911 425.845C139.911 429.138 141.72 431.216 144.311 431.216ZM144.527 429.786C142.529 429.786 141.504 428.031 141.504 425.818C141.504 423.632 142.502 421.932 144.527 421.932C146.47 421.932 147.495 423.497 147.495 425.818C147.495 428.166 146.443 429.786 144.527 429.786Z" fill="#2D3544"/>
<path d="M47 361.5H42.5V362.5H47C52.2439 362.5 56.5 358.244 56.5 353C56.5 347.756 52.2439 343.5 47 343.5C41.7561 343.5 37.5 347.756 37.5 353V354.43C37.5 356.137 38.819 357.5 40.5 357.5C41.5337 357.5 42.5023 356.994 43.0562 356.235L43.4026 355.761L43.8155 356.178C44.624 356.996 45.7569 357.5 47 357.5C49.4839 357.5 51.5 355.484 51.5 353C51.5 350.516 49.4839 348.5 47 348.5C44.5161 348.5 42.5 350.516 42.5 353V354.43C42.5 354.971 42.2601 355.482 41.9105 355.854C41.5608 356.226 41.0609 356.5 40.5 356.5C39.9391 356.5 39.4392 356.226 39.0895 355.854C38.7399 355.482 38.5 354.971 38.5 354.43V353C38.5 348.384 42.3839 344.5 47 344.5C51.6161 344.5 55.5 348.384 55.5 353C55.5 357.616 51.6161 361.5 47 361.5ZM50.5 353C50.5 354.936 48.9361 356.5 47 356.5C45.0639 356.5 43.5 354.936 43.5 353C43.5 351.064 45.0639 349.5 47 349.5C48.9361 349.5 50.5 351.064 50.5 353Z" fill="#2D3544" stroke="#2D3544"/>
<mask id="path-21-inside-1_76_4" fill="white">
<path d="M39.3636 421.667H40.7273V419C40.7273 416.4 42.8409 414.333 45.5 414.333C48.1591 414.333 50.2727 416.4 50.2727 419V421.667H51.6364V419C51.6364 415.667 48.9091 413 45.5 413C42.0909 413 39.3636 415.667 39.3636 419V421.667Z"/>
</mask>
<path d="M39.3636 421.667H40.7273V419C40.7273 416.4 42.8409 414.333 45.5 414.333C48.1591 414.333 50.2727 416.4 50.2727 419V421.667H51.6364V419C51.6364 415.667 48.9091 413 45.5 413C42.0909 413 39.3636 415.667 39.3636 419V421.667Z" fill="#2D3544"/>
<path d="M39.3636 421.667V423.667H37.3636V421.667H39.3636ZM40.7273 421.667H42.7273V423.667H40.7273V421.667ZM50.2727 421.667V423.667H48.2727V421.667H50.2727ZM51.6364 421.667H53.6364V423.667H51.6364V421.667ZM39.3636 419.667H40.7273V423.667H39.3636V419.667ZM38.7273 421.667V419H42.7273V421.667H38.7273ZM38.7273 419C38.7273 415.253 41.7789 412.333 45.5 412.333V416.333C43.9029 416.333 42.7273 417.547 42.7273 419H38.7273ZM45.5 412.333C49.221 412.333 52.2727 415.253 52.2727 419H48.2727C48.2727 417.547 47.0971 416.333 45.5 416.333V412.333ZM52.2727 419V421.667H48.2727V419H52.2727ZM50.2727 419.667H51.6364V423.667H50.2727V419.667ZM49.6364 421.667V419H53.6364V421.667H49.6364ZM49.6364 419C49.6364 416.813 47.8471 415 45.5 415V411C49.971 411 53.6364 414.52 53.6364 419H49.6364ZM45.5 415C43.1529 415 41.3636 416.813 41.3636 419H37.3636C37.3636 414.52 41.0289 411 45.5 411V415ZM41.3636 419V421.667H37.3636V419H41.3636Z" fill="#2D3544" mask="url(#path-21-inside-1_76_4)"/>
<mask id="path-23-inside-2_76_4" fill="white">
<path d="M40.0455 433H50.9545C52.1136 433 53 432.133 53 431V423C53 421.867 52.1136 421 50.9545 421H40.0455C38.8864 421 38 421.867 38 423V431C38 432.133 38.8864 433 40.0455 433ZM50.9545 422.333C51.3636 422.333 51.6364 422.6 51.6364 423V431C51.6364 431.4 51.3636 431.667 50.9545 431.667H40.0455C39.6364 431.667 39.3636 431.4 39.3636 431V423C39.3636 422.6 39.6364 422.333 40.0455 422.333H50.9545Z"/>
</mask>
<path d="M40.0455 433H50.9545C52.1136 433 53 432.133 53 431V423C53 421.867 52.1136 421 50.9545 421H40.0455C38.8864 421 38 421.867 38 423V431C38 432.133 38.8864 433 40.0455 433ZM50.9545 422.333C51.3636 422.333 51.6364 422.6 51.6364 423V431C51.6364 431.4 51.3636 431.667 50.9545 431.667H40.0455C39.6364 431.667 39.3636 431.4 39.3636 431V423C39.3636 422.6 39.6364 422.333 40.0455 422.333H50.9545Z" fill="#2D3544"/>
<path d="M40.0455 431H50.9545V435H40.0455V431ZM50.9545 431C50.9935 431 51.0125 430.993 51.017 430.991C51.0221 430.989 51.0195 430.989 51.0137 430.995C51.0078 431.001 51.0027 431.008 50.9998 431.015C50.9985 431.018 50.9984 431.02 50.9987 431.018C50.999 431.017 51 431.011 51 431H55C55 433.28 53.1756 435 50.9545 435V431ZM51 431V423H55V431H51ZM51 423C51 422.989 50.999 422.983 50.9987 422.982C50.9984 422.98 50.9985 422.982 50.9998 422.985C51.0027 422.992 51.0078 422.999 51.0137 423.005C51.0195 423.011 51.0221 423.011 51.017 423.009C51.0125 423.007 50.9935 423 50.9545 423V419C53.1756 419 55 420.72 55 423H51ZM50.9545 423H40.0455V419H50.9545V423ZM40.0455 423C40.0065 423 39.9875 423.007 39.983 423.009C39.9779 423.011 39.9805 423.011 39.9863 423.005C39.9922 422.999 39.9973 422.992 40.0002 422.985C40.0015 422.982 40.0016 422.98 40.0013 422.982C40.001 422.983 40 422.989 40 423H36C36 420.72 37.8244 419 40.0455 419V423ZM40 423V431H36V423H40ZM40 431C40 431.011 40.001 431.017 40.0013 431.018C40.0016 431.02 40.0015 431.018 40.0002 431.015C39.9973 431.008 39.9922 431.001 39.9863 430.995C39.9805 430.989 39.9779 430.989 39.983 430.991C39.9875 430.993 40.0065 431 40.0455 431V435C37.8244 435 36 433.28 36 431H40ZM50.9545 420.333C51.6003 420.333 52.2996 420.551 52.8471 421.087C53.3986 421.626 53.6364 422.332 53.6364 423H49.6364C49.6364 423.268 49.7378 423.641 50.0506 423.947C50.3595 424.249 50.7179 424.333 50.9545 424.333V420.333ZM53.6364 423V431H49.6364V423H53.6364ZM53.6364 431C53.6364 431.668 53.3986 432.374 52.8471 432.913C52.2996 433.449 51.6003 433.667 50.9545 433.667V429.667C50.7179 429.667 50.3595 429.751 50.0506 430.053C49.7378 430.359 49.6364 430.732 49.6364 431H53.6364ZM50.9545 433.667H40.0455V429.667H50.9545V433.667ZM40.0455 433.667C39.3997 433.667 38.7004 433.449 38.1529 432.913C37.6014 432.374 37.3636 431.668 37.3636 431H41.3636C41.3636 430.732 41.2622 430.359 40.9494 430.053C40.6405 429.751 40.2821 429.667 40.0455 429.667V433.667ZM37.3636 431V423H41.3636V431H37.3636ZM37.3636 423C37.3636 422.332 37.6014 421.626 38.1529 421.087C38.7004 420.551 39.3997 420.333 40.0455 420.333V424.333C40.2821 424.333 40.6405 424.249 40.9494 423.947C41.2622 423.641 41.3636 423.268 41.3636 423H37.3636ZM40.0455 420.333H50.9545V424.333H40.0455V420.333Z" fill="#2D3544" mask="url(#path-23-inside-2_76_4)"/>
<path d="M45.1364 425C45.1364 425.163 45.2779 425.333 45.5 425.333C45.7221 425.333 45.8636 425.163 45.8636 425C45.8636 424.837 45.7221 424.667 45.5 424.667C45.2779 424.667 45.1364 424.837 45.1364 425Z" fill="#2D3544" stroke="#2D3544" stroke-width="2"/>
<mask id="path-26-inside-3_76_4" fill="white">
<path d="M45.1591 425H45.8409L46.5227 429H44.4773L45.1591 425Z"/>
</mask>
<path d="M45.1591 425H45.8409L46.5227 429H44.4773L45.1591 425Z" fill="#2D3544"/>
<path d="M45.1591 425L43.1875 424.664L43.4711 423H45.1591V425ZM45.8409 425V423H47.5288L47.8125 424.664L45.8409 425ZM46.5227 429L48.4943 428.664L48.8925 431H46.5227V429ZM44.4773 429V431H42.1075L42.5057 428.664L44.4773 429ZM45.1591 423H45.8409V427H45.1591V423ZM47.8125 424.664L48.4943 428.664L44.5511 429.336L43.8693 425.336L47.8125 424.664ZM46.5227 431H44.4773V427H46.5227V431ZM42.5057 428.664L43.1875 424.664L47.1306 425.336L46.4488 429.336L42.5057 428.664Z" fill="#2D3544" mask="url(#path-26-inside-3_76_4)"/>
<path fill-rule="evenodd" clip-rule="evenodd" d="M331.333 421C333.333 421 335.067 421.533 336.533 422.6L335.467 423.533C334.267 422.733 332.933 422.333 331.333 422.333C326.933 422.333 323.333 425.933 323.333 430.333H322C322 425.133 326.133 421 331.333 421ZM340.667 422.333L338.533 424.333C339.867 425.933 340.667 428.067 340.667 430.333H339.333C339.333 428.333 338.667 426.6 337.467 425.267L334.533 427.933C335.067 428.6 335.333 429.4 335.333 430.333C335.333 432.6 333.6 434.333 331.333 434.333C330.267 434.333 329.333 433.933 328.667 433.267L324.667 437L323.733 436.067L339.733 421.4L340.667 422.333ZM333.6 428.867L329.733 432.467C330.133 432.733 330.667 433 331.333 433C332.8 433 334 431.8 334 430.333C334 429.8 333.867 429.267 333.6 428.867V428.867ZM327.333 431L328.667 429.8C328.933 428.733 329.867 427.8 331.067 427.667L332.4 426.467C332 426.333 331.733 426.333 331.333 426.333C329.067 426.333 327.333 428.067 327.333 430.333V431Z" fill="#272F3F"/>
<path d="M49.57 295C49.8356 295.002 50.0988 294.95 50.3443 294.849C50.5898 294.748 50.8127 294.598 51 294.41L53.71 291.7C53.8962 291.513 54.0008 291.259 54.0008 290.995C54.0008 290.731 53.8962 290.477 53.71 290.29L49.71 286.29C49.5226 286.104 49.2692 285.999 49.005 285.999C48.7408 285.999 48.4873 286.104 48.3 286.29L46.7 287.88C45.5922 287.585 44.5663 287.041 43.7 286.29C42.9511 285.422 42.4076 284.397 42.11 283.29L43.7 281.69C43.8862 281.503 43.9908 281.249 43.9908 280.985C43.9908 280.721 43.8862 280.467 43.7 280.28L39.7 276.28C39.5126 276.094 39.2592 275.989 38.995 275.989C38.7308 275.989 38.4773 276.094 38.29 276.28L35.59 279C35.4016 279.187 35.2524 279.41 35.1511 279.656C35.0498 279.901 34.9984 280.164 35 280.43C35.0907 284.272 36.626 287.939 39.3 290.7C42.0607 293.374 45.7277 294.909 49.57 295V295ZM39 278.41L41.59 281L40.3 282.29C40.1778 282.404 40.0863 282.548 40.0339 282.707C39.9815 282.866 39.9698 283.035 40 283.2C40.3737 284.87 41.1651 286.419 42.3 287.7C43.5803 288.836 45.129 289.628 46.8 290C46.9621 290.034 47.1302 290.027 47.289 289.98C47.4479 289.933 47.5925 289.847 47.71 289.73L49 288.41L51.59 291L49.59 293C46.2737 292.915 43.1095 291.591 40.72 289.29C38.4129 286.9 37.0856 283.731 37 280.41L39 278.41ZM53 284H55C55.0259 282.811 54.8108 281.629 54.3677 280.525C53.9246 279.422 53.2626 278.419 52.4217 277.578C51.5807 276.737 50.5782 276.075 49.4746 275.632C48.3709 275.189 47.189 274.974 46 275V277C46.9279 276.968 47.8525 277.127 48.7163 277.467C49.5801 277.808 50.3646 278.322 51.0211 278.979C51.6777 279.635 52.1921 280.42 52.5325 281.284C52.873 282.148 53.0321 283.072 53 284Z" fill="#2D3544"/>
<path d="M46 281C48.1 281 49 281.9 49 284H51C51 280.78 49.22 279 46 279V281Z" fill="#2D3544"/>
<rect x="32" y="635" width="324" height="59" rx="13" fill="#F1F5F6"/>
<rect x="33" y="494" width="324" height="59" rx="12" fill="#1A5EDE"/>
<path d="M157.16 519.091H158.865C158.787 516.896 156.763 515.256 153.95 515.256C151.166 515.256 148.979 516.875 148.979 519.318C148.979 521.278 150.399 522.443 152.672 523.097L154.462 523.608C155.996 524.034 157.359 524.574 157.359 526.023C157.359 527.614 155.825 528.665 153.808 528.665C152.075 528.665 150.541 527.898 150.399 526.25H148.581C148.751 528.636 150.683 530.256 153.808 530.256C157.16 530.256 159.064 528.409 159.064 526.051C159.064 523.324 156.479 522.443 154.973 522.045L153.496 521.648C152.416 521.364 150.683 520.795 150.683 519.233C150.683 517.841 151.962 516.818 153.893 516.818C155.655 516.818 156.99 517.656 157.16 519.091ZM161.655 530H163.331V519.091H161.655V530ZM162.507 517.273C163.16 517.273 163.7 516.761 163.7 516.136C163.7 515.511 163.16 515 162.507 515C161.853 515 161.314 515.511 161.314 516.136C161.314 516.761 161.853 517.273 162.507 517.273ZM170.726 534.318C173.34 534.318 175.442 533.125 175.442 530.312V519.091H173.823V520.824H173.652C173.283 520.256 172.601 518.949 170.47 518.949C167.715 518.949 165.811 521.136 165.811 524.489C165.811 527.898 167.8 529.83 170.442 529.83C172.573 529.83 173.254 528.58 173.624 527.983H173.766V530.199C173.766 532.017 172.487 532.841 170.726 532.841C168.745 532.841 168.049 531.797 167.601 531.193L166.266 532.131C166.948 533.274 168.29 534.318 170.726 534.318ZM170.669 528.324C168.567 528.324 167.487 526.733 167.487 524.46C167.487 522.244 168.539 520.455 170.669 520.455C172.715 520.455 173.794 522.102 173.794 524.46C173.794 526.875 172.686 528.324 170.669 528.324ZM180.108 523.438C180.108 521.534 181.287 520.455 182.892 520.455C184.448 520.455 185.392 521.47 185.392 523.182V530H187.069V523.068C187.069 520.284 185.584 518.949 183.375 518.949C181.728 518.949 180.705 519.688 180.194 520.795H180.051V519.091H178.432V530H180.108V523.438ZM205.373 515.455V524.943C205.373 527.074 203.91 528.608 201.481 528.608C199.052 528.608 197.589 527.074 197.589 524.943V515.455H195.828V525.085C195.828 528.068 198.058 530.256 201.481 530.256C204.904 530.256 207.134 528.068 207.134 525.085V515.455H205.373ZM210.347 534.091H212.023V528.324H212.165C212.534 528.92 213.244 530.227 215.347 530.227C218.074 530.227 219.977 528.04 219.977 524.574C219.977 521.136 218.074 518.949 215.318 518.949C213.188 518.949 212.534 520.256 212.165 520.824H211.966V519.091H210.347V534.091ZM211.994 524.545C211.994 522.102 213.074 520.455 215.119 520.455C217.25 520.455 218.301 522.244 218.301 524.545C218.301 526.875 217.222 528.722 215.119 528.722C213.102 528.722 211.994 527.017 211.994 524.545Z" fill="white"/>
<path d="M121.629 661.636H123.248C123.174 659.551 121.251 657.993 118.579 657.993C115.934 657.993 113.856 659.531 113.856 661.852C113.856 663.714 115.205 664.821 117.364 665.442L119.065 665.928C120.522 666.332 121.817 666.845 121.817 668.222C121.817 669.733 120.36 670.732 118.444 670.732C116.798 670.732 115.34 670.003 115.205 668.438H113.478C113.64 670.705 115.475 672.243 118.444 672.243C121.629 672.243 123.437 670.489 123.437 668.249C123.437 665.658 120.981 664.821 119.55 664.443L118.147 664.065C117.121 663.795 115.475 663.256 115.475 661.771C115.475 660.449 116.69 659.477 118.525 659.477C120.198 659.477 121.467 660.273 121.629 661.636ZM125.972 672H127.564V661.636H125.972V672ZM126.782 659.909C127.402 659.909 127.915 659.423 127.915 658.83C127.915 658.236 127.402 657.75 126.782 657.75C126.161 657.75 125.648 658.236 125.648 658.83C125.648 659.423 126.161 659.909 126.782 659.909ZM134.664 676.102C137.147 676.102 139.144 674.969 139.144 672.297V661.636H137.606V663.283H137.444C137.093 662.743 136.445 661.501 134.421 661.501C131.803 661.501 129.995 663.58 129.995 666.764C129.995 670.003 131.884 671.838 134.394 671.838C136.418 671.838 137.066 670.651 137.417 670.084H137.552V672.189C137.552 673.916 136.337 674.699 134.664 674.699C132.782 674.699 132.12 673.707 131.695 673.134L130.427 674.024C131.075 675.11 132.35 676.102 134.664 676.102ZM134.61 670.408C132.613 670.408 131.587 668.896 131.587 666.737C131.587 664.632 132.586 662.932 134.61 662.932C136.553 662.932 137.579 664.497 137.579 666.737C137.579 669.031 136.526 670.408 134.61 670.408ZM143.651 665.766C143.651 663.957 144.771 662.932 146.296 662.932C147.774 662.932 148.671 663.897 148.671 665.523V672H150.263V665.415C150.263 662.77 148.853 661.501 146.755 661.501C145.19 661.501 144.218 662.203 143.732 663.256H143.597V661.636H142.059V672H143.651V665.766ZM165.048 667.763C165.048 669.706 163.564 670.597 162.376 670.597C161.054 670.597 160.109 669.625 160.109 668.114V661.636H158.517V668.222C158.517 670.866 159.92 672.135 161.864 672.135C163.429 672.135 164.454 671.298 164.94 670.246H165.048V672H166.641V661.636H165.048V667.763ZM169.557 675.886H171.149V670.408H171.284C171.635 670.974 172.31 672.216 174.307 672.216C176.898 672.216 178.706 670.138 178.706 666.845C178.706 663.58 176.898 661.501 174.28 661.501C172.256 661.501 171.635 662.743 171.284 663.283H171.095V661.636H169.557V675.886ZM171.122 666.818C171.122 664.497 172.148 662.932 174.091 662.932C176.115 662.932 177.114 664.632 177.114 666.818C177.114 669.031 176.088 670.786 174.091 670.786C172.175 670.786 171.122 669.166 171.122 666.818ZM188.827 672H190.392L192.659 664.038H192.821L195.088 672H196.654L199.811 661.636H198.138L195.898 669.544H195.79L193.604 661.636H191.904L189.691 669.571H189.583L187.343 661.636H185.669L188.827 672ZM201.916 672H203.509V661.636H201.916V672ZM202.726 659.909C203.347 659.909 203.86 659.423 203.86 658.83C203.86 658.236 203.347 657.75 202.726 657.75C202.105 657.75 201.593 658.236 201.593 658.83C201.593 659.423 202.105 659.909 202.726 659.909ZM210.932 661.636H208.719V659.153H207.127V661.636H205.562V662.986H207.127V669.463C207.127 671.271 208.584 672.135 209.934 672.135C210.527 672.135 210.905 672.027 211.121 671.946L210.797 670.516C210.662 670.543 210.446 670.597 210.096 670.597C209.394 670.597 208.719 670.381 208.719 669.031V662.986H210.932V661.636ZM215.142 665.766C215.142 663.957 216.296 662.932 217.868 662.932C219.366 662.932 220.27 663.876 220.27 665.523V672H221.863V665.415C221.863 662.75 220.446 661.501 218.327 661.501C216.694 661.501 215.763 662.183 215.277 663.256H215.142V658.182H213.55V672H215.142V665.766ZM239.781 662.5H241.509C240.996 659.828 238.756 657.993 235.841 657.993C232.299 657.993 229.796 660.719 229.796 665.091C229.796 669.463 232.279 672.189 235.949 672.189C239.242 672.189 241.59 669.996 241.59 666.575V665.091H236.327V666.575H239.97C239.923 669.058 238.29 670.624 235.949 670.624C233.385 670.624 231.415 668.68 231.415 665.091C231.415 661.501 233.385 659.558 235.841 659.558C237.838 659.558 239.194 660.685 239.781 662.5ZM248.45 672.216C251.257 672.216 253.146 670.084 253.146 666.872C253.146 663.634 251.257 661.501 248.45 661.501C245.643 661.501 243.754 663.634 243.754 666.872C243.754 670.084 245.643 672.216 248.45 672.216ZM248.45 670.786C246.318 670.786 245.346 668.95 245.346 666.872C245.346 664.794 246.318 662.932 248.45 662.932C250.582 662.932 251.554 664.794 251.554 666.872C251.554 668.95 250.582 670.786 248.45 670.786ZM259.787 672.216C262.594 672.216 264.483 670.084 264.483 666.872C264.483 663.634 262.594 661.501 259.787 661.501C256.98 661.501 255.091 663.634 255.091 666.872C255.091 670.084 256.98 672.216 259.787 672.216ZM259.787 670.786C257.655 670.786 256.683 668.95 256.683 666.872C256.683 664.794 257.655 662.932 259.787 662.932C261.919 662.932 262.89 664.794 262.89 666.872C262.89 668.95 261.919 670.786 259.787 670.786ZM271.097 676.102C273.58 676.102 275.577 674.969 275.577 672.297V661.636H274.038V663.283H273.877C273.526 662.743 272.878 661.501 270.854 661.501C268.236 661.501 266.428 663.58 266.428 666.764C266.428 670.003 268.317 671.838 270.827 671.838C272.851 671.838 273.499 670.651 273.85 670.084H273.984V672.189C273.984 673.916 272.77 674.699 271.097 674.699C269.214 674.699 268.553 673.707 268.128 673.134L266.859 674.024C267.507 675.11 268.782 676.102 271.097 676.102ZM271.043 670.408C269.046 670.408 268.02 668.896 268.02 666.737C268.02 664.632 269.019 662.932 271.043 662.932C272.986 662.932 274.011 664.497 274.011 666.737C274.011 669.031 272.959 670.408 271.043 670.408ZM280.084 658.182H278.492V672H280.084V658.182ZM287.346 672.216C289.451 672.216 290.989 671.163 291.475 669.598L289.936 669.166C289.532 670.246 288.594 670.786 287.346 670.786C285.477 670.786 284.188 669.578 284.114 667.358H291.637V666.683C291.637 662.824 289.343 661.501 287.184 661.501C284.377 661.501 282.515 663.714 282.515 666.899C282.515 670.084 284.35 672.216 287.346 672.216ZM284.114 665.982C284.222 664.369 285.362 662.932 287.184 662.932C288.911 662.932 290.017 664.227 290.017 665.982H284.114Z" fill="#344563"/>
<line x1="35" y1="314.5" x2="351" y2="314.5" stroke="#C4C4C4"/>
<line x1="32" y1="390.5" x2="348" y2="390.5" stroke="#C4C4C4"/>
<line x1="37" y1="456.5" x2="353" y2="456.5" stroke="#C4C4C4"/>
<g clip-path="url(#clip1_76_4)">
<path d="M76.1437 663.799C76.6895 662.089 77.743 660.601 79.1538 659.547C80.5646 658.493 82.2606 657.928 84 657.932C85.9717 657.932 87.7543 658.657 89.1543 659.843L93.2283 655.625C90.7457 653.384 87.5642 652 84 652C78.4817 652 73.731 655.26 71.4467 660.035L76.1437 663.799Z" fill="#EA4335"/>
<path d="M88.7133 673.766C87.4417 674.615 85.827 675.068 84 675.068C82.2676 675.072 80.5779 674.511 79.1703 673.465C77.7626 672.419 76.7083 670.941 76.1565 669.24L71.4432 672.946C72.5996 675.371 74.3893 677.41 76.609 678.834C78.8286 680.258 81.3892 681.008 84 681C87.4218 681 90.6908 679.74 93.1397 677.375L88.7145 673.766H88.7133Z" fill="#34A853"/>
<path d="M93.1397 677.375C95.7005 674.9 97.363 671.217 97.363 666.5C97.363 665.642 97.2358 664.72 97.0457 663.863H84V669.466H91.5087C91.1388 671.35 90.1437 672.809 88.7145 673.766L93.1397 677.375Z" fill="#4A90E2"/>
<path d="M76.1566 669.24C75.8712 668.357 75.7262 667.432 75.7272 666.5C75.7272 665.555 75.8731 664.648 76.1437 663.799L71.4467 660.035C70.4858 662.044 69.9905 664.258 70.0001 666.5C70.0001 668.82 70.5192 671.007 71.4432 672.946L76.1566 669.24Z" fill="#FBBC05"/>
</g>
<path d="M117.821 747.095C117.504 747.12 117.264 747.076 117.099 746.962C116.934 746.848 116.852 746.677 116.852 746.449C116.852 746.031 117.086 745.816 117.555 745.803L118.125 745.765C118.771 745.727 119.252 745.531 119.569 745.176C119.886 744.809 120.044 744.226 120.044 743.428V734.308C120.044 734.067 120.12 733.877 120.272 733.738C120.424 733.586 120.608 733.51 120.823 733.51C121.064 733.51 121.254 733.586 121.393 733.738C121.532 733.877 121.602 734.067 121.602 734.308V743.447C121.602 744.612 121.336 745.493 120.804 746.088C120.272 746.671 119.468 746.994 118.391 747.057L117.821 747.095ZM128.521 747.133C127.647 747.133 126.875 746.937 126.203 746.544C125.545 746.151 125.032 745.594 124.664 744.872C124.31 744.137 124.132 743.289 124.132 742.326C124.132 741.363 124.31 740.521 124.664 739.799C125.032 739.064 125.545 738.501 126.203 738.108C126.875 737.715 127.647 737.519 128.521 737.519C129.395 737.519 130.168 737.715 130.839 738.108C131.511 738.501 132.024 739.064 132.378 739.799C132.746 740.521 132.929 741.363 132.929 742.326C132.929 743.289 132.746 744.137 132.378 744.872C132.024 745.594 131.511 746.151 130.839 746.544C130.168 746.937 129.395 747.133 128.521 747.133ZM128.521 745.86C129.433 745.86 130.13 745.562 130.611 744.967C131.105 744.359 131.352 743.479 131.352 742.326C131.352 741.199 131.105 740.331 130.611 739.723C130.117 739.102 129.421 738.792 128.521 738.792C127.622 738.792 126.925 739.102 126.431 739.723C125.937 740.331 125.69 741.199 125.69 742.326C125.69 743.466 125.931 744.34 126.412 744.948C126.906 745.556 127.609 745.86 128.521 745.86ZM136.001 747.095C135.773 747.095 135.583 747.032 135.431 746.905C135.292 746.766 135.222 746.576 135.222 746.335V738.317C135.222 738.076 135.292 737.893 135.431 737.766C135.583 737.627 135.773 737.557 136.001 737.557C136.229 737.557 136.413 737.627 136.552 737.766C136.692 737.893 136.761 738.076 136.761 738.317V746.335C136.761 746.588 136.692 746.778 136.552 746.905C136.413 747.032 136.229 747.095 136.001 747.095ZM136.001 735.562C135.697 735.562 135.45 735.473 135.26 735.296C135.07 735.119 134.975 734.884 134.975 734.593C134.975 734.314 135.07 734.086 135.26 733.909C135.45 733.732 135.697 733.643 136.001 733.643C136.305 733.643 136.552 733.732 136.742 733.909C136.932 734.086 137.027 734.314 137.027 734.593C137.027 734.884 136.932 735.119 136.742 735.296C136.552 735.473 136.305 735.562 136.001 735.562ZM144.293 737.519C146.51 737.519 147.618 738.741 147.618 741.186V746.335C147.618 746.576 147.549 746.766 147.409 746.905C147.283 747.032 147.099 747.095 146.858 747.095C146.618 747.095 146.428 747.032 146.288 746.905C146.149 746.766 146.079 746.576 146.079 746.335V741.281C146.079 740.42 145.908 739.793 145.566 739.4C145.237 739.007 144.705 738.811 143.97 738.811C143.122 738.811 142.444 739.071 141.937 739.59C141.431 740.109 141.177 740.812 141.177 741.699V746.335C141.177 746.576 141.108 746.766 140.968 746.905C140.842 747.032 140.658 747.095 140.417 747.095C140.177 747.095 139.987 747.032 139.847 746.905C139.708 746.766 139.638 746.576 139.638 746.335V738.317C139.638 738.089 139.708 737.905 139.847 737.766C139.987 737.627 140.177 737.557 140.417 737.557C140.645 737.557 140.823 737.627 140.949 737.766C141.089 737.905 141.158 738.083 141.158 738.298V739.267C141.462 738.697 141.887 738.266 142.431 737.975C142.976 737.671 143.597 737.519 144.293 737.519ZM157.6 744.853C157.74 744.853 157.86 744.91 157.961 745.024C158.063 745.138 158.113 745.284 158.113 745.461C158.113 745.778 157.892 746.069 157.448 746.335C156.992 746.601 156.511 746.804 156.004 746.943C155.498 747.07 155.004 747.133 154.522 747.133C153.091 747.133 151.957 746.709 151.121 745.86C150.298 745.011 149.886 743.84 149.886 742.345C149.886 741.395 150.07 740.559 150.437 739.837C150.805 739.102 151.318 738.532 151.976 738.127C152.648 737.722 153.408 737.519 154.256 737.519C155.46 737.519 156.416 737.912 157.125 738.697C157.835 739.482 158.189 740.546 158.189 741.889C158.189 742.142 158.139 742.326 158.037 742.44C157.936 742.554 157.771 742.611 157.543 742.611H151.425C151.539 744.79 152.572 745.879 154.522 745.879C155.016 745.879 155.441 745.816 155.795 745.689C156.15 745.55 156.53 745.366 156.935 745.138C157.265 744.948 157.486 744.853 157.6 744.853ZM154.275 738.716C153.465 738.716 152.812 738.969 152.318 739.476C151.837 739.983 151.552 740.698 151.463 741.623H156.84C156.815 740.686 156.581 739.97 156.137 739.476C155.694 738.969 155.073 738.716 154.275 738.716ZM167.886 733.51C168.126 733.51 168.316 733.58 168.456 733.719C168.595 733.858 168.665 734.036 168.665 734.251V746.335C168.665 746.563 168.595 746.747 168.456 746.886C168.316 747.025 168.126 747.095 167.886 747.095C167.645 747.095 167.455 747.025 167.316 746.886C167.189 746.747 167.126 746.563 167.126 746.335V745.309C166.847 745.892 166.435 746.341 165.891 746.658C165.359 746.975 164.732 747.133 164.01 747.133C163.199 747.133 162.483 746.93 161.863 746.525C161.242 746.12 160.761 745.556 160.419 744.834C160.077 744.099 159.906 743.251 159.906 742.288C159.906 741.338 160.077 740.502 160.419 739.78C160.761 739.058 161.242 738.501 161.863 738.108C162.483 737.715 163.199 737.519 164.01 737.519C164.732 737.519 165.359 737.677 165.891 737.994C166.435 738.311 166.847 738.76 167.126 739.343V734.251C167.126 734.023 167.189 733.846 167.316 733.719C167.455 733.58 167.645 733.51 167.886 733.51ZM164.314 745.86C165.213 745.86 165.903 745.556 166.385 744.948C166.879 744.327 167.126 743.453 167.126 742.326C167.126 741.199 166.879 740.331 166.385 739.723C165.903 739.115 165.213 738.811 164.314 738.811C163.414 738.811 162.711 739.115 162.205 739.723C161.711 740.331 161.464 741.186 161.464 742.288C161.464 743.415 161.711 744.296 162.205 744.929C162.711 745.55 163.414 745.86 164.314 745.86ZM183.444 737.557C183.684 737.557 183.868 737.627 183.995 737.766C184.134 737.905 184.204 738.089 184.204 738.317V746.354C184.204 746.569 184.134 746.747 183.995 746.886C183.868 747.025 183.684 747.095 183.444 747.095C183.216 747.095 183.032 747.032 182.893 746.905C182.766 746.766 182.703 746.588 182.703 746.373V745.423C182.411 745.98 182 746.405 181.468 746.696C180.948 746.987 180.359 747.133 179.701 747.133C178.599 747.133 177.769 746.829 177.212 746.221C176.654 745.6 176.376 744.688 176.376 743.485V738.317C176.376 738.089 176.445 737.905 176.585 737.766C176.724 737.627 176.914 737.557 177.155 737.557C177.395 737.557 177.579 737.627 177.706 737.766C177.845 737.905 177.915 738.089 177.915 738.317V743.447C177.915 744.27 178.079 744.878 178.409 745.271C178.738 745.651 179.257 745.841 179.967 745.841C180.777 745.841 181.43 745.581 181.924 745.062C182.418 744.53 182.665 743.833 182.665 742.972V738.317C182.665 738.089 182.734 737.905 182.874 737.766C183.013 737.627 183.203 737.557 183.444 737.557ZM190.18 747.133C189.597 747.133 189.04 747.063 188.508 746.924C187.989 746.785 187.526 746.588 187.121 746.335C186.893 746.183 186.728 746.044 186.627 745.917C186.538 745.778 186.494 745.613 186.494 745.423C186.494 745.258 186.538 745.125 186.627 745.024C186.728 744.91 186.855 744.853 187.007 744.853C187.159 744.853 187.381 744.948 187.672 745.138C188.052 745.366 188.426 745.55 188.793 745.689C189.173 745.816 189.642 745.879 190.199 745.879C190.883 745.879 191.415 745.759 191.795 745.518C192.175 745.277 192.365 744.929 192.365 744.473C192.365 744.194 192.295 743.973 192.156 743.808C192.017 743.631 191.776 743.479 191.434 743.352C191.092 743.213 190.592 743.073 189.933 742.934C188.818 742.693 188.02 742.37 187.539 741.965C187.058 741.56 186.817 741.009 186.817 740.312C186.817 739.767 186.969 739.286 187.273 738.868C187.577 738.45 187.995 738.121 188.527 737.88C189.072 737.639 189.686 737.519 190.37 737.519C190.864 737.519 191.339 737.589 191.795 737.728C192.264 737.855 192.675 738.038 193.03 738.279C193.461 738.583 193.676 738.9 193.676 739.229C193.676 739.394 193.625 739.533 193.524 739.647C193.423 739.761 193.302 739.818 193.163 739.818C193.011 739.818 192.783 739.71 192.479 739.495C192.124 739.267 191.789 739.09 191.472 738.963C191.155 738.836 190.763 738.773 190.294 738.773C189.699 738.773 189.217 738.906 188.85 739.172C188.495 739.438 188.318 739.793 188.318 740.236C188.318 740.515 188.381 740.743 188.508 740.92C188.647 741.085 188.869 741.237 189.173 741.376C189.49 741.503 189.939 741.629 190.522 741.756C191.383 741.946 192.048 742.155 192.517 742.383C192.998 742.611 193.34 742.89 193.543 743.219C193.746 743.548 193.847 743.966 193.847 744.473C193.847 745.271 193.511 745.917 192.84 746.411C192.169 746.892 191.282 747.133 190.18 747.133ZM205.747 737.519C206.557 737.519 207.273 737.715 207.894 738.108C208.514 738.501 208.996 739.058 209.338 739.78C209.68 740.502 209.851 741.338 209.851 742.288C209.851 743.251 209.68 744.099 209.338 744.834C208.996 745.556 208.514 746.12 207.894 746.525C207.273 746.93 206.557 747.133 205.747 747.133C205.025 747.133 204.391 746.975 203.847 746.658C203.315 746.341 202.909 745.892 202.631 745.309V746.335C202.631 746.563 202.561 746.747 202.422 746.886C202.295 747.025 202.111 747.095 201.871 747.095C201.63 747.095 201.44 747.025 201.301 746.886C201.161 746.747 201.092 746.563 201.092 746.335V734.251C201.092 734.036 201.161 733.858 201.301 733.719C201.44 733.58 201.63 733.51 201.871 733.51C202.111 733.51 202.295 733.58 202.422 733.719C202.561 733.846 202.631 734.023 202.631 734.251V739.343C202.909 738.76 203.315 738.311 203.847 737.994C204.391 737.677 205.025 737.519 205.747 737.519ZM205.443 745.86C206.342 745.86 207.039 745.55 207.533 744.929C208.027 744.296 208.274 743.415 208.274 742.288C208.274 741.186 208.027 740.331 207.533 739.723C207.039 739.115 206.342 738.811 205.443 738.811C204.543 738.811 203.847 739.115 203.353 739.723C202.871 740.331 202.631 741.199 202.631 742.326C202.631 743.453 202.871 744.327 203.353 744.948C203.847 745.556 204.543 745.86 205.443 745.86ZM219.313 744.853C219.452 744.853 219.573 744.91 219.674 745.024C219.775 745.138 219.826 745.284 219.826 745.461C219.826 745.778 219.604 746.069 219.161 746.335C218.705 746.601 218.224 746.804 217.717 746.943C217.21 747.07 216.716 747.133 216.235 747.133C214.804 747.133 213.67 746.709 212.834 745.86C212.011 745.011 211.599 743.84 211.599 742.345C211.599 741.395 211.783 740.559 212.15 739.837C212.517 739.102 213.03 738.532 213.689 738.127C214.36 737.722 215.12 737.519 215.969 737.519C217.172 737.519 218.129 737.912 218.838 738.697C219.547 739.482 219.902 740.546 219.902 741.889C219.902 742.142 219.851 742.326 219.75 742.44C219.649 742.554 219.484 742.611 219.256 742.611H213.138C213.252 744.79 214.284 745.879 216.235 745.879C216.729 745.879 217.153 745.816 217.508 745.689C217.863 745.55 218.243 745.366 218.648 745.138C218.977 744.948 219.199 744.853 219.313 744.853ZM215.988 738.716C215.177 738.716 214.525 738.969 214.031 739.476C213.55 739.983 213.265 740.698 213.176 741.623H218.553C218.528 740.686 218.293 739.97 217.85 739.476C217.407 738.969 216.786 738.716 215.988 738.716ZM226.236 734.821C225.565 734.872 225.058 735.087 224.716 735.467C224.374 735.834 224.203 736.392 224.203 737.139V737.747H226.312C226.527 737.747 226.692 737.804 226.806 737.918C226.92 738.032 226.977 738.184 226.977 738.374C226.977 738.564 226.92 738.71 226.806 738.811C226.692 738.912 226.527 738.963 226.312 738.963H224.203V746.335C224.203 746.576 224.127 746.766 223.975 746.905C223.836 747.032 223.658 747.095 223.443 747.095C223.215 747.095 223.025 747.032 222.873 746.905C222.734 746.766 222.664 746.576 222.664 746.335V738.963H221.391C221.176 738.963 221.005 738.912 220.878 738.811C220.764 738.697 220.707 738.551 220.707 738.374C220.707 738.184 220.764 738.032 220.878 737.918C221.005 737.804 221.176 737.747 221.391 737.747H222.664V737.405C222.664 736.265 222.949 735.372 223.519 734.726C224.089 734.067 224.906 733.7 225.97 733.624L226.464 733.586C226.793 733.561 227.028 733.592 227.167 733.681C227.319 733.77 227.395 733.928 227.395 734.156C227.395 734.523 227.173 734.732 226.73 734.783L226.236 734.821ZM232.131 747.133C231.257 747.133 230.484 746.937 229.813 746.544C229.154 746.151 228.641 745.594 228.274 744.872C227.919 744.137 227.742 743.289 227.742 742.326C227.742 741.363 227.919 740.521 228.274 739.799C228.641 739.064 229.154 738.501 229.813 738.108C230.484 737.715 231.257 737.519 232.131 737.519C233.005 737.519 233.777 737.715 234.449 738.108C235.12 738.501 235.633 739.064 235.988 739.799C236.355 740.521 236.539 741.363 236.539 742.326C236.539 743.289 236.355 744.137 235.988 744.872C235.633 745.594 235.12 746.151 234.449 746.544C233.777 746.937 233.005 747.133 232.131 747.133ZM232.131 745.86C233.043 745.86 233.739 745.562 234.221 744.967C234.715 744.359 234.962 743.479 234.962 742.326C234.962 741.199 234.715 740.331 234.221 739.723C233.727 739.102 233.03 738.792 232.131 738.792C231.231 738.792 230.535 739.102 230.041 739.723C229.547 740.331 229.3 741.199 229.3 742.326C229.3 743.466 229.54 744.34 230.022 744.948C230.516 745.556 231.219 745.86 232.131 745.86ZM243.411 737.557C243.943 737.519 244.209 737.734 244.209 738.203C244.209 738.406 244.152 738.57 244.038 738.697C243.924 738.811 243.727 738.881 243.449 738.906L242.879 738.963C242.03 739.039 241.397 739.343 240.979 739.875C240.573 740.394 240.371 741.009 240.371 741.718V746.335C240.371 746.588 240.301 746.778 240.162 746.905C240.022 747.032 239.839 747.095 239.611 747.095C239.383 747.095 239.193 747.032 239.041 746.905C238.901 746.766 238.832 746.576 238.832 746.335V738.317C238.832 738.076 238.908 737.893 239.06 737.766C239.212 737.627 239.395 737.557 239.611 737.557C239.813 737.557 239.984 737.627 240.124 737.766C240.263 737.893 240.333 738.07 240.333 738.298V739.362C240.599 738.805 240.972 738.38 241.454 738.089C241.948 737.798 242.511 737.627 243.145 737.576L243.411 737.557ZM252.507 744.853C252.647 744.853 252.767 744.91 252.868 745.024C252.97 745.138 253.02 745.284 253.02 745.461C253.02 745.778 252.799 746.069 252.355 746.335C251.899 746.601 251.418 746.804 250.911 746.943C250.405 747.07 249.911 747.133 249.429 747.133C247.998 747.133 246.864 746.709 246.028 745.86C245.205 745.011 244.793 743.84 244.793 742.345C244.793 741.395 244.977 740.559 245.344 739.837C245.712 739.102 246.225 738.532 246.883 738.127C247.555 737.722 248.315 737.519 249.163 737.519C250.367 737.519 251.323 737.912 252.032 738.697C252.742 739.482 253.096 740.546 253.096 741.889C253.096 742.142 253.046 742.326 252.944 742.44C252.843 742.554 252.678 742.611 252.45 742.611H246.332C246.446 744.79 247.479 745.879 249.429 745.879C249.923 745.879 250.348 745.816 250.702 745.689C251.057 745.55 251.437 745.366 251.842 745.138C252.172 744.948 252.393 744.853 252.507 744.853ZM249.182 738.716C248.372 738.716 247.719 738.969 247.225 739.476C246.744 739.983 246.459 740.698 246.37 741.623H251.747C251.722 740.686 251.488 739.97 251.044 739.476C250.601 738.969 249.98 738.716 249.182 738.716Z" fill="black"/>
<path d="M162.334 773.152C161.384 773.152 160.472 773.013 159.598 772.734C158.737 772.443 158.047 772.056 157.527 771.575C157.337 771.398 157.242 771.176 157.242 770.91C157.242 770.733 157.293 770.581 157.394 770.454C157.496 770.315 157.616 770.245 157.755 770.245C157.92 770.245 158.097 770.315 158.287 770.454C159.465 771.366 160.808 771.822 162.315 771.822C163.405 771.822 164.241 771.613 164.823 771.195C165.406 770.777 165.697 770.182 165.697 769.409C165.697 768.966 165.558 768.611 165.279 768.345C165.001 768.066 164.633 767.845 164.177 767.68C163.721 767.515 163.107 767.344 162.334 767.167C161.296 766.926 160.441 766.673 159.769 766.407C159.111 766.141 158.572 765.761 158.154 765.267C157.749 764.773 157.546 764.127 157.546 763.329C157.546 762.569 157.749 761.898 158.154 761.315C158.572 760.72 159.149 760.264 159.883 759.947C160.631 759.618 161.479 759.453 162.429 759.453C163.316 759.453 164.139 759.592 164.899 759.871C165.672 760.137 166.318 760.523 166.837 761.03C167.04 761.233 167.141 761.454 167.141 761.695C167.141 761.872 167.091 762.031 166.989 762.17C166.888 762.297 166.768 762.36 166.628 762.36C166.489 762.36 166.305 762.29 166.077 762.151C165.457 761.644 164.88 761.29 164.348 761.087C163.816 760.884 163.177 760.783 162.429 760.783C161.378 760.783 160.561 761.005 159.978 761.448C159.396 761.879 159.104 762.487 159.104 763.272C159.104 763.943 159.358 764.45 159.864 764.792C160.384 765.121 161.175 765.413 162.239 765.666C163.392 765.945 164.298 766.204 164.956 766.445C165.615 766.673 166.16 767.021 166.59 767.49C167.034 767.959 167.255 768.586 167.255 769.371C167.255 770.118 167.046 770.777 166.628 771.347C166.223 771.917 165.647 772.36 164.899 772.677C164.152 772.994 163.297 773.152 162.334 773.152ZM170.337 773.095C170.109 773.095 169.919 773.032 169.767 772.905C169.627 772.766 169.558 772.576 169.558 772.335V764.317C169.558 764.076 169.627 763.893 169.767 763.766C169.919 763.627 170.109 763.557 170.337 763.557C170.565 763.557 170.748 763.627 170.888 763.766C171.027 763.893 171.097 764.076 171.097 764.317V772.335C171.097 772.588 171.027 772.778 170.888 772.905C170.748 773.032 170.565 773.095 170.337 773.095ZM170.337 761.562C170.033 761.562 169.786 761.473 169.596 761.296C169.406 761.119 169.311 760.884 169.311 760.593C169.311 760.314 169.406 760.086 169.596 759.909C169.786 759.732 170.033 759.643 170.337 759.643C170.641 759.643 170.888 759.732 171.078 759.909C171.268 760.086 171.363 760.314 171.363 760.593C171.363 760.884 171.268 761.119 171.078 761.296C170.888 761.473 170.641 761.562 170.337 761.562ZM181.479 763.557C181.719 763.557 181.909 763.627 182.049 763.766C182.188 763.905 182.258 764.089 182.258 764.317V772.373C182.258 773.754 181.903 774.792 181.194 775.489C180.484 776.198 179.433 776.553 178.04 776.553C176.684 776.553 175.557 776.287 174.658 775.755C174.202 775.502 173.974 775.21 173.974 774.881C173.974 774.704 174.018 774.558 174.107 774.444C174.208 774.33 174.335 774.273 174.487 774.273C174.613 774.273 174.841 774.362 175.171 774.539C175.614 774.767 176.051 774.951 176.482 775.09C176.912 775.229 177.425 775.299 178.021 775.299C178.92 775.299 179.598 775.058 180.054 774.577C180.51 774.108 180.738 773.418 180.738 772.506V770.872C180.472 771.467 180.06 771.923 179.503 772.24C178.958 772.557 178.312 772.715 177.565 772.715C176.754 772.715 176.032 772.525 175.399 772.145C174.778 771.765 174.29 771.227 173.936 770.53C173.594 769.833 173.423 769.029 173.423 768.117C173.423 767.205 173.594 766.401 173.936 765.704C174.29 765.007 174.778 764.469 175.399 764.089C176.032 763.709 176.754 763.519 177.565 763.519C178.299 763.519 178.939 763.677 179.484 763.994C180.028 764.311 180.44 764.76 180.719 765.343V764.317C180.719 764.089 180.782 763.905 180.909 763.766C181.048 763.627 181.238 763.557 181.479 763.557ZM177.869 771.442C178.755 771.442 179.452 771.151 179.959 770.568C180.465 769.973 180.719 769.156 180.719 768.117C180.719 767.091 180.465 766.287 179.959 765.704C179.465 765.109 178.768 764.811 177.869 764.811C176.969 764.811 176.26 765.109 175.741 765.704C175.234 766.287 174.981 767.091 174.981 768.117C174.981 769.156 175.234 769.973 175.741 770.568C176.26 771.151 176.969 771.442 177.869 771.442ZM189.762 763.519C191.978 763.519 193.087 764.741 193.087 767.186V772.335C193.087 772.576 193.017 772.766 192.878 772.905C192.751 773.032 192.567 773.095 192.327 773.095C192.086 773.095 191.896 773.032 191.757 772.905C191.617 772.766 191.548 772.576 191.548 772.335V767.281C191.548 766.42 191.377 765.793 191.035 765.4C190.705 765.007 190.173 764.811 189.439 764.811C188.59 764.811 187.912 765.071 187.406 765.59C186.899 766.109 186.646 766.812 186.646 767.699V772.335C186.646 772.576 186.576 772.766 186.437 772.905C186.31 773.032 186.126 773.095 185.886 773.095C185.645 773.095 185.455 773.032 185.316 772.905C185.176 772.766 185.107 772.576 185.107 772.335V764.317C185.107 764.089 185.176 763.905 185.316 763.766C185.455 763.627 185.645 763.557 185.886 763.557C186.114 763.557 186.291 763.627 186.418 763.766C186.557 763.905 186.627 764.083 186.627 764.298V765.267C186.931 764.697 187.355 764.266 187.9 763.975C188.444 763.671 189.065 763.519 189.762 763.519ZM201.583 773.095C201.355 773.095 201.165 773.032 201.013 772.905C200.874 772.766 200.804 772.576 200.804 772.335V764.317C200.804 764.076 200.874 763.893 201.013 763.766C201.165 763.627 201.355 763.557 201.583 763.557C201.811 763.557 201.995 763.627 202.134 763.766C202.273 763.893 202.343 764.076 202.343 764.317V772.335C202.343 772.588 202.273 772.778 202.134 772.905C201.995 773.032 201.811 773.095 201.583 773.095ZM201.583 761.562C201.279 761.562 201.032 761.473 200.842 761.296C200.652 761.119 200.557 760.884 200.557 760.593C200.557 760.314 200.652 760.086 200.842 759.909C201.032 759.732 201.279 759.643 201.583 759.643C201.887 759.643 202.134 759.732 202.324 759.909C202.514 760.086 202.609 760.314 202.609 760.593C202.609 760.884 202.514 761.119 202.324 761.296C202.134 761.473 201.887 761.562 201.583 761.562ZM209.875 763.519C212.092 763.519 213.2 764.741 213.2 767.186V772.335C213.2 772.576 213.13 772.766 212.991 772.905C212.864 773.032 212.681 773.095 212.44 773.095C212.199 773.095 212.009 773.032 211.87 772.905C211.731 772.766 211.661 772.576 211.661 772.335V767.281C211.661 766.42 211.49 765.793 211.148 765.4C210.819 765.007 210.287 764.811 209.552 764.811C208.703 764.811 208.026 765.071 207.519 765.59C207.012 766.109 206.759 766.812 206.759 767.699V772.335C206.759 772.576 206.689 772.766 206.55 772.905C206.423 773.032 206.24 773.095 205.999 773.095C205.758 773.095 205.568 773.032 205.429 772.905C205.29 772.766 205.22 772.576 205.22 772.335V764.317C205.22 764.089 205.29 763.905 205.429 763.766C205.568 763.627 205.758 763.557 205.999 763.557C206.227 763.557 206.404 763.627 206.531 763.766C206.67 763.905 206.74 764.083 206.74 764.298V765.267C207.044 764.697 207.468 764.266 208.013 763.975C208.558 763.671 209.178 763.519 209.875 763.519Z" fill="#1A5EDE"/>
<path d="M33.0568 575H36.2102C38.2727 575 39.125 573.994 39.125 572.682C39.125 571.301 38.1705 570.551 37.3693 570.5V570.415C38.1193 570.21 38.7841 569.716 38.7841 568.591C38.7841 567.312 37.9318 566.273 36.108 566.273H33.0568V575ZM34.1136 574.062V571.028H36.2614C37.4034 571.028 38.1193 571.795 38.1193 572.682C38.1193 573.449 37.5909 574.062 36.2102 574.062H34.1136ZM34.1136 570.108V567.21H36.108C37.267 567.21 37.7784 567.824 37.7784 568.591C37.7784 569.511 37.0284 570.108 36.0739 570.108H34.1136ZM41.3729 577.455C42.2805 577.455 42.9197 576.973 43.299 575.955L46.0859 568.472L44.9865 568.455L43.1797 573.67H43.1115L41.3047 568.455H40.2138L42.6342 575.034L42.4467 575.545C42.0803 576.543 41.6286 576.636 40.8956 576.449L40.6399 577.335C40.7422 577.386 41.032 577.455 41.3729 577.455ZM53.4506 575.136C54.8995 575.136 55.854 574.25 56.0245 573.091H55.0188C54.8313 573.807 54.2347 574.233 53.4506 574.233C52.2575 574.233 51.4904 573.244 51.4904 571.727C51.4904 570.244 52.2745 569.273 53.4506 569.273C54.337 569.273 54.8654 569.818 55.0188 570.415H56.0245C55.854 569.188 54.8143 568.369 53.4336 568.369C51.6609 568.369 50.4847 569.767 50.4847 571.761C50.4847 573.722 51.6097 575.136 53.4506 575.136ZM58.5004 566.273H57.4947V575H58.5004V566.273ZM60.3423 575H61.348V568.455H60.3423V575ZM60.8537 567.364C61.2457 567.364 61.5696 567.057 61.5696 566.682C61.5696 566.307 61.2457 566 60.8537 566C60.4616 566 60.1378 566.307 60.1378 566.682C60.1378 567.057 60.4616 567.364 60.8537 567.364ZM65.8491 575.136C67.2979 575.136 68.2525 574.25 68.4229 573.091H67.4173C67.2298 573.807 66.6332 574.233 65.8491 574.233C64.6559 574.233 63.8888 573.244 63.8888 571.727C63.8888 570.244 64.6729 569.273 65.8491 569.273C66.7354 569.273 67.2638 569.818 67.4173 570.415H68.4229C68.2525 569.188 67.2127 568.369 65.832 568.369C64.0593 568.369 62.8832 569.767 62.8832 571.761C62.8832 573.722 64.0082 575.136 65.8491 575.136ZM69.8931 575H70.8988V572.55L71.6019 571.898L74.0522 575H75.3306L72.3604 571.25L75.1261 568.455H73.8817L71.0181 571.369H70.8988V566.273H69.8931V575ZM76.4205 575H77.4261V568.455H76.4205V575ZM76.9318 567.364C77.3239 567.364 77.6477 567.057 77.6477 566.682C77.6477 566.307 77.3239 566 76.9318 566C76.5398 566 76.2159 566.307 76.2159 566.682C76.2159 567.057 76.5398 567.364 76.9318 567.364ZM80.2738 571.062C80.2738 569.92 80.9812 569.273 81.9442 569.273C82.8775 569.273 83.4442 569.882 83.4442 570.909V575H84.4499V570.841C84.4499 569.17 83.5593 568.369 82.234 568.369C81.2454 568.369 80.6317 568.812 80.3249 569.477H80.2397V568.455H79.2681V575H80.2738V571.062ZM88.9297 577.591C90.4979 577.591 91.7592 576.875 91.7592 575.188V568.455H90.7876V569.494H90.6854C90.4638 569.153 90.0547 568.369 88.7763 568.369C87.1229 568.369 85.9808 569.682 85.9808 571.693C85.9808 573.739 87.174 574.898 88.7592 574.898C90.0376 574.898 90.4467 574.148 90.6683 573.79H90.7536V575.119C90.7536 576.21 89.9865 576.705 88.9297 576.705C87.7408 576.705 87.3232 576.078 87.0547 575.716L86.2536 576.278C86.6626 576.964 87.468 577.591 88.9297 577.591ZM88.8956 573.994C87.6342 573.994 86.9865 573.04 86.9865 571.676C86.9865 570.347 87.6172 569.273 88.8956 569.273C90.1229 569.273 90.7706 570.261 90.7706 571.676C90.7706 573.125 90.1058 573.994 88.8956 573.994ZM101.612 569.92C101.296 568.991 100.589 568.369 99.2933 568.369C97.9126 568.369 96.8899 569.153 96.8899 570.261C96.8899 571.165 97.4268 571.77 98.6286 572.051L99.7195 572.307C100.38 572.46 100.691 572.776 100.691 573.227C100.691 573.79 100.094 574.25 99.157 574.25C98.3345 574.25 97.8189 573.896 97.6399 573.193L96.6854 573.432C96.9197 574.544 97.8359 575.136 99.174 575.136C100.695 575.136 101.731 574.305 101.731 573.176C101.731 572.264 101.16 571.689 99.9922 571.403L99.0206 571.165C98.245 570.973 97.8956 570.713 97.8956 570.21C97.8956 569.648 98.4922 569.239 99.2933 569.239C100.171 569.239 100.533 569.724 100.708 570.176L101.612 569.92ZM103.245 575H104.25V568.455H103.245V575ZM103.756 567.364C104.148 567.364 104.472 567.057 104.472 566.682C104.472 566.307 104.148 566 103.756 566C103.364 566 103.04 566.307 103.04 566.682C103.04 567.057 103.364 567.364 103.756 567.364ZM108.734 577.591C110.303 577.591 111.564 576.875 111.564 575.188V568.455H110.592V569.494H110.49C110.268 569.153 109.859 568.369 108.581 568.369C106.928 568.369 105.786 569.682 105.786 571.693C105.786 573.739 106.979 574.898 108.564 574.898C109.842 574.898 110.251 574.148 110.473 573.79H110.558V575.119C110.558 576.21 109.791 576.705 108.734 576.705C107.545 576.705 107.128 576.078 106.859 575.716L106.058 576.278C106.467 576.964 107.273 577.591 108.734 577.591ZM108.7 573.994C107.439 573.994 106.791 573.04 106.791 571.676C106.791 570.347 107.422 569.273 108.7 569.273C109.928 569.273 110.575 570.261 110.575 571.676C110.575 573.125 109.911 573.994 108.7 573.994ZM114.411 571.062C114.411 569.92 115.118 569.273 116.081 569.273C117.014 569.273 117.581 569.882 117.581 570.909V575H118.587V570.841C118.587 569.17 117.696 568.369 116.371 568.369C115.382 568.369 114.768 568.812 114.462 569.477H114.376V568.455H113.405V575H114.411V571.062ZM127.924 572.324C127.924 573.551 126.987 574.114 126.237 574.114C125.402 574.114 124.805 573.5 124.805 572.545V568.455H123.799V572.614C123.799 574.284 124.686 575.085 125.913 575.085C126.902 575.085 127.549 574.557 127.856 573.892H127.924V575H128.93V568.455H127.924V572.324ZM130.772 577.455H131.778V573.994H131.863C132.085 574.352 132.511 575.136 133.772 575.136C135.408 575.136 136.55 573.824 136.55 571.744C136.55 569.682 135.408 568.369 133.755 568.369C132.477 568.369 132.085 569.153 131.863 569.494H131.744V568.455H130.772V577.455ZM131.761 571.727C131.761 570.261 132.408 569.273 133.636 569.273C134.914 569.273 135.545 570.347 135.545 571.727C135.545 573.125 134.897 574.233 133.636 574.233C132.425 574.233 131.761 573.21 131.761 571.727ZM142.107 577.455C143.015 577.455 143.654 576.973 144.033 575.955L146.82 568.472L145.721 568.455L143.914 573.67H143.846L142.039 568.455H140.948L143.369 575.034L143.181 575.545C142.815 576.543 142.363 576.636 141.63 576.449L141.374 577.335C141.477 577.386 141.766 577.455 142.107 577.455ZM150.576 575.136C152.348 575.136 153.542 573.79 153.542 571.761C153.542 569.716 152.348 568.369 150.576 568.369C148.803 568.369 147.61 569.716 147.61 571.761C147.61 573.79 148.803 575.136 150.576 575.136ZM150.576 574.233C149.229 574.233 148.615 573.074 148.615 571.761C148.615 570.449 149.229 569.273 150.576 569.273C151.922 569.273 152.536 570.449 152.536 571.761C152.536 573.074 151.922 574.233 150.576 574.233ZM159.202 572.324C159.202 573.551 158.264 574.114 157.514 574.114C156.679 574.114 156.082 573.5 156.082 572.545V568.455H155.077V572.614C155.077 574.284 155.963 575.085 157.19 575.085C158.179 575.085 158.827 574.557 159.134 573.892H159.202V575H160.207V568.455H159.202V572.324ZM167.35 575.153C168.493 575.153 169.089 574.54 169.294 574.114H169.345V575H170.35V570.688C170.35 568.608 168.765 568.369 167.93 568.369C166.941 568.369 165.816 568.71 165.305 569.903L166.26 570.244C166.481 569.767 167.005 569.256 167.964 569.256C168.889 569.256 169.345 569.746 169.345 570.585V570.619C169.345 571.105 168.85 571.062 167.657 571.216C166.443 571.374 165.118 571.642 165.118 573.142C165.118 574.42 166.106 575.153 167.35 575.153ZM167.504 574.25C166.703 574.25 166.123 573.892 166.123 573.193C166.123 572.426 166.822 572.188 167.606 572.085C168.032 572.034 169.174 571.915 169.345 571.71V572.631C169.345 573.449 168.697 574.25 167.504 574.25ZM174.828 577.591C176.396 577.591 177.658 576.875 177.658 575.188V568.455H176.686V569.494H176.584C176.362 569.153 175.953 568.369 174.675 568.369C173.021 568.369 171.879 569.682 171.879 571.693C171.879 573.739 173.072 574.898 174.658 574.898C175.936 574.898 176.345 574.148 176.567 573.79H176.652V575.119C176.652 576.21 175.885 576.705 174.828 576.705C173.639 576.705 173.222 576.078 172.953 575.716L172.152 576.278C172.561 576.964 173.366 577.591 174.828 577.591ZM174.794 573.994C173.533 573.994 172.885 573.04 172.885 571.676C172.885 570.347 173.516 569.273 174.794 569.273C176.021 569.273 176.669 570.261 176.669 571.676C176.669 573.125 176.004 573.994 174.794 573.994ZM179.499 575H180.504V570.858C180.504 569.972 181.203 569.324 182.158 569.324C182.426 569.324 182.703 569.375 182.771 569.392V568.369C182.656 568.361 182.392 568.352 182.243 568.352C181.459 568.352 180.777 568.795 180.538 569.443H180.47V568.455H179.499V575ZM186.509 575.136C187.838 575.136 188.81 574.472 189.116 573.483L188.145 573.21C187.889 573.892 187.297 574.233 186.509 574.233C185.328 574.233 184.514 573.47 184.467 572.068H189.219V571.642C189.219 569.205 187.77 568.369 186.406 568.369C184.634 568.369 183.457 569.767 183.457 571.778C183.457 573.79 184.616 575.136 186.509 575.136ZM184.467 571.199C184.536 570.18 185.256 569.273 186.406 569.273C187.497 569.273 188.196 570.091 188.196 571.199H184.467ZM193.493 575.136C194.822 575.136 195.794 574.472 196.101 573.483L195.129 573.21C194.874 573.892 194.281 574.233 193.493 574.233C192.312 574.233 191.499 573.47 191.452 572.068H196.203V571.642C196.203 569.205 194.754 568.369 193.391 568.369C191.618 568.369 190.442 569.767 190.442 571.778C190.442 573.79 191.601 575.136 193.493 575.136ZM191.452 571.199C191.52 570.18 192.24 569.273 193.391 569.273C194.482 569.273 195.18 570.091 195.18 571.199H191.452ZM203.955 568.455H202.557V566.886H201.551V568.455H200.562V569.307H201.551V573.398C201.551 574.54 202.472 575.085 203.324 575.085C203.699 575.085 203.938 575.017 204.074 574.966L203.869 574.062C203.784 574.08 203.648 574.114 203.426 574.114C202.983 574.114 202.557 573.977 202.557 573.125V569.307H203.955V568.455ZM208.056 575.136C209.829 575.136 211.022 573.79 211.022 571.761C211.022 569.716 209.829 568.369 208.056 568.369C206.283 568.369 205.09 569.716 205.09 571.761C205.09 573.79 206.283 575.136 208.056 575.136ZM208.056 574.233C206.71 574.233 206.096 573.074 206.096 571.761C206.096 570.449 206.71 569.273 208.056 569.273C209.403 569.273 210.016 570.449 210.016 571.761C210.016 573.074 209.403 574.233 208.056 574.233ZM218.591 575.136C220.364 575.136 221.557 573.79 221.557 571.761C221.557 569.716 220.364 568.369 218.591 568.369C216.819 568.369 215.625 569.716 215.625 571.761C215.625 573.79 216.819 575.136 218.591 575.136ZM218.591 574.233C217.245 574.233 216.631 573.074 216.631 571.761C216.631 570.449 217.245 569.273 218.591 569.273C219.938 569.273 220.551 570.449 220.551 571.761C220.551 573.074 219.938 574.233 218.591 574.233ZM227.217 572.324C227.217 573.551 226.28 574.114 225.53 574.114C224.695 574.114 224.098 573.5 224.098 572.545V568.455H223.092V572.614C223.092 574.284 223.979 575.085 225.206 575.085C226.195 575.085 226.842 574.557 227.149 573.892H227.217V575H228.223V568.455H227.217V572.324ZM230.065 575H231.071V570.858C231.071 569.972 231.77 569.324 232.724 569.324C232.993 569.324 233.27 569.375 233.338 569.392V568.369C233.223 568.361 232.958 568.352 232.809 568.352C232.025 568.352 231.343 568.795 231.105 569.443H231.037V568.455H230.065V575ZM238.041 575H239.098V571.812H241.007C243.04 571.812 243.956 570.577 243.956 569.034C243.956 567.491 243.04 566.273 240.99 566.273H238.041V575ZM239.098 570.875V567.21H240.956C242.375 567.21 242.916 567.986 242.916 569.034C242.916 570.082 242.375 570.875 240.973 570.875H239.098ZM245.522 575H246.528V570.858C246.528 569.972 247.227 569.324 248.181 569.324C248.45 569.324 248.727 569.375 248.795 569.392V568.369C248.68 568.361 248.415 568.352 248.266 568.352C247.482 568.352 246.8 568.795 246.562 569.443H246.494V568.455H245.522V575ZM249.987 575H250.993V568.455H249.987V575ZM250.498 567.364C250.89 567.364 251.214 567.057 251.214 566.682C251.214 566.307 250.89 566 250.498 566C250.106 566 249.782 566.307 249.782 566.682C249.782 567.057 250.106 567.364 250.498 567.364ZM258.187 568.455H257.096L255.289 573.67H255.221L253.414 568.455H252.323L254.744 575H255.766L258.187 568.455ZM261.241 575.153C262.383 575.153 262.98 574.54 263.184 574.114H263.235V575H264.241V570.688C264.241 568.608 262.656 568.369 261.821 568.369C260.832 568.369 259.707 568.71 259.196 569.903L260.15 570.244C260.372 569.767 260.896 569.256 261.855 569.256C262.779 569.256 263.235 569.746 263.235 570.585V570.619C263.235 571.105 262.741 571.062 261.548 571.216C260.333 571.374 259.008 571.642 259.008 573.142C259.008 574.42 259.997 575.153 261.241 575.153ZM261.395 574.25C260.593 574.25 260.014 573.892 260.014 573.193C260.014 572.426 260.713 572.188 261.497 572.085C261.923 572.034 263.065 571.915 263.235 571.71V572.631C263.235 573.449 262.588 574.25 261.395 574.25ZM268.736 575.136C270.185 575.136 271.139 574.25 271.31 573.091H270.304C270.116 573.807 269.52 574.233 268.736 574.233C267.543 574.233 266.776 573.244 266.776 571.727C266.776 570.244 267.56 569.273 268.736 569.273C269.622 569.273 270.151 569.818 270.304 570.415H271.31C271.139 569.188 270.099 568.369 268.719 568.369C266.946 568.369 265.77 569.767 265.77 571.761C265.77 573.722 266.895 575.136 268.736 575.136ZM273.428 577.455C274.335 577.455 274.974 576.973 275.354 575.955L278.141 568.472L277.041 568.455L275.234 573.67H275.166L273.359 568.455H272.268L274.689 575.034L274.501 575.545C274.135 576.543 273.683 576.636 272.95 576.449L272.695 577.335C272.797 577.386 273.087 577.455 273.428 577.455ZM282.983 575H284.039V571.812H285.949C287.981 571.812 288.897 570.577 288.897 569.034C288.897 567.491 287.981 566.273 285.931 566.273H282.983V575ZM284.039 570.875V567.21H285.897C287.316 567.21 287.858 567.986 287.858 569.034C287.858 570.082 287.316 570.875 285.914 570.875H284.039ZM293.052 575.136C294.825 575.136 296.018 573.79 296.018 571.761C296.018 569.716 294.825 568.369 293.052 568.369C291.279 568.369 290.086 569.716 290.086 571.761C290.086 573.79 291.279 575.136 293.052 575.136ZM293.052 574.233C291.706 574.233 291.092 573.074 291.092 571.761C291.092 570.449 291.706 569.273 293.052 569.273C294.399 569.273 295.012 570.449 295.012 571.761C295.012 573.074 294.399 574.233 293.052 574.233ZM298.559 566.273H297.553V575H298.559V566.273ZM300.401 575H301.407V568.455H300.401V575ZM300.912 567.364C301.304 567.364 301.628 567.057 301.628 566.682C301.628 566.307 301.304 566 300.912 566C300.52 566 300.196 566.307 300.196 566.682C300.196 567.057 300.52 567.364 300.912 567.364ZM305.908 575.136C307.357 575.136 308.311 574.25 308.482 573.091H307.476C307.288 573.807 306.692 574.233 305.908 574.233C304.714 574.233 303.947 573.244 303.947 571.727C303.947 570.244 304.732 569.273 305.908 569.273C306.794 569.273 307.322 569.818 307.476 570.415H308.482C308.311 569.188 307.271 568.369 305.891 568.369C304.118 568.369 302.942 569.767 302.942 571.761C302.942 573.722 304.067 575.136 305.908 575.136ZM310.599 577.455C311.507 577.455 312.146 576.973 312.526 575.955L315.312 568.472L314.213 568.455L312.406 573.67H312.338L310.531 568.455H309.44L311.861 575.034L311.673 575.545C311.307 576.543 310.855 576.636 310.122 576.449L309.866 577.335C309.969 577.386 310.259 577.455 310.599 577.455ZM321.944 575.153C323.086 575.153 323.683 574.54 323.887 574.114H323.939V575H324.944V570.688C324.944 568.608 323.359 568.369 322.524 568.369C321.535 568.369 320.41 568.71 319.899 569.903L320.853 570.244C321.075 569.767 321.599 569.256 322.558 569.256C323.483 569.256 323.939 569.746 323.939 570.585V570.619C323.939 571.105 323.444 571.062 322.251 571.216C321.037 571.374 319.711 571.642 319.711 573.142C319.711 574.42 320.7 575.153 321.944 575.153ZM322.098 574.25C321.297 574.25 320.717 573.892 320.717 573.193C320.717 572.426 321.416 572.188 322.2 572.085C322.626 572.034 323.768 571.915 323.939 571.71V572.631C323.939 573.449 323.291 574.25 322.098 574.25ZM327.786 571.062C327.786 569.92 328.493 569.273 329.456 569.273C330.389 569.273 330.956 569.882 330.956 570.909V575H331.962V570.841C331.962 569.17 331.071 568.369 329.746 568.369C328.757 568.369 328.143 568.812 327.837 569.477H327.751V568.455H326.78V575H327.786V571.062ZM336.271 575.136C337.532 575.136 337.958 574.352 338.18 573.994H338.299V575H339.271V566.273H338.265V569.494H338.18C337.958 569.153 337.566 568.369 336.288 568.369C334.635 568.369 333.493 569.682 333.493 571.744C333.493 573.824 334.635 575.136 336.271 575.136ZM336.407 574.233C335.146 574.233 334.498 573.125 334.498 571.727C334.498 570.347 335.129 569.273 336.407 569.273C337.635 569.273 338.282 570.261 338.282 571.727C338.282 573.21 337.618 574.233 336.407 574.233Z" fill="black"/>
<path d="M32.5795 587.21H35.3239V595H36.3807V587.21H39.125V586.273H32.5795V587.21ZM42.4148 595.136C43.7443 595.136 44.7159 594.472 45.0227 593.483L44.0511 593.21C43.7955 593.892 43.2031 594.233 42.4148 594.233C41.2344 594.233 40.4205 593.47 40.3736 592.068H45.125V591.642C45.125 589.205 43.6761 588.369 42.3125 588.369C40.5398 588.369 39.3636 589.767 39.3636 591.778C39.3636 593.79 40.5227 595.136 42.4148 595.136ZM40.3736 591.199C40.4418 590.18 41.1619 589.273 42.3125 589.273C43.4034 589.273 44.1023 590.091 44.1023 591.199H40.3736ZM46.6548 595H47.6605V590.858C47.6605 589.972 48.3594 589.324 49.3139 589.324C49.5824 589.324 49.8594 589.375 49.9276 589.392V588.369C49.8125 588.361 49.5483 588.352 49.3991 588.352C48.6151 588.352 47.9332 588.795 47.6946 589.443H47.6264V588.455H46.6548V595ZM51.1197 595H52.1254V590.909C52.1254 589.95 52.8242 589.273 53.6083 589.273C54.3711 589.273 54.9038 589.771 54.9038 590.517V595H55.9265V590.739C55.9265 589.895 56.4549 589.273 57.3754 589.273C58.0913 589.273 58.7049 589.652 58.7049 590.619V595H59.7106V590.619C59.7106 589.081 58.8839 588.369 57.7163 588.369C56.7788 588.369 56.0927 588.8 55.756 589.477H55.6879C55.364 588.778 54.793 588.369 53.9322 588.369C53.0799 588.369 52.4492 588.778 52.1765 589.477H52.0913V588.455H51.1197V595ZM66.1857 589.92C65.8704 588.991 65.163 588.369 63.8675 588.369C62.4869 588.369 61.4641 589.153 61.4641 590.261C61.4641 591.165 62.0011 591.77 63.2028 592.051L64.2937 592.307C64.9542 592.46 65.2653 592.776 65.2653 593.227C65.2653 593.79 64.6687 594.25 63.7312 594.25C62.9087 594.25 62.3931 593.896 62.2141 593.193L61.2596 593.432C61.494 594.544 62.4102 595.136 63.7482 595.136C65.2695 595.136 66.305 594.305 66.305 593.176C66.305 592.264 65.734 591.689 64.5664 591.403L63.5948 591.165C62.8192 590.973 62.4698 590.713 62.4698 590.21C62.4698 589.648 63.0664 589.239 63.8675 589.239C64.7454 589.239 65.1076 589.724 65.2823 590.176L66.1857 589.92ZM73.12 595.153C74.2621 595.153 74.8587 594.54 75.0632 594.114H75.1143V595H76.12V590.688C76.12 588.608 74.5348 588.369 73.6996 588.369C72.7109 588.369 71.5859 588.71 71.0746 589.903L72.0291 590.244C72.2507 589.767 72.7749 589.256 73.7337 589.256C74.6584 589.256 75.1143 589.746 75.1143 590.585V590.619C75.1143 591.105 74.62 591.062 73.4268 591.216C72.2124 591.374 70.8871 591.642 70.8871 593.142C70.8871 594.42 71.8757 595.153 73.12 595.153ZM73.2734 594.25C72.4723 594.25 71.8928 593.892 71.8928 593.193C71.8928 592.426 72.5916 592.188 73.3757 592.085C73.8018 592.034 74.9439 591.915 75.1143 591.71V592.631C75.1143 593.449 74.4666 594.25 73.2734 594.25ZM78.9613 591.062C78.9613 589.92 79.6687 589.273 80.6317 589.273C81.565 589.273 82.1317 589.882 82.1317 590.909V595H83.1374V590.841C83.1374 589.17 82.2468 588.369 80.9215 588.369C79.9329 588.369 79.3192 588.812 79.0124 589.477H78.9272V588.455H77.9556V595H78.9613V591.062ZM87.4467 595.136C88.7081 595.136 89.1342 594.352 89.3558 593.994H89.4751V595H90.4467V586.273H89.4411V589.494H89.3558C89.1342 589.153 88.7422 588.369 87.4638 588.369C85.8104 588.369 84.6683 589.682 84.6683 591.744C84.6683 593.824 85.8104 595.136 87.4467 595.136ZM87.5831 594.233C86.3217 594.233 85.674 593.125 85.674 591.727C85.674 590.347 86.3047 589.273 87.5831 589.273C88.8104 589.273 89.4581 590.261 89.4581 591.727C89.4581 593.21 88.7933 594.233 87.5831 594.233ZM102.962 589C102.638 587.21 101.207 586.153 99.451 586.153C97.218 586.153 95.5987 587.875 95.5987 590.636C95.5987 593.398 97.218 595.119 99.451 595.119C101.207 595.119 102.638 594.062 102.962 592.273H101.906C101.65 593.483 100.61 594.131 99.451 594.131C97.8658 594.131 96.6214 592.903 96.6214 590.636C96.6214 588.369 97.8658 587.142 99.451 587.142C100.61 587.142 101.65 587.79 101.906 589H102.962ZM107.193 595.136C108.966 595.136 110.159 593.79 110.159 591.761C110.159 589.716 108.966 588.369 107.193 588.369C105.42 588.369 104.227 589.716 104.227 591.761C104.227 593.79 105.42 595.136 107.193 595.136ZM107.193 594.233C105.846 594.233 105.233 593.074 105.233 591.761C105.233 590.449 105.846 589.273 107.193 589.273C108.539 589.273 109.153 590.449 109.153 591.761C109.153 593.074 108.539 594.233 107.193 594.233ZM112.7 591.062C112.7 589.92 113.407 589.273 114.37 589.273C115.303 589.273 115.87 589.882 115.87 590.909V595H116.876V590.841C116.876 589.17 115.985 588.369 114.66 588.369C113.671 588.369 113.058 588.812 112.751 589.477H112.665V588.455H111.694V595H112.7V591.062ZM121.185 595.136C122.446 595.136 122.873 594.352 123.094 593.994H123.213V595H124.185V586.273H123.179V589.494H123.094C122.873 589.153 122.48 588.369 121.202 588.369C119.549 588.369 118.407 589.682 118.407 591.744C118.407 593.824 119.549 595.136 121.185 595.136ZM121.321 594.233C120.06 594.233 119.412 593.125 119.412 591.727C119.412 590.347 120.043 589.273 121.321 589.273C122.549 589.273 123.196 590.261 123.196 591.727C123.196 593.21 122.532 594.233 121.321 594.233ZM126.167 595H127.172V588.455H126.167V595ZM126.678 587.364C127.07 587.364 127.394 587.057 127.394 586.682C127.394 586.307 127.07 586 126.678 586C126.286 586 125.962 586.307 125.962 586.682C125.962 587.057 126.286 587.364 126.678 587.364ZM131.861 588.455H130.463V586.886H129.457V588.455H128.469V589.307H129.457V593.398C129.457 594.54 130.378 595.085 131.23 595.085C131.605 595.085 131.844 595.017 131.98 594.966L131.776 594.062C131.69 594.08 131.554 594.114 131.332 594.114C130.889 594.114 130.463 593.977 130.463 593.125V589.307H131.861V588.455ZM133.374 595H134.379V588.455H133.374V595ZM133.885 587.364C134.277 587.364 134.601 587.057 134.601 586.682C134.601 586.307 134.277 586 133.885 586C133.493 586 133.169 586.307 133.169 586.682C133.169 587.057 133.493 587.364 133.885 587.364ZM138.88 595.136C140.653 595.136 141.846 593.79 141.846 591.761C141.846 589.716 140.653 588.369 138.88 588.369C137.108 588.369 135.914 589.716 135.914 591.761C135.914 593.79 137.108 595.136 138.88 595.136ZM138.88 594.233C137.534 594.233 136.92 593.074 136.92 591.761C136.92 590.449 137.534 589.273 138.88 589.273C140.227 589.273 140.841 590.449 140.841 591.761C140.841 593.074 140.227 594.233 138.88 594.233ZM144.387 591.062C144.387 589.92 145.094 589.273 146.058 589.273C146.991 589.273 147.558 589.882 147.558 590.909V595H148.563V590.841C148.563 589.17 147.673 588.369 146.347 588.369C145.359 588.369 144.745 588.812 144.438 589.477H144.353V588.455H143.381V595H144.387V591.062ZM155.037 589.92C154.722 588.991 154.015 588.369 152.719 588.369C151.338 588.369 150.316 589.153 150.316 590.261C150.316 591.165 150.853 591.77 152.054 592.051L153.145 592.307C153.806 592.46 154.117 592.776 154.117 593.227C154.117 593.79 153.52 594.25 152.583 594.25C151.76 594.25 151.245 593.896 151.066 593.193L150.111 593.432C150.346 594.544 151.262 595.136 152.6 595.136C154.121 595.136 155.157 594.305 155.157 593.176C155.157 592.264 154.586 591.689 153.418 591.403L152.446 591.165C151.671 590.973 151.321 590.713 151.321 590.21C151.321 589.648 151.918 589.239 152.719 589.239C153.597 589.239 153.959 589.724 154.134 590.176L155.037 589.92ZM157.403 595.068C157.825 595.068 158.17 594.723 158.17 594.301C158.17 593.879 157.825 593.534 157.403 593.534C156.982 593.534 156.636 593.879 156.636 594.301C156.636 594.723 156.982 595.068 157.403 595.068Z" fill="#1A5EDE"/>
</g>
<defs>
<filter id="filter0_d_76_4" x="153" y="53.9822" width="82" height="77.0358" filterUnits="userSpaceOnUse" color-interpolation-filters="sRGB">
<feFlood flood-opacity="0" result="BackgroundImageFix"/>
<feColorMatrix in="SourceAlpha" type="matrix" values="0 0 0 0 0 0 0 0 0 0 0 0 0 0 0 0 0 0 127 0" result="hardAlpha"/>
<feOffset dy="4"/>
<feGaussianBlur stdDeviation="1"/>
<feComposite in2="hardAlpha" operator="out"/>
<feColorMatrix type="matrix" values="0 0 0 0 0 0 0 0 0 0 0 0 0 0 0 0 0 0 0.23 0"/>
<feBlend mode="normal" in2="BackgroundImageFix" result="effect1_dropShadow_76_4"/>
<feBlend mode="normal" in="SourceGraphic" in2="effect1_dropShadow_76_4" result="shape"/>
</filter>
<clipPath id="clip0_76_4">
<rect width="390" height="811" rx="4" fill="white"/>
</clipPath>
<clipPath id="clip1_76_4">
<rect width="28" height="29" fill="white" transform="translate(70 652)"/>
</clipPath>
</defs>
</svg>
