<svg width="28" height="29" viewBox="0 0 28 29" fill="none" xmlns="http://www.w3.org/2000/svg">
<g clip-path="url(#clip0_81_10)">
<path d="M6.14366 11.7994C6.68952 10.0889 7.74299 8.60069 9.15379 7.54701C10.5646 6.49332 12.2606 5.92801 14 5.93171C15.9717 5.93171 17.7543 6.65671 19.1543 7.84329L23.2283 3.625C20.7457 1.38354 17.5642 0 14 0C8.48166 0 3.73099 3.26008 1.44666 8.03542L6.14366 11.7994Z" fill="#EA4335"/>
<path d="M18.7133 21.7657C17.4417 22.6151 15.827 23.0683 14 23.0683C12.2676 23.072 10.5779 22.5111 9.17029 21.4652C7.76263 20.4193 6.70828 18.9413 6.15651 17.2405L1.44318 20.9464C2.59963 23.3707 4.38932 25.4105 6.60897 26.8341C8.82862 28.2577 11.3892 29.0081 14 29C17.4218 29 20.6908 27.7397 23.1397 25.375L18.7145 21.7657H18.7133Z" fill="#34A853"/>
<path d="M23.1397 25.375C25.7005 22.9003 27.363 19.2173 27.363 14.5C27.363 13.6421 27.2358 12.7201 27.0457 11.8634H14V17.4664H21.5087C21.1388 19.3502 20.1437 20.8087 18.7145 21.7657L23.1397 25.375Z" fill="#4A90E2"/>
<path d="M6.15657 17.2405C5.87116 16.3571 5.72616 15.4315 5.72724 14.5C5.72724 13.5551 5.87307 12.6476 6.14374 11.7994L1.44674 8.0354C0.485849 10.0445 -0.00948764 12.2579 7.48285e-05 14.5C7.48285e-05 16.82 0.519241 19.0071 1.44324 20.9464L6.15657 17.2405Z" fill="#FBBC05"/>
</g>
<defs>
<clipPath id="clip0_81_10">
<rect width="28" height="29" fill="white"/>
</clipPath>
</defs>
</svg>
